M48
; DRILL file {KiCad 7.0.8-1.fc38} date Wed 06 Dec 2023 13:29:28 CET
; FORMAT={-:-/ absolute / inch / decimal}
; #@! TF.CreationDate,2023-12-06T13:29:28+01:00
; #@! TF.GenerationSoftware,Kicad,Pcbnew,7.0.8-1.fc38
; #@! TF.FileFunction,Plated,1,4,PTH
FMAT,2
INCH
; #@! TA.AperFunction,Plated,PTH,ViaDrill
T1C0.0118
; #@! TA.AperFunction,Plated,PTH,ComponentDrill
T2C0.0290
; #@! TA.AperFunction,Plated,PTH,ComponentDrill
T3C0.0315
; #@! TA.AperFunction,Plated,PTH,ComponentDrill
T4C0.0354
; #@! TA.AperFunction,Plated,PTH,ViaDrill
T5C0.0394
; #@! TA.AperFunction,Plated,PTH,ComponentDrill
T6C0.0394
; #@! TA.AperFunction,Plated,PTH,ComponentDrill
T7C0.0400
; #@! TA.AperFunction,Plated,PTH,ComponentDrill
T8C0.0430
%
G90
G05
T1
X3.61Y-5.835
X3.76Y-5.375
X3.8583Y-5.1575
X3.8583Y-5.1969
X3.8583Y-5.2362
X3.8976Y-5.1575
X3.8976Y-5.1969
X3.8976Y-5.2362
X3.937Y-5.1575
X3.937Y-5.1969
X3.937Y-5.2362
X3.96Y-4.98
X3.9764Y-5.1575
X3.9764Y-5.1969
X3.9764Y-5.2362
X4.0157Y-5.1575
X4.0157Y-5.1969
X4.0157Y-5.2362
X4.04Y-6.65
X4.0453Y-7.5295
X4.0551Y-5.1575
X4.0551Y-5.1969
X4.0551Y-5.2362
X4.065Y-8.1299
X4.0846Y-7.6575
X4.0945Y-5.1575
X4.0945Y-5.1969
X4.0945Y-5.2362
X4.0976Y-7.8783
X4.1043Y-9.252
X4.1142Y-7.5886
X4.1282Y-7.2406
X4.1282Y-7.28
X4.1282Y-7.3194
X4.13Y-5.47
X4.1339Y-5.1575
X4.1339Y-5.1969
X4.1339Y-5.2362
X4.1676Y-7.2406
X4.1676Y-7.28
X4.1676Y-7.3194
X4.1732Y-4.9213
X4.1938Y-6.7028
X4.1938Y-6.7421
X4.1938Y-6.7815
X4.205Y-5.215
X4.2069Y-7.2406
X4.2069Y-7.28
X4.2069Y-7.3194
X4.22Y-6.1
X4.2224Y-5.6102
X4.2224Y-5.7776
X4.23Y-6.965
X4.2331Y-6.7028
X4.2331Y-6.7421
X4.2331Y-6.7815
X4.2421Y-7.628
X4.2463Y-7.2406
X4.2463Y-7.28
X4.2463Y-7.3194
X4.2725Y-6.7028
X4.2725Y-6.7421
X4.2725Y-6.7815
X4.2857Y-7.2406
X4.2857Y-7.28
X4.2857Y-7.3194
X4.3Y-5.465
X4.3102Y-7.9334
X4.3119Y-6.7028
X4.3119Y-6.7421
X4.3119Y-6.7815
X4.325Y-7.2406
X4.325Y-7.28
X4.325Y-7.3194
X4.3406Y-6.8602
X4.3406Y-6.8996
X4.3406Y-6.939
X4.3513Y-6.7028
X4.3513Y-6.7421
X4.3513Y-6.7815
X4.3543Y-7.7756
X4.3601Y-4.882
X4.3602Y-6.1319
X4.3644Y-7.2406
X4.3644Y-7.28
X4.3644Y-7.3194
X4.3701Y-7.626
X4.3799Y-6.8602
X4.3799Y-6.8996
X4.3799Y-6.939
X4.3898Y-7.5787
X4.3898Y-8.7008
X4.3898Y-8.7402
X4.3898Y-8.7795
X4.3906Y-6.7028
X4.3906Y-6.7421
X4.3906Y-6.7815
X4.4038Y-7.2406
X4.4038Y-7.28
X4.4038Y-7.3194
X4.41Y-7.015
X4.4193Y-6.8602
X4.4193Y-6.8996
X4.4193Y-6.939
X4.4291Y-8.7008
X4.4291Y-8.7402
X4.4291Y-8.7795
X4.43Y-6.7028
X4.43Y-6.7421
X4.43Y-6.7815
X4.44Y-5.135
X4.44Y-6.39
X4.4431Y-7.2406
X4.4431Y-7.28
X4.4431Y-7.3194
X4.445Y-6.55
X4.4488Y-5.9843
X4.4488Y-6.0433
X4.4587Y-6.8602
X4.4587Y-6.8996
X4.4587Y-6.939
X4.46Y-5.635
X4.4685Y-8.7008
X4.4685Y-8.7402
X4.4685Y-8.7795
X4.4694Y-6.7028
X4.4694Y-6.7421
X4.4694Y-6.7815
X4.475Y-7.665
X4.4825Y-7.2406
X4.4825Y-7.28
X4.4825Y-7.3194
X4.498Y-8.3071
X4.5079Y-8.7008
X4.5079Y-8.7402
X4.5079Y-8.7795
X4.5177Y-6.0925
X4.5219Y-7.2406
X4.5219Y-7.28
X4.5219Y-7.3194
X4.5374Y-8.2283
X4.5472Y-8.7008
X4.5472Y-8.7402
X4.5472Y-8.7795
X4.5613Y-7.2406
X4.5613Y-7.28
X4.5613Y-7.3194
X4.5866Y-8.7008
X4.5866Y-8.7402
X4.5866Y-8.7795
X4.595Y-4.93
X4.5965Y-6.565
X4.5965Y-6.6043
X4.5965Y-6.6437
X4.6006Y-7.2406
X4.6006Y-7.28
X4.6006Y-7.3194
X4.6154Y-6.4083
X4.6161Y-5.315
X4.626Y-8.7008
X4.626Y-8.7402
X4.626Y-8.7795
X4.6358Y-6.565
X4.6358Y-6.6043
X4.6358Y-6.6437
X4.6358Y-6.8209
X4.64Y-7.2406
X4.64Y-7.28
X4.64Y-7.3194
X4.6457Y-9.2028
X4.655Y-5.72
X4.6555Y-4.813
X4.6555Y-7.8346
X4.6654Y-7.9134
X4.6654Y-8.7008
X4.6654Y-8.7402
X4.6654Y-8.7795
X4.675Y-5.12
X4.6752Y-6.565
X4.6752Y-6.6043
X4.6752Y-6.6437
X4.6794Y-7.2406
X4.6794Y-7.28
X4.6794Y-7.3194
X4.6949Y-7.4803
X4.6949Y-7.5886
X4.695Y-5.005
X4.7047Y-7.7165
X4.7165Y-6.565
X4.7165Y-6.6043
X4.7165Y-6.6437
X4.7187Y-7.2406
X4.7187Y-7.28
X4.7187Y-7.3194
X4.7441Y-7.7953
X4.7638Y-5.8858
X4.7736Y-4.6949
X4.7736Y-7.4606
X4.7933Y-5.3445
X4.7933Y-8.0315
X4.795Y-8.68
X4.8228Y-7.6575
X4.84Y-7.745
X4.8622Y-4.3898
X4.8622Y-5.14
X4.8622Y-7.5
X4.872Y-8.0378
X4.8917Y-7.7165
X4.8955Y-7.1396
X4.9016Y-6.5551
X4.93Y-8.33
X4.936Y-7.4902
X4.9399Y-7.6755
X4.9508Y-7.1457
X4.9606Y-4.3012
X4.97Y-7.6427
X4.9803Y-6.4862
X4.9902Y-4.6949
X4.9902Y-4.7343
X4.9902Y-4.7736
X4.9902Y-7.687
X5.0Y-8.065
X5.01Y-8.7
X5.0187Y-7.875
X5.0295Y-4.6949
X5.0295Y-4.7343
X5.0295Y-4.7736
X5.035Y-7.41
X5.05Y-4.6
X5.05Y-7.675
X5.0689Y-4.6949
X5.0689Y-4.7343
X5.0689Y-4.7736
X5.0787Y-9.2028
X5.0787Y-9.3504
X5.095Y-4.305
X5.105Y-4.14
X5.105Y-6.615
X5.1083Y-4.6949
X5.1083Y-4.7343
X5.1083Y-4.7736
X5.1083Y-6.2205
X5.1109Y-6.3163
X5.1181Y-6.4075
X5.1181Y-6.7126
X5.1181Y-7.4902
X5.12Y-7.545
X5.128Y-6.3484
X5.128Y-6.4567
X5.128Y-6.6535
X5.14Y-7.405
X5.1476Y-4.6949
X5.1476Y-4.7343
X5.1476Y-4.7736
X5.1476Y-6.1122
X5.1476Y-6.2894
X5.1476Y-6.3878
X5.1575Y-9.0453
X5.1575Y-9.1043
X5.165Y-8.5
X5.1673Y-7.7559
X5.187Y-4.6949
X5.187Y-4.7343
X5.187Y-4.7736
X5.2023Y-4.5276
X5.2165Y-6.0335
X5.2165Y-6.1319
X5.2165Y-6.8799
X5.2165Y-7.4213
X5.2165Y-9.1142
X5.2264Y-4.6949
X5.2264Y-4.7343
X5.2264Y-4.7736
X5.2264Y-7.185
X5.2362Y-6.8406
X5.2362Y-9.2815
X5.2362Y-9.4094
X5.2461Y-7.4902
X5.2461Y-7.5492
X5.2461Y-8.9272
X5.265Y-8.235
X5.2657Y-4.6949
X5.2657Y-4.7343
X5.2657Y-4.7736
X5.2657Y-6.5354
X5.2657Y-7.8642
X5.2657Y-9.124
X5.2756Y-6.9685
X5.28Y-8.99
X5.2854Y-6.3238
X5.2854Y-9.0945
X5.2953Y-6.4272
X5.2953Y-8.7402
X5.2992Y-6.5862
X5.305Y-7.5
X5.3051Y-6.5354
X5.3051Y-6.8701
X5.3144Y-7.8459
X5.315Y-6.2697
X5.315Y-6.6339
X5.315Y-9.2323
X5.315Y-9.4158
X5.3248Y-6.0925
X5.3248Y-6.3386
X5.3346Y-7.1161
X5.3346Y-7.185
X5.34Y-7.79
X5.3494Y-6.3976
X5.3642Y-6.2697
X5.374Y-6.6299
X5.374Y-9.2421
X5.374Y-9.3012
X5.374Y-9.4094
X5.378Y-6.5787
X5.3794Y-4.5276
X5.3937Y-7.3661
X5.3937Y-8.8547
X5.397Y-8.7467
X5.4035Y-4.5965
X5.4035Y-6.2697
X5.405Y-6.435
X5.41Y-8.67
X5.4134Y-6.0925
X5.4134Y-6.8691
X5.4134Y-9.0846
X5.415Y-9.0
X5.4232Y-8.7992
X5.4331Y-7.7657
X5.4331Y-7.815
X5.4331Y-7.874
X5.4331Y-8.9567
X5.4331Y-9.2399
X5.4331Y-9.4158
X5.4429Y-4.6949
X5.4431Y-8.8337
X5.4528Y-7.126
X5.4528Y-7.185
X5.4528Y-7.3661
X5.4591Y-6.9014
X5.46Y-6.263
X5.4682Y-6.5738
X5.4724Y-6.6732
X5.48Y-9.0108
X5.4807Y-7.4551
X5.4823Y-6.0925
X5.4823Y-6.7224
X5.4823Y-7.8937
X5.4823Y-9.1142
X5.502Y-7.0472
X5.502Y-9.2815
X5.502Y-9.4094
X5.51Y-8.23
X5.5118Y-7.3661
X5.5118Y-7.9232
X5.515Y-9.13
X5.5207Y-9.0108
X5.5217Y-4.8622
X5.5217Y-7.8051
X5.5315Y-7.7264
X5.5315Y-9.0945
X5.55Y-6.64
X5.5512Y-7.126
X5.5512Y-7.2047
X5.561Y-7.313
X5.5709Y-6.8602
X5.5709Y-7.3661
X5.5754Y-9.0201
X5.5807Y-6.2894
X5.5807Y-8.75
X5.5846Y-6.9921
X5.6Y-8.575
X5.6004Y-7.5098
X5.6299Y-4.7638
X5.6299Y-6.5748
X5.6299Y-7.3661
X5.6299Y-7.7756
X5.6299Y-7.8101
X5.6299Y-7.9724
X5.6372Y-7.73
X5.64Y-4.07
X5.6496Y-8.75
X5.6594Y-6.2598
X5.6693Y-4.5669
X5.67Y-8.575
X5.6791Y-6.5453
X5.6791Y-9.1634
X5.6791Y-9.2224
X5.6791Y-9.3504
X5.6835Y-6.8815
X5.685Y-8.91
X5.689Y-6.1122
X5.689Y-6.5846
X5.689Y-6.6831
X5.689Y-7.4409
X5.689Y-7.5098
X5.689Y-9.0157
X5.695Y-7.065
X5.695Y-7.12
X5.695Y-7.19
X5.695Y-7.26
X5.7094Y-8.878
X5.715Y-8.01
X5.7229Y-8.9228
X5.7319Y-6.9137
X5.7323Y-6.3346
X5.7347Y-6.6614
X5.7382Y-4.5965
X5.7402Y-6.5866
X5.745Y-8.575
X5.7579Y-4.685
X5.7579Y-4.7244
X5.7579Y-4.7638
X5.7579Y-6.8701
X5.77Y-7.89
X5.7756Y-6.9173
X5.7776Y-7.6575
X5.78Y-6.815
X5.785Y-8.345
X5.7874Y-7.1614
X5.7874Y-7.2244
X5.7874Y-7.2992
X5.7972Y-4.685
X5.7972Y-4.7244
X5.7972Y-4.7638
X5.8049Y-7.689
X5.8071Y-6.8406
X5.8071Y-7.0965
X5.81Y-7.385
X5.8268Y-7.8248
X5.8366Y-4.685
X5.8366Y-4.7244
X5.8366Y-4.7638
X5.8465Y-4.5276
X5.8465Y-7.885
X5.8563Y-6.1713
X5.8563Y-6.8701
X5.8563Y-7.1063
X5.876Y-4.685
X5.876Y-4.7244
X5.876Y-4.7638
X5.876Y-6.5482
X5.89Y-6.24
X5.895Y-6.285
X5.8957Y-6.8012
X5.9154Y-4.685
X5.9154Y-4.7244
X5.9154Y-4.7638
X5.9154Y-7.185
X5.9154Y-7.7264
X5.9252Y-6.3081
X5.9547Y-4.685
X5.9547Y-4.7244
X5.9547Y-4.7638
X5.9547Y-8.9173
X5.9646Y-6.2303
X5.98Y-4.585
X5.9941Y-4.685
X5.9941Y-4.7244
X5.9941Y-4.7638
X5.9941Y-7.6083
X5.9941Y-7.9331
X6.0039Y-7.0965
X6.0039Y-8.2874
X6.0138Y-4.2618
X6.0138Y-8.2087
X6.02Y-7.795
X6.0236Y-7.5197
X6.0335Y-4.685
X6.0335Y-4.7244
X6.0335Y-4.7638
X6.0433Y-6.1614
X6.0728Y-6.9587
X6.0728Y-7.5197
X6.0827Y-6.1269
X6.0827Y-6.3189
X6.0925Y-7.6378
X6.105Y-4.795
X6.125Y-4.655
X6.13Y-7.415
X6.1457Y-7.5197
X6.1496Y-7.688
X6.1516Y-4.3996
X6.16Y-4.945
X6.1614Y-6.1811
X6.17Y-7.4518
X6.1713Y-5.4232
X6.18Y-7.88
X6.188Y-7.5197
X6.1909Y-5.187
X6.2008Y-5.3543
X6.2008Y-5.7579
X6.2106Y-5.7087
X6.2106Y-7.7067
X6.215Y-8.625
X6.235Y-8.36
X6.2402Y-5.4823
X6.2402Y-7.1457
X6.2492Y-5.5893
X6.25Y-5.9055
X6.2598Y-6.1811
X6.2598Y-7.687
X6.2697Y-7.5197
X6.2756Y-7.626
X6.2795Y-4.6555
X6.2795Y-5.1181
X6.2894Y-5.4134
X6.2894Y-5.561
X6.2966Y-5.9915
X6.2992Y-5.2362
X6.2992Y-5.6348
X6.2992Y-7.563
X6.3091Y-5.8071
X6.31Y-7.8445
X6.3287Y-5.4134
X6.33Y-7.96
X6.335Y-7.44
X6.3386Y-5.2362
X6.3386Y-5.6348
X6.34Y-4.945
X6.345Y-7.545
X6.35Y-7.665
X6.36Y-7.835
X6.3681Y-5.561
X6.3681Y-6.9094
X6.3878Y-5.7185
X6.4075Y-4.7835
X6.4075Y-5.4823
X6.4272Y-5.689
X6.437Y-6.3189
X6.445Y-7.305
X6.4665Y-6.2697
X6.4764Y-5.0787
X6.4764Y-5.1181
X6.4764Y-5.1575
X6.4931Y-5.6102
X6.4961Y-7.8445
X6.5Y-6.795
X6.505Y-9.015
X6.5059Y-6.1417
X6.5157Y-5.0787
X6.5157Y-5.1181
X6.5157Y-5.1575
X6.5354Y-5.8071
X6.5354Y-6.1909
X6.5445Y-6.1409
X6.5551Y-5.0787
X6.5551Y-5.1181
X6.5551Y-5.1575
X6.5551Y-7.8839
X6.5748Y-5.7579
X6.5748Y-6.2303
X6.575Y-6.37
X6.575Y-8.73
X6.58Y-7.245
X6.585Y-7.505
X6.5945Y-5.0787
X6.5945Y-5.1181
X6.5945Y-5.1575
X6.6043Y-5.7972
X6.6339Y-5.0787
X6.6339Y-5.1181
X6.6339Y-5.1575
X6.6437Y-6.1417
X6.6437Y-6.7323
X6.6437Y-6.7717
X6.6437Y-6.811
X6.6732Y-4.8622
X6.6732Y-5.0787
X6.6732Y-5.1181
X6.6732Y-5.1575
X6.6831Y-6.7323
X6.6831Y-6.7717
X6.6831Y-6.811
X6.69Y-9.245
X6.7126Y-5.0787
X6.7126Y-5.1181
X6.7126Y-5.1575
X6.7126Y-7.4902
X6.7126Y-7.5295
X6.7126Y-7.5689
X6.7126Y-7.8346
X6.7126Y-7.874
X6.7126Y-7.9134
X6.7126Y-8.5925
X6.7126Y-8.6319
X6.7126Y-8.6713
X6.7224Y-5.3445
X6.7224Y-6.7323
X6.7224Y-6.7717
X6.7224Y-6.811
X6.73Y-8.35
X6.7421Y-5.2953
X6.752Y-5.0787
X6.752Y-5.1181
X6.752Y-5.1575
X6.752Y-7.4902
X6.752Y-7.5295
X6.752Y-7.5689
X6.752Y-7.8346
X6.752Y-7.874
X6.752Y-7.9134
X6.752Y-8.5925
X6.752Y-8.6319
X6.752Y-8.6713
X6.7618Y-5.4232
X6.7618Y-5.502
X6.7618Y-5.5807
X6.7618Y-5.6594
X6.7618Y-6.7323
X6.7618Y-6.7717
X6.7618Y-6.811
X6.775Y-7.01
X6.7788Y-4.778
X6.79Y-7.2
X6.7913Y-7.4902
X6.7913Y-7.5295
X6.7913Y-7.5689
X6.7913Y-7.8346
X6.7913Y-7.874
X6.7913Y-7.9134
X6.7913Y-8.5925
X6.7913Y-8.6319
X6.7913Y-8.6713
X6.8012Y-5.8661
X6.8012Y-6.7323
X6.8012Y-6.7717
X6.8012Y-6.811
X6.8307Y-7.4902
X6.8307Y-7.5295
X6.8307Y-7.5689
X6.8307Y-7.8346
X6.8307Y-7.874
X6.8307Y-7.9134
X6.8307Y-8.5925
X6.8307Y-8.6319
X6.8307Y-8.6713
X6.8406Y-6.7323
X6.8406Y-6.7717
X6.8406Y-6.811
X6.8674Y-4.8469
X6.8701Y-7.4902
X6.8701Y-7.5295
X6.8701Y-7.5689
X6.8701Y-7.8346
X6.8701Y-7.874
X6.8701Y-7.9134
X6.8701Y-8.5925
X6.8701Y-8.6319
X6.8701Y-8.6713
X6.8799Y-6.7323
X6.8799Y-6.7717
X6.8799Y-6.811
X6.9094Y-6.1516
X6.9094Y-7.4902
X6.9094Y-7.5295
X6.9094Y-7.5689
X6.9094Y-7.8346
X6.9094Y-7.874
X6.9094Y-7.9134
X6.9094Y-8.5925
X6.9094Y-8.6319
X6.9094Y-8.6713
X6.91Y-9.33
X6.9193Y-5.6988
X6.9193Y-6.7323
X6.9193Y-6.7717
X6.9193Y-6.811
X6.9193Y-7.0374
X6.92Y-8.275
X6.9439Y-6.1811
X6.9488Y-7.4902
X6.9488Y-7.5295
X6.9488Y-7.5689
X6.9488Y-7.8346
X6.9488Y-7.874
X6.9488Y-7.9134
X6.9488Y-8.5925
X6.9488Y-8.6319
X6.9488Y-8.6713
X6.9685Y-5.2461
X6.9685Y-6.2205
X6.9783Y-5.3248
X6.9882Y-7.4902
X6.9882Y-7.5295
X6.9882Y-7.5689
X6.9882Y-7.8346
X6.9882Y-7.874
X6.9882Y-7.9134
X6.9882Y-8.5925
X6.9882Y-8.6319
X6.9882Y-8.6713
X6.99Y-7.28
X7.005Y-6.64
X7.05Y-4.88
X7.0669Y-6.2598
X7.115Y-5.06
X7.325Y-5.335
X7.3917Y-5.8465
T2
X5.3937Y-6.9488
X5.3937Y-7.0079
X5.3937Y-7.0669
X5.3937Y-7.126
X5.3937Y-7.185
X5.3937Y-7.2441
X5.3937Y-8.1102
X5.3937Y-8.1693
X5.3937Y-8.2283
X5.3937Y-8.2874
X5.3937Y-8.3465
X5.3937Y-8.4055
X5.6299Y-6.9488
X5.6299Y-7.0079
X5.6299Y-7.0669
X5.6299Y-7.126
X5.6299Y-7.185
X5.6299Y-7.2441
X5.6299Y-8.1102
X5.6299Y-8.1693
X5.6299Y-8.2283
X5.6299Y-8.2874
X5.6299Y-8.3465
X5.6299Y-8.4055
T3
X4.526Y-9.3799
X4.626Y-9.3799
X6.4945Y-9.3799
X6.5945Y-9.3799
T4
X3.6614Y-5.6693
X3.7614Y-5.6693
X4.5177Y-4.6221
X4.5884Y-4.5514
X5.2362Y-4.3307
X5.3362Y-4.3307
X5.7087Y-4.3307
X5.8087Y-4.3307
X6.449Y-4.5472
X6.5197Y-4.618
X7.2638Y-5.6693
X7.3638Y-5.6693
T5
X4.72Y-5.63
X4.815Y-7.59
T6
X4.2126Y-8.2579
X4.4193Y-8.2579
X4.6358Y-8.2579
X4.8425Y-8.2579
T7
X3.8961Y-5.6693
X3.9961Y-5.6693
X4.3486Y-4.7853
X4.4193Y-4.7146
X4.6832Y-4.4605
X4.7539Y-4.3898
X5.4709Y-4.3307
X5.5709Y-4.3307
X6.2482Y-4.3486
X6.3189Y-4.4193
X6.6124Y-4.7128
X6.6831Y-4.7835
X7.026Y-5.6693
X7.126Y-5.6693
T8
X5.7383Y-9.1535
X5.8367Y-9.1535
T0
M30
