%TF.GenerationSoftware,KiCad,Pcbnew,7.0.8-1.fc38*%
%TF.CreationDate,2023-12-06T13:29:31+01:00*%
%TF.ProjectId,frat,66726174-2e6b-4696-9361-645f70636258,rev?*%
%TF.SameCoordinates,Original*%
%TF.FileFunction,Paste,Bot*%
%TF.FilePolarity,Positive*%
%FSLAX46Y46*%
G04 Gerber Fmt 4.6, Leading zero omitted, Abs format (unit mm)*
G04 Created by KiCad (PCBNEW 7.0.8-1.fc38) date 2023-12-06 13:29:31*
%MOMM*%
%LPD*%
G01*
G04 APERTURE LIST*
G04 Aperture macros list*
%AMRoundRect*
0 Rectangle with rounded corners*
0 $1 Rounding radius*
0 $2 $3 $4 $5 $6 $7 $8 $9 X,Y pos of 4 corners*
0 Add a 4 corners polygon primitive as box body*
4,1,4,$2,$3,$4,$5,$6,$7,$8,$9,$2,$3,0*
0 Add four circle primitives for the rounded corners*
1,1,$1+$1,$2,$3*
1,1,$1+$1,$4,$5*
1,1,$1+$1,$6,$7*
1,1,$1+$1,$8,$9*
0 Add four rect primitives between the rounded corners*
20,1,$1+$1,$2,$3,$4,$5,0*
20,1,$1+$1,$4,$5,$6,$7,0*
20,1,$1+$1,$6,$7,$8,$9,0*
20,1,$1+$1,$8,$9,$2,$3,0*%
G04 Aperture macros list end*
%ADD10RoundRect,0.237500X-0.250000X-0.237500X0.250000X-0.237500X0.250000X0.237500X-0.250000X0.237500X0*%
%ADD11RoundRect,0.237500X-0.237500X0.250000X-0.237500X-0.250000X0.237500X-0.250000X0.237500X0.250000X0*%
%ADD12RoundRect,0.237500X0.300000X0.237500X-0.300000X0.237500X-0.300000X-0.237500X0.300000X-0.237500X0*%
%ADD13RoundRect,0.237500X-0.300000X-0.237500X0.300000X-0.237500X0.300000X0.237500X-0.300000X0.237500X0*%
%ADD14RoundRect,0.237500X-0.044194X-0.380070X0.380070X0.044194X0.044194X0.380070X-0.380070X-0.044194X0*%
%ADD15RoundRect,0.237500X-0.380070X0.044194X0.044194X-0.380070X0.380070X-0.044194X-0.044194X0.380070X0*%
%ADD16RoundRect,0.237500X-0.237500X0.300000X-0.237500X-0.300000X0.237500X-0.300000X0.237500X0.300000X0*%
%ADD17RoundRect,0.237500X0.237500X-0.250000X0.237500X0.250000X-0.237500X0.250000X-0.237500X-0.250000X0*%
%ADD18RoundRect,0.237500X0.237500X-0.300000X0.237500X0.300000X-0.237500X0.300000X-0.237500X-0.300000X0*%
%ADD19RoundRect,0.237500X0.380070X-0.044194X-0.044194X0.380070X-0.380070X0.044194X0.044194X-0.380070X0*%
%ADD20RoundRect,0.237500X0.250000X0.237500X-0.250000X0.237500X-0.250000X-0.237500X0.250000X-0.237500X0*%
G04 APERTURE END LIST*
D10*
%TO.C,R60*%
X155587500Y-197500000D03*
X157412500Y-197500000D03*
%TD*%
%TO.C,R63*%
X124750000Y-184000000D03*
X126575000Y-184000000D03*
%TD*%
%TO.C,R62*%
X156337500Y-186250000D03*
X158162500Y-186250000D03*
%TD*%
%TO.C,R61*%
X125562500Y-197500000D03*
X127387500Y-197500000D03*
%TD*%
D11*
%TO.C,R59*%
X156750000Y-168925000D03*
X156750000Y-170750000D03*
%TD*%
%TO.C,R58*%
X158500000Y-168925000D03*
X158500000Y-170750000D03*
%TD*%
%TO.C,R57*%
X127500000Y-170087500D03*
X127500000Y-171912500D03*
%TD*%
%TO.C,R56*%
X125750000Y-170087500D03*
X125750000Y-171912500D03*
%TD*%
%TO.C,R27*%
X153250000Y-168925000D03*
X153250000Y-170750000D03*
%TD*%
%TO.C,R26*%
X155000000Y-168925000D03*
X155000000Y-170750000D03*
%TD*%
%TO.C,R21*%
X122250000Y-170087500D03*
X122250000Y-171912500D03*
%TD*%
%TO.C,R18*%
X124000000Y-170087500D03*
X124000000Y-171912500D03*
%TD*%
%TO.C,R55*%
X138000000Y-236250000D03*
X138000000Y-238075000D03*
%TD*%
%TO.C,R54*%
X135000000Y-236087500D03*
X135000000Y-237912500D03*
%TD*%
D12*
%TO.C,C53*%
X161112500Y-145250000D03*
X159387500Y-145250000D03*
%TD*%
%TO.C,C52*%
X161362500Y-139750000D03*
X159637500Y-139750000D03*
%TD*%
D13*
%TO.C,C15*%
X156237500Y-192500000D03*
X157962500Y-192500000D03*
%TD*%
D14*
%TO.C,C38*%
X146390120Y-158359880D03*
X147609880Y-157140120D03*
%TD*%
D12*
%TO.C,C34*%
X133112500Y-163750000D03*
X131387500Y-163750000D03*
%TD*%
%TO.C,C36*%
X133112500Y-167250000D03*
X131387500Y-167250000D03*
%TD*%
D15*
%TO.C,C37*%
X146390120Y-171140120D03*
X147609880Y-172359880D03*
%TD*%
D12*
%TO.C,C29*%
X133112500Y-161250000D03*
X131387500Y-161250000D03*
%TD*%
D16*
%TO.C,C33*%
X135750000Y-156137500D03*
X135750000Y-157862500D03*
%TD*%
D11*
%TO.C,R14*%
X141478000Y-218924500D03*
X141478000Y-220749500D03*
%TD*%
D10*
%TO.C,R23*%
X172837500Y-143750000D03*
X174662500Y-143750000D03*
%TD*%
D17*
%TO.C,R44*%
X139250000Y-157912500D03*
X139250000Y-156087500D03*
%TD*%
D12*
%TO.C,C28*%
X148612500Y-160250000D03*
X146887500Y-160250000D03*
%TD*%
D10*
%TO.C,R20*%
X172837500Y-139750000D03*
X174662500Y-139750000D03*
%TD*%
D16*
%TO.C,C32*%
X135750000Y-171637500D03*
X135750000Y-173362500D03*
%TD*%
D12*
%TO.C,C35*%
X133112500Y-169000000D03*
X131387500Y-169000000D03*
%TD*%
D11*
%TO.C,R28*%
X142800000Y-171587500D03*
X142800000Y-173412500D03*
%TD*%
D18*
%TO.C,C18*%
X136017000Y-226541500D03*
X136017000Y-224816500D03*
%TD*%
D11*
%TO.C,R15*%
X143129000Y-218924500D03*
X143129000Y-220749500D03*
%TD*%
D16*
%TO.C,C3*%
X114500000Y-151887500D03*
X114500000Y-153612500D03*
%TD*%
D14*
%TO.C,C40*%
X131890120Y-172109880D03*
X133109880Y-170890120D03*
%TD*%
D12*
%TO.C,C30*%
X148525000Y-169200000D03*
X146800000Y-169200000D03*
%TD*%
D16*
%TO.C,C31*%
X144500000Y-171637500D03*
X144500000Y-173362500D03*
%TD*%
D12*
%TO.C,C16*%
X127362500Y-191500000D03*
X125637500Y-191500000D03*
%TD*%
D13*
%TO.C,C1*%
X163617500Y-154250000D03*
X165342500Y-154250000D03*
%TD*%
D10*
%TO.C,R22*%
X172837500Y-141750000D03*
X174662500Y-141750000D03*
%TD*%
D11*
%TO.C,R51*%
X127381000Y-201144500D03*
X127381000Y-202969500D03*
%TD*%
D13*
%TO.C,C14*%
X156237500Y-194200000D03*
X157962500Y-194200000D03*
%TD*%
D11*
%TO.C,R42*%
X140000000Y-116000000D03*
X140000000Y-117825000D03*
%TD*%
%TO.C,R43*%
X137500000Y-156087500D03*
X137500000Y-157912500D03*
%TD*%
D19*
%TO.C,C39*%
X133750000Y-158500000D03*
X132530240Y-157280240D03*
%TD*%
D12*
%TO.C,C17*%
X127362500Y-193250000D03*
X125637500Y-193250000D03*
%TD*%
D10*
%TO.C,R19*%
X172837500Y-137750000D03*
X174662500Y-137750000D03*
%TD*%
D20*
%TO.C,R32*%
X181162500Y-135250000D03*
X179337500Y-135250000D03*
%TD*%
M02*
