%TF.GenerationSoftware,KiCad,Pcbnew,7.0.8-1.fc38*%
%TF.CreationDate,2023-12-05T14:34:52+01:00*%
%TF.ProjectId,frat,66726174-2e6b-4696-9361-645f70636258,rev?*%
%TF.SameCoordinates,Original*%
%TF.FileFunction,Drillmap*%
%TF.FilePolarity,Positive*%
%FSLAX45Y45*%
G04 Gerber Fmt 4.5, Leading zero omitted, Abs format (unit mm)*
G04 Created by KiCad (PCBNEW 7.0.8-1.fc38) date 2023-12-05 14:34:52*
%MOMM*%
%LPD*%
G01*
G04 APERTURE LIST*
%ADD10C,0.100000*%
%ADD11C,0.200000*%
%ADD12C,0.030000*%
%ADD13C,0.073660*%
%ADD14C,0.080000*%
%ADD15C,0.090000*%
%ADD16C,0.101600*%
%ADD17C,0.109220*%
G04 APERTURE END LIST*
D10*
X10000000Y-15000000D02*
X10000000Y-24000000D01*
X18000000Y-24000000D02*
X18000000Y-15000000D01*
D11*
X19000000Y-15000000D02*
G75*
G03*
X9000000Y-15000000I-5000000J0D01*
G01*
D10*
X10000000Y-15000000D02*
X9000000Y-15000000D01*
X10000000Y-24000000D02*
X18000000Y-24000000D01*
X18000000Y-15000000D02*
X19000000Y-15000000D01*
D11*
D12*
X9154400Y-14805900D02*
X9184400Y-14835900D01*
X9184400Y-14805900D02*
X9154400Y-14835900D01*
X9535400Y-13637500D02*
X9565400Y-13667500D01*
X9565400Y-13637500D02*
X9535400Y-13667500D01*
X9785000Y-13085000D02*
X9815000Y-13115000D01*
X9815000Y-13085000D02*
X9785000Y-13115000D01*
X9785000Y-13185000D02*
X9815000Y-13215000D01*
X9815000Y-13185000D02*
X9785000Y-13215000D01*
X9785000Y-13285000D02*
X9815000Y-13315000D01*
X9815000Y-13285000D02*
X9785000Y-13315000D01*
X9885000Y-13085000D02*
X9915000Y-13115000D01*
X9915000Y-13085000D02*
X9885000Y-13115000D01*
X9885000Y-13185000D02*
X9915000Y-13215000D01*
X9915000Y-13185000D02*
X9885000Y-13215000D01*
X9885000Y-13285000D02*
X9915000Y-13315000D01*
X9915000Y-13285000D02*
X9885000Y-13315000D01*
X9985000Y-13085000D02*
X10015000Y-13115000D01*
X10015000Y-13085000D02*
X9985000Y-13115000D01*
X9985000Y-13185000D02*
X10015000Y-13215000D01*
X10015000Y-13185000D02*
X9985000Y-13215000D01*
X9985000Y-13285000D02*
X10015000Y-13315000D01*
X10015000Y-13285000D02*
X9985000Y-13315000D01*
X10043400Y-12634200D02*
X10073400Y-12664200D01*
X10073400Y-12634200D02*
X10043400Y-12664200D01*
X10085000Y-13085000D02*
X10115000Y-13115000D01*
X10115000Y-13085000D02*
X10085000Y-13115000D01*
X10085000Y-13185000D02*
X10115000Y-13215000D01*
X10115000Y-13185000D02*
X10085000Y-13215000D01*
X10085000Y-13285000D02*
X10115000Y-13315000D01*
X10115000Y-13285000D02*
X10085000Y-13315000D01*
X10185000Y-13085000D02*
X10215000Y-13115000D01*
X10215000Y-13085000D02*
X10185000Y-13115000D01*
X10185000Y-13185000D02*
X10215000Y-13215000D01*
X10215000Y-13185000D02*
X10185000Y-13215000D01*
X10185000Y-13285000D02*
X10215000Y-13315000D01*
X10215000Y-13285000D02*
X10185000Y-13315000D01*
X10246600Y-16876000D02*
X10276600Y-16906000D01*
X10276600Y-16876000D02*
X10246600Y-16906000D01*
X10260000Y-19110000D02*
X10290000Y-19140000D01*
X10290000Y-19110000D02*
X10260000Y-19140000D01*
X10285000Y-13085000D02*
X10315000Y-13115000D01*
X10315000Y-13085000D02*
X10285000Y-13115000D01*
X10285000Y-13185000D02*
X10315000Y-13215000D01*
X10315000Y-13185000D02*
X10285000Y-13215000D01*
X10285000Y-13285000D02*
X10315000Y-13315000D01*
X10315000Y-13285000D02*
X10285000Y-13315000D01*
X10310000Y-20635000D02*
X10340000Y-20665000D01*
X10340000Y-20635000D02*
X10310000Y-20665000D01*
X10360000Y-19435000D02*
X10390000Y-19465000D01*
X10390000Y-19435000D02*
X10360000Y-19465000D01*
X10385000Y-13085000D02*
X10415000Y-13115000D01*
X10415000Y-13085000D02*
X10385000Y-13115000D01*
X10385000Y-13185000D02*
X10415000Y-13215000D01*
X10415000Y-13185000D02*
X10385000Y-13215000D01*
X10385000Y-13285000D02*
X10415000Y-13315000D01*
X10415000Y-13285000D02*
X10385000Y-13315000D01*
X10393000Y-19995890D02*
X10423000Y-20025890D01*
X10423000Y-19995890D02*
X10393000Y-20025890D01*
X10410000Y-23485000D02*
X10440000Y-23515000D01*
X10440000Y-23485000D02*
X10410000Y-23515000D01*
X10435000Y-19260000D02*
X10465000Y-19290000D01*
X10465000Y-19260000D02*
X10435000Y-19290000D01*
X10470600Y-18376200D02*
X10500600Y-18406200D01*
X10500600Y-18376200D02*
X10470600Y-18406200D01*
X10470600Y-18476200D02*
X10500600Y-18506200D01*
X10500600Y-18476200D02*
X10470600Y-18506200D01*
X10470600Y-18576200D02*
X10500600Y-18606200D01*
X10500600Y-18576200D02*
X10470600Y-18606200D01*
X10475200Y-13878800D02*
X10505200Y-13908800D01*
X10505200Y-13878800D02*
X10475200Y-13908800D01*
X10485000Y-13085000D02*
X10515000Y-13115000D01*
X10515000Y-13085000D02*
X10485000Y-13115000D01*
X10485000Y-13185000D02*
X10515000Y-13215000D01*
X10515000Y-13185000D02*
X10485000Y-13215000D01*
X10485000Y-13285000D02*
X10515000Y-13315000D01*
X10515000Y-13285000D02*
X10485000Y-13315000D01*
X10570600Y-18376200D02*
X10600600Y-18406200D01*
X10600600Y-18376200D02*
X10570600Y-18406200D01*
X10570600Y-18476200D02*
X10600600Y-18506200D01*
X10600600Y-18476200D02*
X10570600Y-18506200D01*
X10570600Y-18576200D02*
X10600600Y-18606200D01*
X10600600Y-18576200D02*
X10570600Y-18606200D01*
X10585000Y-12485000D02*
X10615000Y-12515000D01*
X10615000Y-12485000D02*
X10585000Y-12515000D01*
X10637200Y-17010000D02*
X10667200Y-17040000D01*
X10667200Y-17010000D02*
X10637200Y-17040000D01*
X10637200Y-17110000D02*
X10667200Y-17140000D01*
X10667200Y-17110000D02*
X10637200Y-17140000D01*
X10637200Y-17210000D02*
X10667200Y-17240000D01*
X10667200Y-17210000D02*
X10637200Y-17240000D01*
X10665700Y-13231100D02*
X10695700Y-13261100D01*
X10695700Y-13231100D02*
X10665700Y-13261100D01*
X10670600Y-18376200D02*
X10700600Y-18406200D01*
X10700600Y-18376200D02*
X10670600Y-18406200D01*
X10670600Y-18476200D02*
X10700600Y-18506200D01*
X10700600Y-18476200D02*
X10670600Y-18506200D01*
X10670600Y-18576200D02*
X10700600Y-18606200D01*
X10700600Y-18576200D02*
X10670600Y-18606200D01*
X10703800Y-15479000D02*
X10733800Y-15509000D01*
X10733800Y-15479000D02*
X10703800Y-15509000D01*
X10710000Y-14235000D02*
X10740000Y-14265000D01*
X10740000Y-14235000D02*
X10710000Y-14265000D01*
X10710000Y-14660000D02*
X10740000Y-14690000D01*
X10740000Y-14660000D02*
X10710000Y-14690000D01*
X10729200Y-17676100D02*
X10759200Y-17706100D01*
X10759200Y-17676100D02*
X10729200Y-17706100D01*
X10737200Y-17010000D02*
X10767200Y-17040000D01*
X10767200Y-17010000D02*
X10737200Y-17040000D01*
X10737200Y-17110000D02*
X10767200Y-17140000D01*
X10767200Y-17110000D02*
X10737200Y-17140000D01*
X10737200Y-17210000D02*
X10767200Y-17240000D01*
X10767200Y-17210000D02*
X10737200Y-17240000D01*
X10760000Y-19360000D02*
X10790000Y-19390000D01*
X10790000Y-19360000D02*
X10760000Y-19390000D01*
X10770600Y-18376200D02*
X10800600Y-18406200D01*
X10800600Y-18376200D02*
X10770600Y-18406200D01*
X10770600Y-18476200D02*
X10800600Y-18506200D01*
X10800600Y-18476200D02*
X10770600Y-18506200D01*
X10770600Y-18576200D02*
X10800600Y-18606200D01*
X10800600Y-18576200D02*
X10770600Y-18606200D01*
X10837200Y-17010000D02*
X10867200Y-17040000D01*
X10867200Y-17010000D02*
X10837200Y-17040000D01*
X10837200Y-17110000D02*
X10867200Y-17140000D01*
X10867200Y-17110000D02*
X10837200Y-17140000D01*
X10837200Y-17210000D02*
X10867200Y-17240000D01*
X10867200Y-17210000D02*
X10837200Y-17240000D01*
X10870600Y-18376200D02*
X10900600Y-18406200D01*
X10900600Y-18376200D02*
X10870600Y-18406200D01*
X10870600Y-18476200D02*
X10900600Y-18506200D01*
X10900600Y-18476200D02*
X10870600Y-18506200D01*
X10870600Y-18576200D02*
X10900600Y-18606200D01*
X10900600Y-18576200D02*
X10870600Y-18606200D01*
X10907000Y-13866100D02*
X10937000Y-13896100D01*
X10937000Y-13866100D02*
X10907000Y-13896100D01*
X10933000Y-20135890D02*
X10963000Y-20165890D01*
X10963000Y-20135890D02*
X10933000Y-20165890D01*
X10937200Y-17010000D02*
X10967200Y-17040000D01*
X10967200Y-17010000D02*
X10937200Y-17040000D01*
X10937200Y-17110000D02*
X10967200Y-17140000D01*
X10967200Y-17110000D02*
X10937200Y-17140000D01*
X10937200Y-17210000D02*
X10967200Y-17240000D01*
X10967200Y-17210000D02*
X10937200Y-17240000D01*
X10970600Y-18376200D02*
X11000600Y-18406200D01*
X11000600Y-18376200D02*
X10970600Y-18406200D01*
X10970600Y-18476200D02*
X11000600Y-18506200D01*
X11000600Y-18476200D02*
X10970600Y-18506200D01*
X10970600Y-18576200D02*
X11000600Y-18606200D01*
X11000600Y-18576200D02*
X10970600Y-18606200D01*
X11037200Y-17010000D02*
X11067200Y-17040000D01*
X11067200Y-17010000D02*
X11037200Y-17040000D01*
X11037200Y-17110000D02*
X11067200Y-17140000D01*
X11067200Y-17110000D02*
X11037200Y-17140000D01*
X11037200Y-17210000D02*
X11067200Y-17240000D01*
X11067200Y-17210000D02*
X11037200Y-17240000D01*
X11045000Y-19735000D02*
X11075000Y-19765000D01*
X11075000Y-19735000D02*
X11045000Y-19765000D01*
X11059605Y-12385395D02*
X11089605Y-12415395D01*
X11089605Y-12385395D02*
X11059605Y-12415395D01*
X11060000Y-15560000D02*
X11090000Y-15590000D01*
X11090000Y-15560000D02*
X11060000Y-15590000D01*
X11070600Y-18376200D02*
X11100600Y-18406200D01*
X11100600Y-18376200D02*
X11070600Y-18406200D01*
X11070600Y-18476200D02*
X11100600Y-18506200D01*
X11100600Y-18476200D02*
X11070600Y-18506200D01*
X11070600Y-18576200D02*
X11100600Y-18606200D01*
X11100600Y-18576200D02*
X11070600Y-18606200D01*
X11085000Y-19355000D02*
X11115000Y-19385000D01*
X11115000Y-19355000D02*
X11085000Y-19385000D01*
X11135000Y-19235000D02*
X11165000Y-19265000D01*
X11165000Y-19235000D02*
X11135000Y-19265000D01*
X11135000Y-22085000D02*
X11165000Y-22115000D01*
X11165000Y-22085000D02*
X11135000Y-22115000D01*
X11135000Y-22185000D02*
X11165000Y-22215000D01*
X11165000Y-22185000D02*
X11135000Y-22215000D01*
X11135000Y-22285000D02*
X11165000Y-22315000D01*
X11165000Y-22285000D02*
X11135000Y-22315000D01*
X11137200Y-17010000D02*
X11167200Y-17040000D01*
X11167200Y-17010000D02*
X11137200Y-17040000D01*
X11137200Y-17110000D02*
X11167200Y-17140000D01*
X11167200Y-17110000D02*
X11137200Y-17140000D01*
X11137200Y-17210000D02*
X11167200Y-17240000D01*
X11167200Y-17210000D02*
X11137200Y-17240000D01*
X11170600Y-18376200D02*
X11200600Y-18406200D01*
X11200600Y-18376200D02*
X11170600Y-18406200D01*
X11170600Y-18476200D02*
X11200600Y-18506200D01*
X11200600Y-18476200D02*
X11170600Y-18506200D01*
X11170600Y-18576200D02*
X11200600Y-18606200D01*
X11200600Y-18576200D02*
X11170600Y-18606200D01*
X11186400Y-17803100D02*
X11216400Y-17833100D01*
X11216400Y-17803100D02*
X11186400Y-17833100D01*
X11235000Y-22085000D02*
X11265000Y-22115000D01*
X11265000Y-22085000D02*
X11235000Y-22115000D01*
X11235000Y-22185000D02*
X11265000Y-22215000D01*
X11265000Y-22185000D02*
X11235000Y-22215000D01*
X11235000Y-22285000D02*
X11265000Y-22315000D01*
X11265000Y-22285000D02*
X11235000Y-22315000D01*
X11237200Y-17010000D02*
X11267200Y-17040000D01*
X11267200Y-17010000D02*
X11237200Y-17040000D01*
X11237200Y-17110000D02*
X11267200Y-17140000D01*
X11267200Y-17110000D02*
X11237200Y-17140000D01*
X11237200Y-17210000D02*
X11267200Y-17240000D01*
X11267200Y-17210000D02*
X11237200Y-17240000D01*
X11262600Y-13027900D02*
X11292600Y-13057900D01*
X11292600Y-13027900D02*
X11262600Y-13057900D01*
X11262600Y-16215600D02*
X11292600Y-16245600D01*
X11292600Y-16215600D02*
X11262600Y-16245600D01*
X11270600Y-18376200D02*
X11300600Y-18406200D01*
X11300600Y-18376200D02*
X11270600Y-18406200D01*
X11270600Y-18476200D02*
X11300600Y-18506200D01*
X11300600Y-18476200D02*
X11270600Y-18506200D01*
X11270600Y-18576200D02*
X11300600Y-18606200D01*
X11300600Y-18576200D02*
X11270600Y-18606200D01*
X11275300Y-16622000D02*
X11305300Y-16652000D01*
X11305300Y-16622000D02*
X11275300Y-16652000D01*
X11285000Y-15185000D02*
X11315000Y-15215000D01*
X11315000Y-15185000D02*
X11285000Y-15215000D01*
X11285000Y-15335000D02*
X11315000Y-15365000D01*
X11315000Y-15335000D02*
X11285000Y-15365000D01*
X11313400Y-14297900D02*
X11343400Y-14327900D01*
X11343400Y-14297900D02*
X11313400Y-14327900D01*
X11335000Y-22085000D02*
X11365000Y-22115000D01*
X11365000Y-22085000D02*
X11335000Y-22115000D01*
X11335000Y-22185000D02*
X11365000Y-22215000D01*
X11365000Y-22185000D02*
X11335000Y-22215000D01*
X11335000Y-22285000D02*
X11365000Y-22315000D01*
X11365000Y-22285000D02*
X11335000Y-22315000D01*
X11337200Y-17010000D02*
X11367200Y-17040000D01*
X11367200Y-17010000D02*
X11337200Y-17040000D01*
X11337200Y-17110000D02*
X11367200Y-17140000D01*
X11367200Y-17110000D02*
X11337200Y-17140000D01*
X11337200Y-17210000D02*
X11367200Y-17240000D01*
X11367200Y-17210000D02*
X11337200Y-17240000D01*
X11351500Y-19454100D02*
X11381500Y-19484100D01*
X11381500Y-19454100D02*
X11351500Y-19484100D01*
X11370600Y-18376200D02*
X11400600Y-18406200D01*
X11400600Y-18376200D02*
X11370600Y-18406200D01*
X11370600Y-18476200D02*
X11400600Y-18506200D01*
X11400600Y-18476200D02*
X11370600Y-18506200D01*
X11370600Y-18576200D02*
X11400600Y-18606200D01*
X11400600Y-18576200D02*
X11370600Y-18606200D01*
X11410000Y-21085000D02*
X11440000Y-21115000D01*
X11440000Y-21085000D02*
X11410000Y-21115000D01*
X11435000Y-22085000D02*
X11465000Y-22115000D01*
X11465000Y-22085000D02*
X11435000Y-22115000D01*
X11435000Y-22185000D02*
X11465000Y-22215000D01*
X11465000Y-22185000D02*
X11435000Y-22215000D01*
X11435000Y-22285000D02*
X11465000Y-22315000D01*
X11465000Y-22285000D02*
X11435000Y-22315000D01*
X11460000Y-15460000D02*
X11490000Y-15490000D01*
X11490000Y-15460000D02*
X11460000Y-15490000D01*
X11470600Y-18376200D02*
X11500600Y-18406200D01*
X11500600Y-18376200D02*
X11470600Y-18406200D01*
X11470600Y-18476200D02*
X11500600Y-18506200D01*
X11500600Y-18476200D02*
X11470600Y-18506200D01*
X11470600Y-18576200D02*
X11500600Y-18606200D01*
X11500600Y-18576200D02*
X11470600Y-18606200D01*
X11510000Y-20885000D02*
X11540000Y-20915000D01*
X11540000Y-20885000D02*
X11510000Y-20915000D01*
X11535000Y-22085000D02*
X11565000Y-22115000D01*
X11565000Y-22085000D02*
X11535000Y-22115000D01*
X11535000Y-22185000D02*
X11565000Y-22215000D01*
X11565000Y-22185000D02*
X11535000Y-22215000D01*
X11535000Y-22285000D02*
X11565000Y-22315000D01*
X11565000Y-22285000D02*
X11535000Y-22315000D01*
X11570600Y-18376200D02*
X11600600Y-18406200D01*
X11600600Y-18376200D02*
X11570600Y-18406200D01*
X11570600Y-18476200D02*
X11600600Y-18506200D01*
X11600600Y-18476200D02*
X11570600Y-18506200D01*
X11570600Y-18576200D02*
X11600600Y-18606200D01*
X11600600Y-18576200D02*
X11570600Y-18606200D01*
X11635000Y-22085000D02*
X11665000Y-22115000D01*
X11665000Y-22085000D02*
X11635000Y-22115000D01*
X11635000Y-22185000D02*
X11665000Y-22215000D01*
X11665000Y-22185000D02*
X11635000Y-22215000D01*
X11635000Y-22285000D02*
X11665000Y-22315000D01*
X11665000Y-22285000D02*
X11635000Y-22315000D01*
X11656300Y-12507200D02*
X11686300Y-12537200D01*
X11686300Y-12507200D02*
X11656300Y-12537200D01*
X11670600Y-18376200D02*
X11700600Y-18406200D01*
X11700600Y-18376200D02*
X11670600Y-18406200D01*
X11670600Y-18476200D02*
X11700600Y-18506200D01*
X11700600Y-18476200D02*
X11670600Y-18506200D01*
X11670600Y-18576200D02*
X11700600Y-18606200D01*
X11700600Y-18576200D02*
X11670600Y-18606200D01*
X11710000Y-13485000D02*
X11740000Y-13515000D01*
X11740000Y-13485000D02*
X11710000Y-13515000D01*
X11735000Y-22085000D02*
X11765000Y-22115000D01*
X11765000Y-22085000D02*
X11735000Y-22115000D01*
X11735000Y-22185000D02*
X11765000Y-22215000D01*
X11765000Y-22185000D02*
X11735000Y-22215000D01*
X11735000Y-22285000D02*
X11765000Y-22315000D01*
X11765000Y-22285000D02*
X11735000Y-22315000D01*
X11738900Y-17018900D02*
X11768900Y-17048900D01*
X11768900Y-17018900D02*
X11738900Y-17048900D01*
X11738900Y-17118900D02*
X11768900Y-17148900D01*
X11768900Y-17118900D02*
X11738900Y-17148900D01*
X11738900Y-17218900D02*
X11768900Y-17248900D01*
X11768900Y-17218900D02*
X11738900Y-17248900D01*
X11770600Y-18376200D02*
X11800600Y-18406200D01*
X11800600Y-18376200D02*
X11770600Y-18406200D01*
X11770600Y-18476200D02*
X11800600Y-18506200D01*
X11800600Y-18476200D02*
X11770600Y-18506200D01*
X11770600Y-18576200D02*
X11800600Y-18606200D01*
X11800600Y-18576200D02*
X11770600Y-18606200D01*
X11785000Y-23360000D02*
X11815000Y-23390000D01*
X11815000Y-23360000D02*
X11785000Y-23390000D01*
X11808700Y-14513800D02*
X11838700Y-14543800D01*
X11838700Y-14513800D02*
X11808700Y-14543800D01*
X11810000Y-12210000D02*
X11840000Y-12240000D01*
X11840000Y-12210000D02*
X11810000Y-12240000D01*
X11810000Y-19885000D02*
X11840000Y-19915000D01*
X11840000Y-19885000D02*
X11810000Y-19915000D01*
X11835000Y-20085000D02*
X11865000Y-20115000D01*
X11865000Y-20085000D02*
X11835000Y-20115000D01*
X11835000Y-22085000D02*
X11865000Y-22115000D01*
X11865000Y-22085000D02*
X11835000Y-22115000D01*
X11835000Y-22185000D02*
X11865000Y-22215000D01*
X11865000Y-22185000D02*
X11835000Y-22215000D01*
X11835000Y-22285000D02*
X11865000Y-22315000D01*
X11865000Y-22285000D02*
X11835000Y-22315000D01*
X11838900Y-17018900D02*
X11868900Y-17048900D01*
X11868900Y-17018900D02*
X11838900Y-17048900D01*
X11838900Y-17118900D02*
X11868900Y-17148900D01*
X11868900Y-17118900D02*
X11838900Y-17148900D01*
X11838900Y-17218900D02*
X11868900Y-17248900D01*
X11868900Y-17218900D02*
X11838900Y-17248900D01*
X11859500Y-12989800D02*
X11889500Y-13019800D01*
X11889500Y-12989800D02*
X11859500Y-13019800D01*
X11870600Y-18376200D02*
X11900600Y-18406200D01*
X11900600Y-18376200D02*
X11870600Y-18406200D01*
X11870600Y-18476200D02*
X11900600Y-18506200D01*
X11900600Y-18476200D02*
X11870600Y-18506200D01*
X11870600Y-18576200D02*
X11900600Y-18606200D01*
X11900600Y-18576200D02*
X11870600Y-18606200D01*
X11910000Y-18985000D02*
X11940000Y-19015000D01*
X11940000Y-18985000D02*
X11910000Y-19015000D01*
X11910000Y-19260000D02*
X11940000Y-19290000D01*
X11940000Y-19260000D02*
X11910000Y-19290000D01*
X11910300Y-12697700D02*
X11940300Y-12727700D01*
X11940300Y-12697700D02*
X11910300Y-12727700D01*
X11935000Y-19585000D02*
X11965000Y-19615000D01*
X11965000Y-19585000D02*
X11935000Y-19615000D01*
X11935700Y-16736300D02*
X11965700Y-16766300D01*
X11965700Y-16736300D02*
X11935700Y-16766300D01*
X11938900Y-17018900D02*
X11968900Y-17048900D01*
X11968900Y-17018900D02*
X11938900Y-17048900D01*
X11938900Y-17118900D02*
X11968900Y-17148900D01*
X11968900Y-17118900D02*
X11938900Y-17148900D01*
X11938900Y-17218900D02*
X11968900Y-17248900D01*
X11968900Y-17218900D02*
X11938900Y-17248900D01*
X11970600Y-18376200D02*
X12000600Y-18406200D01*
X12000600Y-18376200D02*
X11970600Y-18406200D01*
X11970600Y-18476200D02*
X12000600Y-18506200D01*
X12000600Y-18476200D02*
X11970600Y-18506200D01*
X11970600Y-18576200D02*
X12000600Y-18606200D01*
X12000600Y-18576200D02*
X11970600Y-18606200D01*
X12035000Y-18760000D02*
X12065000Y-18790000D01*
X12065000Y-18760000D02*
X12035000Y-18790000D01*
X12035000Y-19785000D02*
X12065000Y-19815000D01*
X12065000Y-19785000D02*
X12035000Y-19815000D01*
X12038900Y-17018900D02*
X12068900Y-17048900D01*
X12068900Y-17018900D02*
X12038900Y-17048900D01*
X12038900Y-17118900D02*
X12068900Y-17148900D01*
X12068900Y-17118900D02*
X12038900Y-17148900D01*
X12038900Y-17218900D02*
X12068900Y-17248900D01*
X12068900Y-17218900D02*
X12038900Y-17248900D01*
X12085000Y-14935000D02*
X12115000Y-14965000D01*
X12115000Y-14935000D02*
X12085000Y-14965000D01*
X12110000Y-11910000D02*
X12140000Y-11940000D01*
X12140000Y-11910000D02*
X12110000Y-11940000D01*
X12138900Y-17018900D02*
X12168900Y-17048900D01*
X12168900Y-17018900D02*
X12138900Y-17048900D01*
X12138900Y-17118900D02*
X12168900Y-17148900D01*
X12168900Y-17118900D02*
X12138900Y-17148900D01*
X12138900Y-17218900D02*
X12168900Y-17248900D01*
X12168900Y-17218900D02*
X12138900Y-17248900D01*
X12160000Y-13560000D02*
X12190000Y-13590000D01*
X12190000Y-13560000D02*
X12160000Y-13590000D01*
X12160000Y-20385000D02*
X12190000Y-20415000D01*
X12190000Y-20385000D02*
X12160000Y-20415000D01*
X12164300Y-22032200D02*
X12194300Y-22062200D01*
X12194300Y-22032200D02*
X12164300Y-22062200D01*
X12202400Y-17587200D02*
X12232400Y-17617200D01*
X12232400Y-17587200D02*
X12202400Y-17617200D01*
X12235000Y-19435000D02*
X12265000Y-19465000D01*
X12265000Y-19435000D02*
X12235000Y-19465000D01*
X12238900Y-17018900D02*
X12268900Y-17048900D01*
X12268900Y-17018900D02*
X12238900Y-17048900D01*
X12238900Y-17118900D02*
X12268900Y-17148900D01*
X12268900Y-17118900D02*
X12238900Y-17148900D01*
X12238900Y-17218900D02*
X12268900Y-17248900D01*
X12268900Y-17218900D02*
X12238900Y-17248900D01*
X12278600Y-19657300D02*
X12308600Y-19687300D01*
X12308600Y-19657300D02*
X12278600Y-19687300D01*
X12335000Y-11135000D02*
X12365000Y-11165000D01*
X12365000Y-11135000D02*
X12335000Y-11165000D01*
X12335000Y-13040600D02*
X12365000Y-13070600D01*
X12365000Y-13040600D02*
X12335000Y-13070600D01*
X12338900Y-17018900D02*
X12368900Y-17048900D01*
X12368900Y-17018900D02*
X12338900Y-17048900D01*
X12338900Y-17118900D02*
X12368900Y-17148900D01*
X12368900Y-17118900D02*
X12338900Y-17148900D01*
X12338900Y-17218900D02*
X12368900Y-17248900D01*
X12368900Y-17218900D02*
X12338900Y-17248900D01*
X12360000Y-20400900D02*
X12390000Y-20430900D01*
X12390000Y-20400900D02*
X12360000Y-20430900D01*
X12367500Y-19441400D02*
X12397500Y-19471400D01*
X12397500Y-19441400D02*
X12367500Y-19471400D01*
X12380200Y-17853900D02*
X12410200Y-17883900D01*
X12410200Y-17853900D02*
X12380200Y-17883900D01*
X12443700Y-17018900D02*
X12473700Y-17048900D01*
X12473700Y-17018900D02*
X12443700Y-17048900D01*
X12443700Y-17118900D02*
X12473700Y-17148900D01*
X12473700Y-17118900D02*
X12443700Y-17148900D01*
X12443700Y-17218900D02*
X12473700Y-17248900D01*
X12473700Y-17218900D02*
X12443700Y-17248900D01*
X12469100Y-19428700D02*
X12499100Y-19458700D01*
X12499100Y-19428700D02*
X12469100Y-19458700D01*
X12507200Y-21143200D02*
X12537200Y-21173200D01*
X12537200Y-21143200D02*
X12507200Y-21173200D01*
X12522450Y-19010000D02*
X12552450Y-19040000D01*
X12552450Y-19010000D02*
X12522450Y-19040000D01*
X12585000Y-10910000D02*
X12615000Y-10940000D01*
X12615000Y-10910000D02*
X12585000Y-10940000D01*
X12608800Y-19397550D02*
X12638800Y-19427550D01*
X12638800Y-19397550D02*
X12608800Y-19427550D01*
X12635000Y-16460000D02*
X12665000Y-16490000D01*
X12665000Y-16460000D02*
X12635000Y-16490000D01*
X12660000Y-11910000D02*
X12690000Y-11940000D01*
X12690000Y-11910000D02*
X12660000Y-11940000D01*
X12660000Y-12010000D02*
X12690000Y-12040000D01*
X12690000Y-12010000D02*
X12660000Y-12040000D01*
X12660000Y-12110000D02*
X12690000Y-12140000D01*
X12690000Y-12110000D02*
X12660000Y-12140000D01*
X12685000Y-20470100D02*
X12715000Y-20500100D01*
X12715000Y-20470100D02*
X12685000Y-20500100D01*
X12710400Y-22083000D02*
X12740400Y-22113000D01*
X12740400Y-22083000D02*
X12710400Y-22113000D01*
X12732450Y-19987500D02*
X12762450Y-20017500D01*
X12762450Y-19987500D02*
X12732450Y-20017500D01*
X12760000Y-11910000D02*
X12790000Y-11940000D01*
X12790000Y-11910000D02*
X12760000Y-11940000D01*
X12760000Y-12010000D02*
X12790000Y-12040000D01*
X12790000Y-12010000D02*
X12760000Y-12040000D01*
X12760000Y-12110000D02*
X12790000Y-12140000D01*
X12790000Y-12110000D02*
X12760000Y-12140000D01*
X12773900Y-18806400D02*
X12803900Y-18836400D01*
X12803900Y-18806400D02*
X12773900Y-18836400D01*
X12812000Y-11669000D02*
X12842000Y-11699000D01*
X12842000Y-11669000D02*
X12812000Y-11699000D01*
X12812000Y-19479500D02*
X12842000Y-19509500D01*
X12842000Y-19479500D02*
X12812000Y-19509500D01*
X12850100Y-19098500D02*
X12880100Y-19128500D01*
X12880100Y-19098500D02*
X12850100Y-19128500D01*
X12860000Y-11910000D02*
X12890000Y-11940000D01*
X12890000Y-11910000D02*
X12860000Y-11940000D01*
X12860000Y-12010000D02*
X12890000Y-12040000D01*
X12890000Y-12010000D02*
X12860000Y-12040000D01*
X12860000Y-12110000D02*
X12890000Y-12140000D01*
X12890000Y-12110000D02*
X12860000Y-12140000D01*
X12860000Y-18535000D02*
X12890000Y-18565000D01*
X12890000Y-18535000D02*
X12860000Y-18565000D01*
X12862500Y-18717500D02*
X12892500Y-18747500D01*
X12892500Y-18717500D02*
X12862500Y-18747500D01*
X12885000Y-16710000D02*
X12915000Y-16740000D01*
X12915000Y-16710000D02*
X12885000Y-16740000D01*
X12885000Y-23360000D02*
X12915000Y-23390000D01*
X12915000Y-23360000D02*
X12885000Y-23390000D01*
X12885000Y-23735000D02*
X12915000Y-23765000D01*
X12915000Y-23735000D02*
X12885000Y-23765000D01*
X12926300Y-10919700D02*
X12956300Y-10949700D01*
X12956300Y-10919700D02*
X12926300Y-10949700D01*
X12951700Y-10500600D02*
X12981700Y-10530600D01*
X12981700Y-10500600D02*
X12951700Y-10530600D01*
X12951700Y-16787100D02*
X12981700Y-16817100D01*
X12981700Y-16787100D02*
X12951700Y-16817100D01*
X12960000Y-11910000D02*
X12990000Y-11940000D01*
X12990000Y-11910000D02*
X12960000Y-11940000D01*
X12960000Y-12010000D02*
X12990000Y-12040000D01*
X12990000Y-12010000D02*
X12960000Y-12040000D01*
X12960000Y-12110000D02*
X12990000Y-12140000D01*
X12990000Y-12110000D02*
X12960000Y-12140000D01*
X12985000Y-16260000D02*
X13015000Y-16290000D01*
X13015000Y-16260000D02*
X12985000Y-16290000D01*
X12985000Y-17035000D02*
X13015000Y-17065000D01*
X13015000Y-17035000D02*
X12985000Y-17065000D01*
X12989800Y-19149300D02*
X13019800Y-19179300D01*
X13019800Y-19149300D02*
X12989800Y-19179300D01*
X13010000Y-16110000D02*
X13040000Y-16140000D01*
X13040000Y-16110000D02*
X13010000Y-16140000D01*
X13010000Y-16885000D02*
X13040000Y-16915000D01*
X13040000Y-16885000D02*
X13010000Y-16915000D01*
X13040600Y-15910800D02*
X13070600Y-15940800D01*
X13070600Y-15910800D02*
X13040600Y-15940800D01*
X13040600Y-18793700D02*
X13070600Y-18823700D01*
X13070600Y-18793700D02*
X13040600Y-18823700D01*
X13060000Y-11910000D02*
X13090000Y-11940000D01*
X13090000Y-11910000D02*
X13060000Y-11940000D01*
X13060000Y-12010000D02*
X13090000Y-12040000D01*
X13090000Y-12010000D02*
X13060000Y-12040000D01*
X13060000Y-12110000D02*
X13090000Y-12140000D01*
X13090000Y-12110000D02*
X13060000Y-12140000D01*
X13085000Y-22960000D02*
X13115000Y-22990000D01*
X13115000Y-22960000D02*
X13085000Y-22990000D01*
X13085000Y-23110000D02*
X13115000Y-23140000D01*
X13115000Y-23110000D02*
X13085000Y-23140000D01*
X13104100Y-21575000D02*
X13134100Y-21605000D01*
X13134100Y-21575000D02*
X13104100Y-21605000D01*
X13110000Y-19960000D02*
X13140000Y-19990000D01*
X13140000Y-19960000D02*
X13110000Y-19990000D01*
X13142200Y-18349200D02*
X13172200Y-18379200D01*
X13172200Y-18349200D02*
X13142200Y-18379200D01*
X13160000Y-11910000D02*
X13190000Y-11940000D01*
X13190000Y-11910000D02*
X13160000Y-11940000D01*
X13160000Y-12010000D02*
X13190000Y-12040000D01*
X13190000Y-12010000D02*
X13160000Y-12040000D01*
X13160000Y-12110000D02*
X13190000Y-12140000D01*
X13190000Y-12110000D02*
X13160000Y-12140000D01*
X13198750Y-11485000D02*
X13228750Y-11515000D01*
X13228750Y-11485000D02*
X13198750Y-11515000D01*
X13235000Y-15310000D02*
X13265000Y-15340000D01*
X13265000Y-15310000D02*
X13235000Y-15340000D01*
X13235000Y-15560000D02*
X13265000Y-15590000D01*
X13265000Y-15560000D02*
X13235000Y-15590000D01*
X13235000Y-23135000D02*
X13265000Y-23165000D01*
X13265000Y-23135000D02*
X13235000Y-23165000D01*
X13260000Y-11910000D02*
X13290000Y-11940000D01*
X13290000Y-11910000D02*
X13260000Y-11940000D01*
X13260000Y-12010000D02*
X13290000Y-12040000D01*
X13290000Y-12010000D02*
X13260000Y-12040000D01*
X13260000Y-12110000D02*
X13290000Y-12140000D01*
X13290000Y-12110000D02*
X13260000Y-12140000D01*
X13271550Y-19710450D02*
X13301550Y-19740450D01*
X13301550Y-19710450D02*
X13271550Y-19740450D01*
X13285000Y-17360000D02*
X13315000Y-17390000D01*
X13315000Y-17360000D02*
X13285000Y-17390000D01*
X13310000Y-22660000D02*
X13340000Y-22690000D01*
X13340000Y-22660000D02*
X13310000Y-22690000D01*
X13358100Y-20901900D02*
X13388100Y-20931900D01*
X13388100Y-20901900D02*
X13358100Y-20931900D01*
X13360000Y-11910000D02*
X13390000Y-11940000D01*
X13390000Y-11910000D02*
X13360000Y-11940000D01*
X13360000Y-12010000D02*
X13390000Y-12040000D01*
X13390000Y-12010000D02*
X13360000Y-12040000D01*
X13360000Y-12110000D02*
X13390000Y-12140000D01*
X13390000Y-12110000D02*
X13360000Y-12140000D01*
X13360000Y-23160000D02*
X13390000Y-23190000D01*
X13390000Y-23160000D02*
X13360000Y-23190000D01*
X13360000Y-23560000D02*
X13390000Y-23590000D01*
X13390000Y-23560000D02*
X13360000Y-23590000D01*
X13360000Y-23810000D02*
X13390000Y-23840000D01*
X13390000Y-23810000D02*
X13360000Y-23840000D01*
X13396200Y-22819600D02*
X13426200Y-22849600D01*
X13426200Y-22819600D02*
X13396200Y-22849600D01*
X13410000Y-16310000D02*
X13440000Y-16340000D01*
X13440000Y-16310000D02*
X13410000Y-16340000D01*
X13410000Y-16760000D02*
X13440000Y-16790000D01*
X13440000Y-16760000D02*
X13410000Y-16790000D01*
X13410000Y-23085000D02*
X13440000Y-23115000D01*
X13440000Y-23085000D02*
X13410000Y-23115000D01*
X13435000Y-15560000D02*
X13465000Y-15590000D01*
X13465000Y-15560000D02*
X13435000Y-15590000D01*
X13435000Y-22185000D02*
X13465000Y-22215000D01*
X13465000Y-22185000D02*
X13435000Y-22215000D01*
X13459700Y-19035000D02*
X13489700Y-19065000D01*
X13489700Y-19035000D02*
X13459700Y-19065000D01*
X13485000Y-16835000D02*
X13515000Y-16865000D01*
X13515000Y-16835000D02*
X13485000Y-16865000D01*
X13485000Y-17460000D02*
X13515000Y-17490000D01*
X13515000Y-17460000D02*
X13485000Y-17490000D01*
X13535000Y-18060000D02*
X13565000Y-18090000D01*
X13565000Y-18060000D02*
X13535000Y-18090000D01*
X13535000Y-18235000D02*
X13565000Y-18265000D01*
X13565000Y-18235000D02*
X13535000Y-18265000D01*
X13548600Y-19771600D02*
X13578600Y-19801600D01*
X13578600Y-19771600D02*
X13548600Y-19801600D01*
X13560000Y-15910000D02*
X13590000Y-15940000D01*
X13590000Y-15910000D02*
X13560000Y-15940000D01*
X13610000Y-23560000D02*
X13640000Y-23590000D01*
X13640000Y-23560000D02*
X13610000Y-23590000D01*
X13610000Y-23810000D02*
X13640000Y-23840000D01*
X13640000Y-23810000D02*
X13610000Y-23840000D01*
X13635000Y-16825000D02*
X13665000Y-16855000D01*
X13665000Y-16825000D02*
X13635000Y-16855000D01*
X13635000Y-23460000D02*
X13665000Y-23490000D01*
X13665000Y-23460000D02*
X13635000Y-23490000D01*
X13645000Y-16695000D02*
X13675000Y-16725000D01*
X13675000Y-16695000D02*
X13645000Y-16725000D01*
X13648750Y-11485000D02*
X13678750Y-11515000D01*
X13678750Y-11485000D02*
X13648750Y-11515000D01*
X13660000Y-20060000D02*
X13690000Y-20090000D01*
X13690000Y-20060000D02*
X13660000Y-20090000D01*
X13664159Y-17432550D02*
X13694159Y-17462550D01*
X13694159Y-17432550D02*
X13664159Y-17462550D01*
X13685000Y-18695000D02*
X13715000Y-18725000D01*
X13715000Y-18695000D02*
X13685000Y-18725000D01*
X13685000Y-22475974D02*
X13715000Y-22505974D01*
X13715000Y-22475974D02*
X13685000Y-22505974D01*
X13693291Y-22201709D02*
X13723291Y-22231709D01*
X13723291Y-22201709D02*
X13693291Y-22231709D01*
X13710000Y-11660000D02*
X13740000Y-11690000D01*
X13740000Y-11660000D02*
X13710000Y-11690000D01*
X13710000Y-15910000D02*
X13740000Y-15940000D01*
X13740000Y-15910000D02*
X13710000Y-15940000D01*
X13713700Y-16329900D02*
X13743700Y-16359900D01*
X13743700Y-16329900D02*
X13713700Y-16359900D01*
X13726400Y-22006800D02*
X13756400Y-22036800D01*
X13756400Y-22006800D02*
X13726400Y-22036800D01*
X13735000Y-15460000D02*
X13765000Y-15490000D01*
X13765000Y-15460000D02*
X13735000Y-15490000D01*
X13735000Y-23060000D02*
X13765000Y-23090000D01*
X13765000Y-23060000D02*
X13735000Y-23090000D01*
X13739100Y-22845000D02*
X13769100Y-22875000D01*
X13769100Y-22845000D02*
X13739100Y-22875000D01*
X13760000Y-22335000D02*
X13790000Y-22365000D01*
X13790000Y-22335000D02*
X13760000Y-22365000D01*
X13785000Y-16985000D02*
X13815000Y-17015000D01*
X13815000Y-16985000D02*
X13785000Y-17015000D01*
X13785000Y-19735000D02*
X13815000Y-19765000D01*
X13815000Y-19735000D02*
X13785000Y-19765000D01*
X13785000Y-22735000D02*
X13815000Y-22765000D01*
X13815000Y-22735000D02*
X13785000Y-22765000D01*
X13810000Y-11910000D02*
X13840000Y-11940000D01*
X13840000Y-11910000D02*
X13810000Y-11940000D01*
X13810000Y-17385000D02*
X13840000Y-17415000D01*
X13840000Y-17385000D02*
X13810000Y-17415000D01*
X13810423Y-22422650D02*
X13840423Y-22452650D01*
X13840423Y-22422650D02*
X13810423Y-22452650D01*
X13835000Y-17675000D02*
X13865000Y-17705000D01*
X13865000Y-17675000D02*
X13835000Y-17705000D01*
X13835000Y-18085000D02*
X13865000Y-18115000D01*
X13865000Y-18085000D02*
X13835000Y-18115000D01*
X13835000Y-18235000D02*
X13865000Y-18265000D01*
X13865000Y-18235000D02*
X13835000Y-18265000D01*
X13835000Y-18695000D02*
X13865000Y-18725000D01*
X13865000Y-18695000D02*
X13835000Y-18725000D01*
X13835000Y-20045000D02*
X13865000Y-20075000D01*
X13865000Y-20045000D02*
X13835000Y-20075000D01*
X13835947Y-17105050D02*
X13865947Y-17135050D01*
X13865947Y-17105050D02*
X13835947Y-17135050D01*
X13840700Y-21676600D02*
X13870700Y-21706600D01*
X13870700Y-21676600D02*
X13840700Y-21706600D01*
X13851203Y-17514497D02*
X13881203Y-17544497D01*
X13881203Y-17514497D02*
X13851203Y-17544497D01*
X13853400Y-15892911D02*
X13883400Y-15922911D01*
X13883400Y-15892911D02*
X13853400Y-15922911D01*
X13874148Y-16682471D02*
X13904148Y-16712471D01*
X13904148Y-16682471D02*
X13874148Y-16712471D01*
X13885000Y-16935000D02*
X13915000Y-16965000D01*
X13915000Y-16935000D02*
X13885000Y-16965000D01*
X13885000Y-23560000D02*
X13915000Y-23590000D01*
X13915000Y-23560000D02*
X13885000Y-23590000D01*
X13885000Y-23810000D02*
X13915000Y-23840000D01*
X13915000Y-23810000D02*
X13885000Y-23840000D01*
X13904200Y-22872550D02*
X13934200Y-22902550D01*
X13934200Y-22872550D02*
X13904200Y-22902550D01*
X13906000Y-18921000D02*
X13936000Y-18951000D01*
X13936000Y-18921000D02*
X13906000Y-18951000D01*
X13910000Y-15460000D02*
X13940000Y-15490000D01*
X13940000Y-15460000D02*
X13910000Y-15490000D01*
X13910000Y-23135000D02*
X13940000Y-23165000D01*
X13940000Y-23135000D02*
X13910000Y-23165000D01*
X13916900Y-21613100D02*
X13946900Y-21643100D01*
X13946900Y-21613100D02*
X13916900Y-21643100D01*
X13940547Y-20044541D02*
X13970547Y-20074541D01*
X13970547Y-20044541D02*
X13940547Y-20074541D01*
X13980400Y-20889200D02*
X14010400Y-20919200D01*
X14010400Y-20889200D02*
X13980400Y-20919200D01*
X13985000Y-18695000D02*
X14015000Y-18725000D01*
X14015000Y-18695000D02*
X13985000Y-18725000D01*
X13993100Y-23175200D02*
X14023100Y-23205200D01*
X14023100Y-23175200D02*
X13993100Y-23205200D01*
X14007596Y-22872550D02*
X14037596Y-22902550D01*
X14037596Y-22872550D02*
X14007596Y-22902550D01*
X14010000Y-12335000D02*
X14040000Y-12365000D01*
X14040000Y-12335000D02*
X14010000Y-12365000D01*
X14010000Y-19810000D02*
X14040000Y-19840000D01*
X14040000Y-19810000D02*
X14010000Y-19840000D01*
X14025000Y-17025000D02*
X14055000Y-17055000D01*
X14055000Y-17025000D02*
X14025000Y-17055000D01*
X14025050Y-20053249D02*
X14055050Y-20083249D01*
X14055050Y-20053249D02*
X14025050Y-20083249D01*
X14035000Y-19610000D02*
X14065000Y-19640000D01*
X14065000Y-19610000D02*
X14035000Y-19640000D01*
X14035000Y-23085000D02*
X14065000Y-23115000D01*
X14065000Y-23085000D02*
X14035000Y-23115000D01*
X14082000Y-16850600D02*
X14112000Y-16880600D01*
X14112000Y-16850600D02*
X14082000Y-16880600D01*
X14085000Y-18085000D02*
X14115000Y-18115000D01*
X14115000Y-18085000D02*
X14085000Y-18115000D01*
X14085000Y-18285000D02*
X14115000Y-18315000D01*
X14115000Y-18285000D02*
X14085000Y-18315000D01*
X14110000Y-18560000D02*
X14140000Y-18590000D01*
X14140000Y-18560000D02*
X14110000Y-18590000D01*
X14123093Y-17838207D02*
X14153093Y-17868207D01*
X14153093Y-17838207D02*
X14123093Y-17868207D01*
X14135000Y-18695000D02*
X14165000Y-18725000D01*
X14165000Y-18695000D02*
X14135000Y-18725000D01*
X14146478Y-22895975D02*
X14176478Y-22925975D01*
X14176478Y-22895975D02*
X14146478Y-22925975D01*
X14160000Y-15960000D02*
X14190000Y-15990000D01*
X14190000Y-15960000D02*
X14160000Y-15990000D01*
X14160000Y-22210000D02*
X14190000Y-22240000D01*
X14190000Y-22210000D02*
X14160000Y-22240000D01*
X14169943Y-17744943D02*
X14199943Y-17774943D01*
X14199943Y-17744943D02*
X14169943Y-17774943D01*
X14209000Y-21765500D02*
X14239000Y-21795500D01*
X14239000Y-21765500D02*
X14209000Y-21795500D01*
X14228197Y-17462550D02*
X14258197Y-17492550D01*
X14258197Y-17462550D02*
X14228197Y-17492550D01*
X14235000Y-20185000D02*
X14265000Y-20215000D01*
X14265000Y-20185000D02*
X14235000Y-20215000D01*
X14265000Y-17035000D02*
X14295000Y-17065000D01*
X14295000Y-17035000D02*
X14265000Y-17065000D01*
X14285000Y-12085000D02*
X14315000Y-12115000D01*
X14315000Y-12085000D02*
X14285000Y-12115000D01*
X14285000Y-18695000D02*
X14315000Y-18725000D01*
X14315000Y-18695000D02*
X14285000Y-18725000D01*
X14285000Y-19735000D02*
X14315000Y-19765000D01*
X14315000Y-19735000D02*
X14285000Y-19765000D01*
X14285000Y-19822550D02*
X14315000Y-19852550D01*
X14315000Y-19822550D02*
X14285000Y-19852550D01*
X14285200Y-19403300D02*
X14315200Y-19433300D01*
X14315200Y-19403300D02*
X14285200Y-19433300D01*
X14303375Y-19619200D02*
X14333375Y-19649200D01*
X14333375Y-19619200D02*
X14303375Y-19649200D01*
X14310600Y-10322800D02*
X14340600Y-10352800D01*
X14340600Y-10322800D02*
X14310600Y-10352800D01*
X14335000Y-22210000D02*
X14365000Y-22240000D01*
X14365000Y-22210000D02*
X14335000Y-22240000D01*
X14360000Y-15885000D02*
X14390000Y-15915000D01*
X14390000Y-15885000D02*
X14360000Y-15915000D01*
X14361400Y-19009600D02*
X14391400Y-19039600D01*
X14391400Y-19009600D02*
X14361400Y-19039600D01*
X14385000Y-11585000D02*
X14415000Y-11615000D01*
X14415000Y-11585000D02*
X14385000Y-11615000D01*
X14386800Y-21765500D02*
X14416800Y-21795500D01*
X14416800Y-21765500D02*
X14386800Y-21795500D01*
X14410000Y-23260000D02*
X14440000Y-23290000D01*
X14440000Y-23260000D02*
X14410000Y-23290000D01*
X14410000Y-23410000D02*
X14440000Y-23440000D01*
X14440000Y-23410000D02*
X14410000Y-23440000D01*
X14410000Y-23735000D02*
X14440000Y-23765000D01*
X14440000Y-23735000D02*
X14410000Y-23765000D01*
X14421143Y-17463957D02*
X14451143Y-17493957D01*
X14451143Y-17463957D02*
X14421143Y-17493957D01*
X14424900Y-22616400D02*
X14454900Y-22646400D01*
X14454900Y-22616400D02*
X14424900Y-22646400D01*
X14435000Y-15510000D02*
X14465000Y-15540000D01*
X14465000Y-15510000D02*
X14435000Y-15540000D01*
X14435000Y-22885000D02*
X14465000Y-22915000D01*
X14465000Y-22885000D02*
X14435000Y-22915000D01*
X14450300Y-17930100D02*
X14480300Y-17960100D01*
X14480300Y-17930100D02*
X14450300Y-17960100D01*
X14450300Y-18069800D02*
X14480300Y-18099800D01*
X14480300Y-18069800D02*
X14450300Y-18099800D01*
X14450300Y-18247600D02*
X14480300Y-18277600D01*
X14480300Y-18247600D02*
X14450300Y-18277600D01*
X14450300Y-18425400D02*
X14480300Y-18455400D01*
X14480300Y-18425400D02*
X14450300Y-18455400D01*
X14486845Y-22535000D02*
X14516845Y-22565000D01*
X14516845Y-22535000D02*
X14486845Y-22565000D01*
X14501100Y-20330400D02*
X14531100Y-20360400D01*
X14531100Y-20330400D02*
X14501100Y-20360400D01*
X14521208Y-22648792D02*
X14551208Y-22678792D01*
X14551208Y-22648792D02*
X14521208Y-22678792D01*
X14539200Y-16444200D02*
X14569200Y-16474200D01*
X14569200Y-16444200D02*
X14539200Y-16474200D01*
X14544147Y-17545853D02*
X14574147Y-17575853D01*
X14574147Y-17545853D02*
X14544147Y-17575853D01*
X14545000Y-16075000D02*
X14575000Y-16105000D01*
X14575000Y-16075000D02*
X14545000Y-16105000D01*
X14551250Y-16905000D02*
X14581250Y-16935000D01*
X14581250Y-16905000D02*
X14551250Y-16935000D01*
X14565000Y-16715000D02*
X14595000Y-16745000D01*
X14595000Y-16715000D02*
X14565000Y-16745000D01*
X14577300Y-21765500D02*
X14607300Y-21795500D01*
X14607300Y-21765500D02*
X14577300Y-21795500D01*
X14610000Y-11885000D02*
X14640000Y-11915000D01*
X14640000Y-11885000D02*
X14610000Y-11915000D01*
X14610000Y-11985000D02*
X14640000Y-12015000D01*
X14640000Y-11985000D02*
X14610000Y-12015000D01*
X14610000Y-12085000D02*
X14640000Y-12115000D01*
X14640000Y-12085000D02*
X14610000Y-12115000D01*
X14610000Y-17435000D02*
X14640000Y-17465000D01*
X14640000Y-17435000D02*
X14610000Y-17465000D01*
X14640800Y-20025600D02*
X14670800Y-20055600D01*
X14670800Y-20025600D02*
X14640800Y-20055600D01*
X14655000Y-17555000D02*
X14685000Y-17585000D01*
X14685000Y-17555000D02*
X14655000Y-17585000D01*
X14666200Y-17295100D02*
X14696200Y-17325100D01*
X14696200Y-17295100D02*
X14666200Y-17325100D01*
X14678900Y-21181300D02*
X14708900Y-21211300D01*
X14708900Y-21181300D02*
X14678900Y-21211300D01*
X14685000Y-18175000D02*
X14715000Y-18205000D01*
X14715000Y-18175000D02*
X14685000Y-18205000D01*
X14685000Y-18335000D02*
X14715000Y-18365000D01*
X14715000Y-18335000D02*
X14685000Y-18365000D01*
X14685000Y-18525000D02*
X14715000Y-18555000D01*
X14715000Y-18525000D02*
X14685000Y-18555000D01*
X14705000Y-18015000D02*
X14735000Y-18045000D01*
X14735000Y-18015000D02*
X14705000Y-18045000D01*
X14710000Y-11885000D02*
X14740000Y-11915000D01*
X14740000Y-11885000D02*
X14710000Y-11915000D01*
X14710000Y-11985000D02*
X14740000Y-12015000D01*
X14740000Y-11985000D02*
X14710000Y-12015000D01*
X14710000Y-12085000D02*
X14740000Y-12115000D01*
X14740000Y-12085000D02*
X14710000Y-12115000D01*
X14717000Y-17460200D02*
X14747000Y-17490200D01*
X14747000Y-17460200D02*
X14717000Y-17490200D01*
X14729375Y-19515000D02*
X14759375Y-19545000D01*
X14759375Y-19515000D02*
X14729375Y-19545000D01*
X14735000Y-17360000D02*
X14765000Y-17390000D01*
X14765000Y-17360000D02*
X14735000Y-17390000D01*
X14742400Y-18742900D02*
X14772400Y-18772900D01*
X14772400Y-18742900D02*
X14742400Y-18772900D01*
X14785000Y-19860000D02*
X14815000Y-19890000D01*
X14815000Y-19860000D02*
X14785000Y-19890000D01*
X14810000Y-11885000D02*
X14840000Y-11915000D01*
X14840000Y-11885000D02*
X14810000Y-11915000D01*
X14810000Y-11985000D02*
X14840000Y-12015000D01*
X14840000Y-11985000D02*
X14810000Y-12015000D01*
X14810000Y-12085000D02*
X14840000Y-12115000D01*
X14840000Y-12085000D02*
X14810000Y-12115000D01*
X14835000Y-11485000D02*
X14865000Y-11515000D01*
X14865000Y-11485000D02*
X14835000Y-11515000D01*
X14860000Y-15660000D02*
X14890000Y-15690000D01*
X14890000Y-15660000D02*
X14860000Y-15690000D01*
X14894800Y-20012900D02*
X14924800Y-20042900D01*
X14924800Y-20012900D02*
X14894800Y-20042900D01*
X14905000Y-17675000D02*
X14935000Y-17705000D01*
X14935000Y-17675000D02*
X14905000Y-17705000D01*
X14910000Y-11885000D02*
X14940000Y-11915000D01*
X14940000Y-11885000D02*
X14910000Y-11915000D01*
X14910000Y-11985000D02*
X14940000Y-12015000D01*
X14940000Y-11985000D02*
X14910000Y-12015000D01*
X14910000Y-12085000D02*
X14940000Y-12115000D01*
X14940000Y-12085000D02*
X14910000Y-12115000D01*
X14945600Y-15834600D02*
X14975600Y-15864600D01*
X14975600Y-15834600D02*
X14945600Y-15864600D01*
X14958300Y-15948900D02*
X14988300Y-15978900D01*
X14988300Y-15948900D02*
X14958300Y-15978900D01*
X15010000Y-11885000D02*
X15040000Y-11915000D01*
X15040000Y-11885000D02*
X15010000Y-11915000D01*
X15010000Y-11985000D02*
X15040000Y-12015000D01*
X15040000Y-11985000D02*
X15010000Y-12015000D01*
X15010000Y-12085000D02*
X15040000Y-12115000D01*
X15040000Y-12085000D02*
X15010000Y-12115000D01*
X15010000Y-18235000D02*
X15040000Y-18265000D01*
X15040000Y-18235000D02*
X15010000Y-18265000D01*
X15010000Y-19610000D02*
X15040000Y-19640000D01*
X15040000Y-19610000D02*
X15010000Y-19640000D01*
X15035000Y-16007450D02*
X15065000Y-16037450D01*
X15065000Y-16007450D02*
X15035000Y-16037450D01*
X15035000Y-20010000D02*
X15065000Y-20040000D01*
X15065000Y-20010000D02*
X15035000Y-20040000D01*
X15110000Y-11885000D02*
X15140000Y-11915000D01*
X15140000Y-11885000D02*
X15110000Y-11915000D01*
X15110000Y-11985000D02*
X15140000Y-12015000D01*
X15140000Y-11985000D02*
X15110000Y-12015000D01*
X15110000Y-12085000D02*
X15140000Y-12115000D01*
X15140000Y-12085000D02*
X15110000Y-12115000D01*
X15110000Y-22635000D02*
X15140000Y-22665000D01*
X15140000Y-22635000D02*
X15110000Y-22665000D01*
X15135000Y-15810000D02*
X15165000Y-15840000D01*
X15165000Y-15810000D02*
X15135000Y-15840000D01*
X15174200Y-11630900D02*
X15204200Y-11660900D01*
X15204200Y-11630900D02*
X15174200Y-11660900D01*
X15210000Y-11885000D02*
X15240000Y-11915000D01*
X15240000Y-11885000D02*
X15210000Y-11915000D01*
X15210000Y-11985000D02*
X15240000Y-12015000D01*
X15240000Y-11985000D02*
X15210000Y-12015000D01*
X15210000Y-12085000D02*
X15240000Y-12115000D01*
X15240000Y-12085000D02*
X15210000Y-12115000D01*
X15210000Y-19185000D02*
X15240000Y-19215000D01*
X15240000Y-19185000D02*
X15210000Y-19215000D01*
X15210000Y-19310000D02*
X15240000Y-19340000D01*
X15240000Y-19310000D02*
X15210000Y-19340000D01*
X15260000Y-10810000D02*
X15290000Y-10840000D01*
X15290000Y-10810000D02*
X15260000Y-10840000D01*
X15275800Y-19784300D02*
X15305800Y-19814300D01*
X15305800Y-19784300D02*
X15275800Y-19814300D01*
X15285000Y-19085000D02*
X15315000Y-19115000D01*
X15315000Y-19085000D02*
X15285000Y-19115000D01*
X15310000Y-11885000D02*
X15340000Y-11915000D01*
X15340000Y-11885000D02*
X15310000Y-11915000D01*
X15310000Y-11985000D02*
X15340000Y-12015000D01*
X15340000Y-11985000D02*
X15310000Y-12015000D01*
X15310000Y-12085000D02*
X15340000Y-12115000D01*
X15340000Y-12085000D02*
X15310000Y-12115000D01*
X15313900Y-17295100D02*
X15343900Y-17325100D01*
X15343900Y-17295100D02*
X15313900Y-17325100D01*
X15313900Y-17828500D02*
X15343900Y-17858500D01*
X15343900Y-17828500D02*
X15313900Y-17858500D01*
X15335000Y-15635000D02*
X15365000Y-15665000D01*
X15365000Y-15635000D02*
X15335000Y-15665000D01*
X15435000Y-15547450D02*
X15465000Y-15577450D01*
X15465000Y-15547450D02*
X15435000Y-15577450D01*
X15435000Y-16035000D02*
X15465000Y-16065000D01*
X15465000Y-16035000D02*
X15435000Y-16065000D01*
X15455000Y-19073150D02*
X15485000Y-19103150D01*
X15485000Y-19073150D02*
X15455000Y-19103150D01*
X15478750Y-19395000D02*
X15508750Y-19425000D01*
X15508750Y-19395000D02*
X15478750Y-19425000D01*
X15491700Y-12164300D02*
X15521700Y-12194300D01*
X15521700Y-12164300D02*
X15491700Y-12194300D01*
X15542500Y-11808700D02*
X15572500Y-11838700D01*
X15572500Y-11808700D02*
X15542500Y-11838700D01*
X15555200Y-18819100D02*
X15585200Y-18849100D01*
X15585200Y-18819100D02*
X15555200Y-18849100D01*
X15595000Y-19085000D02*
X15625000Y-19115000D01*
X15625000Y-19085000D02*
X15595000Y-19115000D01*
X15605000Y-19512550D02*
X15635000Y-19542550D01*
X15635000Y-19512550D02*
X15605000Y-19542550D01*
X15610000Y-11160000D02*
X15640000Y-11190000D01*
X15640000Y-11160000D02*
X15610000Y-11190000D01*
X15631400Y-12545300D02*
X15661400Y-12575300D01*
X15661400Y-12545300D02*
X15631400Y-12575300D01*
X15631400Y-20774900D02*
X15661400Y-20804900D01*
X15661400Y-20774900D02*
X15631400Y-20804900D01*
X15635000Y-15685000D02*
X15665000Y-15715000D01*
X15665000Y-15685000D02*
X15635000Y-15715000D01*
X15644100Y-20645000D02*
X15674100Y-20675000D01*
X15674100Y-20645000D02*
X15644100Y-20675000D01*
X15656800Y-18912550D02*
X15686800Y-18942550D01*
X15686800Y-18912550D02*
X15656800Y-18942550D01*
X15660000Y-14310000D02*
X15690000Y-14340000D01*
X15690000Y-14310000D02*
X15660000Y-14340000D01*
X15660000Y-19637450D02*
X15690000Y-19667450D01*
X15690000Y-19637450D02*
X15660000Y-19667450D01*
X15682200Y-20000200D02*
X15712200Y-20030200D01*
X15712200Y-20000200D02*
X15682200Y-20030200D01*
X15702550Y-19085000D02*
X15732550Y-19115000D01*
X15732550Y-19085000D02*
X15702550Y-19115000D01*
X15735000Y-13585000D02*
X15765000Y-13615000D01*
X15765000Y-13585000D02*
X15735000Y-13615000D01*
X15735000Y-14610000D02*
X15765000Y-14640000D01*
X15765000Y-14610000D02*
X15735000Y-14640000D01*
X15745700Y-12926300D02*
X15775700Y-12956300D01*
X15775700Y-12926300D02*
X15745700Y-12956300D01*
X15760000Y-14485000D02*
X15790000Y-14515000D01*
X15790000Y-14485000D02*
X15760000Y-14515000D01*
X15771100Y-21892500D02*
X15801100Y-21922500D01*
X15801100Y-21892500D02*
X15771100Y-21922500D01*
X15821900Y-21219400D02*
X15851900Y-21249400D01*
X15851900Y-21219400D02*
X15821900Y-21249400D01*
X15835000Y-18135000D02*
X15865000Y-18165000D01*
X15865000Y-18135000D02*
X15835000Y-18165000D01*
X15885000Y-15685000D02*
X15915000Y-15715000D01*
X15915000Y-15685000D02*
X15885000Y-15715000D01*
X15925000Y-19355000D02*
X15955000Y-19385000D01*
X15955000Y-19355000D02*
X15925000Y-19385000D01*
X15935000Y-11810000D02*
X15965000Y-11840000D01*
X15965000Y-11810000D02*
X15935000Y-11840000D01*
X15935000Y-19065000D02*
X15965000Y-19095000D01*
X15965000Y-19065000D02*
X15935000Y-19095000D01*
X15960000Y-14110000D02*
X15990000Y-14140000D01*
X15990000Y-14110000D02*
X15960000Y-14140000D01*
X15978341Y-15203341D02*
X16008341Y-15233341D01*
X16008341Y-15203341D02*
X15978341Y-15233341D01*
X15985000Y-13285000D02*
X16015000Y-13315000D01*
X16015000Y-13285000D02*
X15985000Y-13315000D01*
X15985000Y-13860000D02*
X16015000Y-13890000D01*
X16015000Y-13860000D02*
X15985000Y-13890000D01*
X15985000Y-14435000D02*
X16015000Y-14465000D01*
X16015000Y-14435000D02*
X15985000Y-14465000D01*
X15985000Y-19195000D02*
X16015000Y-19225000D01*
X16015000Y-19195000D02*
X15985000Y-19225000D01*
X16012400Y-19910000D02*
X16042400Y-19940000D01*
X16042400Y-19910000D02*
X16012400Y-19940000D01*
X16015000Y-19355000D02*
X16045000Y-19385000D01*
X16045000Y-19355000D02*
X16015000Y-19385000D01*
X16025100Y-17765000D02*
X16055100Y-17795000D01*
X16055100Y-17765000D02*
X16025100Y-17795000D01*
X16063200Y-20203400D02*
X16093200Y-20233400D01*
X16093200Y-20203400D02*
X16063200Y-20233400D01*
X16075900Y-18882600D02*
X16105900Y-18912600D01*
X16105900Y-18882600D02*
X16075900Y-18912600D01*
X16085000Y-13285000D02*
X16115000Y-13315000D01*
X16115000Y-13285000D02*
X16085000Y-13315000D01*
X16085000Y-14435000D02*
X16115000Y-14465000D01*
X16115000Y-14435000D02*
X16085000Y-14465000D01*
X16088600Y-12545300D02*
X16118600Y-12575300D01*
X16118600Y-12545300D02*
X16088600Y-12575300D01*
X16101300Y-19149300D02*
X16131300Y-19179300D01*
X16131300Y-19149300D02*
X16101300Y-19179300D01*
X16110000Y-13860000D02*
X16140000Y-13890000D01*
X16140000Y-13860000D02*
X16110000Y-13890000D01*
X16114000Y-19454100D02*
X16144000Y-19484100D01*
X16144000Y-19454100D02*
X16114000Y-19484100D01*
X16139400Y-19885900D02*
X16169400Y-19915900D01*
X16169400Y-19885900D02*
X16139400Y-19915900D01*
X16160000Y-14110000D02*
X16190000Y-14140000D01*
X16190000Y-14110000D02*
X16160000Y-14140000D01*
X16210000Y-14485000D02*
X16240000Y-14515000D01*
X16240000Y-14485000D02*
X16210000Y-14515000D01*
X16245000Y-20755000D02*
X16275000Y-20785000D01*
X16275000Y-20755000D02*
X16245000Y-20785000D01*
X16260000Y-12135000D02*
X16290000Y-12165000D01*
X16290000Y-12135000D02*
X16260000Y-12165000D01*
X16310000Y-16310000D02*
X16340000Y-16340000D01*
X16340000Y-16310000D02*
X16310000Y-16340000D01*
X16355300Y-18539700D02*
X16385300Y-18569700D01*
X16385300Y-18539700D02*
X16355300Y-18569700D01*
X16365000Y-20645000D02*
X16395000Y-20675000D01*
X16395000Y-20645000D02*
X16365000Y-20675000D01*
X16410000Y-14235000D02*
X16440000Y-14265000D01*
X16440000Y-14235000D02*
X16410000Y-14265000D01*
X16410000Y-15910000D02*
X16440000Y-15940000D01*
X16440000Y-15910000D02*
X16410000Y-15940000D01*
X16435000Y-12885000D02*
X16465000Y-12915000D01*
X16465000Y-12885000D02*
X16435000Y-12915000D01*
X16435000Y-12985000D02*
X16465000Y-13015000D01*
X16465000Y-12985000D02*
X16435000Y-13015000D01*
X16435000Y-13085000D02*
X16465000Y-13115000D01*
X16465000Y-13085000D02*
X16435000Y-13115000D01*
X16495000Y-17244300D02*
X16525000Y-17274300D01*
X16525000Y-17244300D02*
X16495000Y-17274300D01*
X16507700Y-22883100D02*
X16537700Y-22913100D01*
X16537700Y-22883100D02*
X16507700Y-22913100D01*
X16510000Y-15585000D02*
X16540000Y-15615000D01*
X16540000Y-15585000D02*
X16510000Y-15615000D01*
X16535000Y-12885000D02*
X16565000Y-12915000D01*
X16565000Y-12885000D02*
X16535000Y-12915000D01*
X16535000Y-12985000D02*
X16565000Y-13015000D01*
X16565000Y-12985000D02*
X16535000Y-13015000D01*
X16535000Y-13085000D02*
X16565000Y-13115000D01*
X16565000Y-13085000D02*
X16535000Y-13115000D01*
X16585000Y-14735000D02*
X16615000Y-14765000D01*
X16615000Y-14735000D02*
X16585000Y-14765000D01*
X16585000Y-15710000D02*
X16615000Y-15740000D01*
X16615000Y-15710000D02*
X16585000Y-15740000D01*
X16608000Y-15583000D02*
X16638000Y-15613000D01*
X16638000Y-15583000D02*
X16608000Y-15613000D01*
X16635000Y-12885000D02*
X16665000Y-12915000D01*
X16665000Y-12885000D02*
X16635000Y-12915000D01*
X16635000Y-12985000D02*
X16665000Y-13015000D01*
X16665000Y-12985000D02*
X16635000Y-13015000D01*
X16635000Y-13085000D02*
X16665000Y-13115000D01*
X16665000Y-13085000D02*
X16635000Y-13115000D01*
X16685000Y-14610000D02*
X16715000Y-14640000D01*
X16715000Y-14610000D02*
X16685000Y-14640000D01*
X16685000Y-15810000D02*
X16715000Y-15840000D01*
X16715000Y-15810000D02*
X16685000Y-15840000D01*
X16685500Y-16164800D02*
X16715500Y-16194800D01*
X16715500Y-16164800D02*
X16685500Y-16194800D01*
X16685500Y-22159200D02*
X16715500Y-22189200D01*
X16715500Y-22159200D02*
X16685500Y-22189200D01*
X16698200Y-18387300D02*
X16728200Y-18417300D01*
X16728200Y-18387300D02*
X16698200Y-18417300D01*
X16710900Y-19047700D02*
X16740900Y-19077700D01*
X16740900Y-19047700D02*
X16710900Y-19077700D01*
X16735000Y-12885000D02*
X16765000Y-12915000D01*
X16765000Y-12885000D02*
X16735000Y-12915000D01*
X16735000Y-12985000D02*
X16765000Y-13015000D01*
X16765000Y-12985000D02*
X16735000Y-13015000D01*
X16735000Y-13085000D02*
X16765000Y-13115000D01*
X16765000Y-13085000D02*
X16735000Y-13115000D01*
X16760000Y-14710000D02*
X16790000Y-14740000D01*
X16790000Y-14710000D02*
X16760000Y-14740000D01*
X16835000Y-12885000D02*
X16865000Y-12915000D01*
X16865000Y-12885000D02*
X16835000Y-12915000D01*
X16835000Y-12985000D02*
X16865000Y-13015000D01*
X16865000Y-12985000D02*
X16835000Y-13015000D01*
X16835000Y-13085000D02*
X16865000Y-13115000D01*
X16865000Y-13085000D02*
X16835000Y-13115000D01*
X16860000Y-15585000D02*
X16890000Y-15615000D01*
X16890000Y-15585000D02*
X16860000Y-15615000D01*
X16860000Y-17085000D02*
X16890000Y-17115000D01*
X16890000Y-17085000D02*
X16860000Y-17115000D01*
X16860000Y-17185000D02*
X16890000Y-17215000D01*
X16890000Y-17185000D02*
X16860000Y-17215000D01*
X16860000Y-17285000D02*
X16890000Y-17315000D01*
X16890000Y-17285000D02*
X16860000Y-17315000D01*
X16935000Y-12335000D02*
X16965000Y-12365000D01*
X16965000Y-12335000D02*
X16935000Y-12365000D01*
X16935000Y-12885000D02*
X16965000Y-12915000D01*
X16965000Y-12885000D02*
X16935000Y-12915000D01*
X16935000Y-12985000D02*
X16965000Y-13015000D01*
X16965000Y-12985000D02*
X16935000Y-13015000D01*
X16935000Y-13085000D02*
X16965000Y-13115000D01*
X16965000Y-13085000D02*
X16935000Y-13115000D01*
X16960000Y-17085000D02*
X16990000Y-17115000D01*
X16990000Y-17085000D02*
X16960000Y-17115000D01*
X16960000Y-17185000D02*
X16990000Y-17215000D01*
X16990000Y-17185000D02*
X16960000Y-17215000D01*
X16960000Y-17285000D02*
X16990000Y-17315000D01*
X16990000Y-17285000D02*
X16960000Y-17315000D01*
X16977600Y-23467300D02*
X17007600Y-23497300D01*
X17007600Y-23467300D02*
X16977600Y-23497300D01*
X17035000Y-12885000D02*
X17065000Y-12915000D01*
X17065000Y-12885000D02*
X17035000Y-12915000D01*
X17035000Y-12985000D02*
X17065000Y-13015000D01*
X17065000Y-12985000D02*
X17035000Y-13015000D01*
X17035000Y-13085000D02*
X17065000Y-13115000D01*
X17065000Y-13085000D02*
X17035000Y-13115000D01*
X17035000Y-19010000D02*
X17065000Y-19040000D01*
X17065000Y-19010000D02*
X17035000Y-19040000D01*
X17035000Y-19110000D02*
X17065000Y-19140000D01*
X17065000Y-19110000D02*
X17035000Y-19140000D01*
X17035000Y-19210000D02*
X17065000Y-19240000D01*
X17065000Y-19210000D02*
X17035000Y-19240000D01*
X17035000Y-19885000D02*
X17065000Y-19915000D01*
X17065000Y-19885000D02*
X17035000Y-19915000D01*
X17035000Y-19985000D02*
X17065000Y-20015000D01*
X17065000Y-19985000D02*
X17035000Y-20015000D01*
X17035000Y-20085000D02*
X17065000Y-20115000D01*
X17065000Y-20085000D02*
X17035000Y-20115000D01*
X17035000Y-21810000D02*
X17065000Y-21840000D01*
X17065000Y-21810000D02*
X17035000Y-21840000D01*
X17035000Y-21910000D02*
X17065000Y-21940000D01*
X17065000Y-21910000D02*
X17035000Y-21940000D01*
X17035000Y-22010000D02*
X17065000Y-22040000D01*
X17065000Y-22010000D02*
X17035000Y-22040000D01*
X17060000Y-13560000D02*
X17090000Y-13590000D01*
X17090000Y-13560000D02*
X17060000Y-13590000D01*
X17060000Y-17085000D02*
X17090000Y-17115000D01*
X17090000Y-17085000D02*
X17060000Y-17115000D01*
X17060000Y-17185000D02*
X17090000Y-17215000D01*
X17090000Y-17185000D02*
X17060000Y-17215000D01*
X17060000Y-17285000D02*
X17090000Y-17315000D01*
X17090000Y-17285000D02*
X17060000Y-17315000D01*
X17079200Y-21194000D02*
X17109200Y-21224000D01*
X17109200Y-21194000D02*
X17079200Y-21224000D01*
X17110000Y-13435000D02*
X17140000Y-13465000D01*
X17140000Y-13435000D02*
X17110000Y-13465000D01*
X17135000Y-12885000D02*
X17165000Y-12915000D01*
X17165000Y-12885000D02*
X17135000Y-12915000D01*
X17135000Y-12985000D02*
X17165000Y-13015000D01*
X17165000Y-12985000D02*
X17135000Y-13015000D01*
X17135000Y-13085000D02*
X17165000Y-13115000D01*
X17165000Y-13085000D02*
X17135000Y-13115000D01*
X17135000Y-19010000D02*
X17165000Y-19040000D01*
X17165000Y-19010000D02*
X17135000Y-19040000D01*
X17135000Y-19110000D02*
X17165000Y-19140000D01*
X17165000Y-19110000D02*
X17135000Y-19140000D01*
X17135000Y-19210000D02*
X17165000Y-19240000D01*
X17165000Y-19210000D02*
X17135000Y-19240000D01*
X17135000Y-19885000D02*
X17165000Y-19915000D01*
X17165000Y-19885000D02*
X17135000Y-19915000D01*
X17135000Y-19985000D02*
X17165000Y-20015000D01*
X17165000Y-19985000D02*
X17135000Y-20015000D01*
X17135000Y-20085000D02*
X17165000Y-20115000D01*
X17165000Y-20085000D02*
X17135000Y-20115000D01*
X17135000Y-21810000D02*
X17165000Y-21840000D01*
X17165000Y-21810000D02*
X17135000Y-21840000D01*
X17135000Y-21910000D02*
X17165000Y-21940000D01*
X17165000Y-21910000D02*
X17135000Y-21940000D01*
X17135000Y-22010000D02*
X17165000Y-22040000D01*
X17165000Y-22010000D02*
X17135000Y-22040000D01*
X17160000Y-13760000D02*
X17190000Y-13790000D01*
X17190000Y-13760000D02*
X17160000Y-13790000D01*
X17160000Y-13960000D02*
X17190000Y-13990000D01*
X17190000Y-13960000D02*
X17160000Y-13990000D01*
X17160000Y-14160000D02*
X17190000Y-14190000D01*
X17190000Y-14160000D02*
X17160000Y-14190000D01*
X17160000Y-14360000D02*
X17190000Y-14390000D01*
X17190000Y-14360000D02*
X17160000Y-14390000D01*
X17160000Y-17085000D02*
X17190000Y-17115000D01*
X17190000Y-17085000D02*
X17160000Y-17115000D01*
X17160000Y-17185000D02*
X17190000Y-17215000D01*
X17190000Y-17185000D02*
X17160000Y-17215000D01*
X17160000Y-17285000D02*
X17190000Y-17315000D01*
X17190000Y-17285000D02*
X17160000Y-17315000D01*
X17193500Y-17790400D02*
X17223500Y-17820400D01*
X17223500Y-17790400D02*
X17193500Y-17820400D01*
X17203073Y-12121097D02*
X17233073Y-12151097D01*
X17233073Y-12121097D02*
X17203073Y-12151097D01*
X17231600Y-18273000D02*
X17261600Y-18303000D01*
X17261600Y-18273000D02*
X17231600Y-18303000D01*
X17235000Y-19010000D02*
X17265000Y-19040000D01*
X17265000Y-19010000D02*
X17235000Y-19040000D01*
X17235000Y-19110000D02*
X17265000Y-19140000D01*
X17265000Y-19110000D02*
X17235000Y-19140000D01*
X17235000Y-19210000D02*
X17265000Y-19240000D01*
X17265000Y-19210000D02*
X17235000Y-19240000D01*
X17235000Y-19885000D02*
X17265000Y-19915000D01*
X17265000Y-19885000D02*
X17235000Y-19915000D01*
X17235000Y-19985000D02*
X17265000Y-20015000D01*
X17265000Y-19985000D02*
X17235000Y-20015000D01*
X17235000Y-20085000D02*
X17265000Y-20115000D01*
X17265000Y-20085000D02*
X17235000Y-20115000D01*
X17235000Y-21810000D02*
X17265000Y-21840000D01*
X17265000Y-21810000D02*
X17235000Y-21840000D01*
X17235000Y-21910000D02*
X17265000Y-21940000D01*
X17265000Y-21910000D02*
X17235000Y-21940000D01*
X17235000Y-22010000D02*
X17265000Y-22040000D01*
X17265000Y-22010000D02*
X17235000Y-22040000D01*
X17260000Y-14885000D02*
X17290000Y-14915000D01*
X17290000Y-14885000D02*
X17260000Y-14915000D01*
X17260000Y-17085000D02*
X17290000Y-17115000D01*
X17290000Y-17085000D02*
X17260000Y-17115000D01*
X17260000Y-17185000D02*
X17290000Y-17215000D01*
X17290000Y-17185000D02*
X17260000Y-17215000D01*
X17260000Y-17285000D02*
X17290000Y-17315000D01*
X17290000Y-17285000D02*
X17260000Y-17315000D01*
X17335000Y-19010000D02*
X17365000Y-19040000D01*
X17365000Y-19010000D02*
X17335000Y-19040000D01*
X17335000Y-19110000D02*
X17365000Y-19140000D01*
X17365000Y-19110000D02*
X17335000Y-19140000D01*
X17335000Y-19210000D02*
X17365000Y-19240000D01*
X17365000Y-19210000D02*
X17335000Y-19240000D01*
X17335000Y-19885000D02*
X17365000Y-19915000D01*
X17365000Y-19885000D02*
X17335000Y-19915000D01*
X17335000Y-19985000D02*
X17365000Y-20015000D01*
X17365000Y-19985000D02*
X17335000Y-20015000D01*
X17335000Y-20085000D02*
X17365000Y-20115000D01*
X17365000Y-20085000D02*
X17335000Y-20115000D01*
X17335000Y-21810000D02*
X17365000Y-21840000D01*
X17365000Y-21810000D02*
X17335000Y-21840000D01*
X17335000Y-21910000D02*
X17365000Y-21940000D01*
X17365000Y-21910000D02*
X17335000Y-21940000D01*
X17335000Y-22010000D02*
X17365000Y-22040000D01*
X17365000Y-22010000D02*
X17335000Y-22040000D01*
X17360000Y-17085000D02*
X17390000Y-17115000D01*
X17390000Y-17085000D02*
X17360000Y-17115000D01*
X17360000Y-17185000D02*
X17390000Y-17215000D01*
X17390000Y-17185000D02*
X17360000Y-17215000D01*
X17360000Y-17285000D02*
X17390000Y-17315000D01*
X17390000Y-17285000D02*
X17360000Y-17315000D01*
X17428073Y-12296097D02*
X17458073Y-12326097D01*
X17458073Y-12296097D02*
X17428073Y-12326097D01*
X17435000Y-19010000D02*
X17465000Y-19040000D01*
X17465000Y-19010000D02*
X17435000Y-19040000D01*
X17435000Y-19110000D02*
X17465000Y-19140000D01*
X17465000Y-19110000D02*
X17435000Y-19140000D01*
X17435000Y-19210000D02*
X17465000Y-19240000D01*
X17465000Y-19210000D02*
X17435000Y-19240000D01*
X17435000Y-19885000D02*
X17465000Y-19915000D01*
X17465000Y-19885000D02*
X17435000Y-19915000D01*
X17435000Y-19985000D02*
X17465000Y-20015000D01*
X17465000Y-19985000D02*
X17435000Y-20015000D01*
X17435000Y-20085000D02*
X17465000Y-20115000D01*
X17465000Y-20085000D02*
X17435000Y-20115000D01*
X17435000Y-21810000D02*
X17465000Y-21840000D01*
X17465000Y-21810000D02*
X17435000Y-21840000D01*
X17435000Y-21910000D02*
X17465000Y-21940000D01*
X17465000Y-21910000D02*
X17435000Y-21940000D01*
X17435000Y-22010000D02*
X17465000Y-22040000D01*
X17465000Y-22010000D02*
X17435000Y-22040000D01*
X17460000Y-17085000D02*
X17490000Y-17115000D01*
X17490000Y-17085000D02*
X17460000Y-17115000D01*
X17460000Y-17185000D02*
X17490000Y-17215000D01*
X17490000Y-17185000D02*
X17460000Y-17215000D01*
X17460000Y-17285000D02*
X17490000Y-17315000D01*
X17490000Y-17285000D02*
X17460000Y-17315000D01*
X17535000Y-15610000D02*
X17565000Y-15640000D01*
X17565000Y-15610000D02*
X17535000Y-15640000D01*
X17535000Y-19010000D02*
X17565000Y-19040000D01*
X17565000Y-19010000D02*
X17535000Y-19040000D01*
X17535000Y-19110000D02*
X17565000Y-19140000D01*
X17565000Y-19110000D02*
X17535000Y-19140000D01*
X17535000Y-19210000D02*
X17565000Y-19240000D01*
X17565000Y-19210000D02*
X17535000Y-19240000D01*
X17535000Y-19885000D02*
X17565000Y-19915000D01*
X17565000Y-19885000D02*
X17535000Y-19915000D01*
X17535000Y-19985000D02*
X17565000Y-20015000D01*
X17565000Y-19985000D02*
X17535000Y-20015000D01*
X17535000Y-20085000D02*
X17565000Y-20115000D01*
X17565000Y-20085000D02*
X17535000Y-20115000D01*
X17535000Y-21810000D02*
X17565000Y-21840000D01*
X17565000Y-21810000D02*
X17535000Y-21840000D01*
X17535000Y-21910000D02*
X17565000Y-21940000D01*
X17565000Y-21910000D02*
X17535000Y-21940000D01*
X17535000Y-22010000D02*
X17565000Y-22040000D01*
X17565000Y-22010000D02*
X17535000Y-22040000D01*
X17536400Y-23683200D02*
X17566400Y-23713200D01*
X17566400Y-23683200D02*
X17536400Y-23713200D01*
X17560000Y-14460000D02*
X17590000Y-14490000D01*
X17590000Y-14460000D02*
X17560000Y-14490000D01*
X17560000Y-17085000D02*
X17590000Y-17115000D01*
X17590000Y-17085000D02*
X17560000Y-17115000D01*
X17560000Y-17185000D02*
X17590000Y-17215000D01*
X17590000Y-17185000D02*
X17560000Y-17215000D01*
X17560000Y-17285000D02*
X17590000Y-17315000D01*
X17590000Y-17285000D02*
X17560000Y-17315000D01*
X17560000Y-17860000D02*
X17590000Y-17890000D01*
X17590000Y-17860000D02*
X17560000Y-17890000D01*
X17561800Y-21003500D02*
X17591800Y-21033500D01*
X17591800Y-21003500D02*
X17561800Y-21033500D01*
X17622550Y-15685000D02*
X17652550Y-15715000D01*
X17652550Y-15685000D02*
X17622550Y-15715000D01*
X17635000Y-19010000D02*
X17665000Y-19040000D01*
X17665000Y-19010000D02*
X17635000Y-19040000D01*
X17635000Y-19110000D02*
X17665000Y-19140000D01*
X17665000Y-19110000D02*
X17635000Y-19140000D01*
X17635000Y-19210000D02*
X17665000Y-19240000D01*
X17665000Y-19210000D02*
X17635000Y-19240000D01*
X17635000Y-19885000D02*
X17665000Y-19915000D01*
X17665000Y-19885000D02*
X17635000Y-19915000D01*
X17635000Y-19985000D02*
X17665000Y-20015000D01*
X17665000Y-19985000D02*
X17635000Y-20015000D01*
X17635000Y-20085000D02*
X17665000Y-20115000D01*
X17665000Y-20085000D02*
X17635000Y-20115000D01*
X17635000Y-21810000D02*
X17665000Y-21840000D01*
X17665000Y-21810000D02*
X17635000Y-21840000D01*
X17635000Y-21910000D02*
X17665000Y-21940000D01*
X17665000Y-21910000D02*
X17635000Y-21940000D01*
X17635000Y-22010000D02*
X17665000Y-22040000D01*
X17665000Y-22010000D02*
X17635000Y-22040000D01*
X17685000Y-13310000D02*
X17715000Y-13340000D01*
X17715000Y-13310000D02*
X17685000Y-13340000D01*
X17685000Y-15785000D02*
X17715000Y-15815000D01*
X17715000Y-15785000D02*
X17685000Y-15815000D01*
X17710000Y-13510000D02*
X17740000Y-13540000D01*
X17740000Y-13510000D02*
X17710000Y-13540000D01*
X17735000Y-19010000D02*
X17765000Y-19040000D01*
X17765000Y-19010000D02*
X17735000Y-19040000D01*
X17735000Y-19110000D02*
X17765000Y-19140000D01*
X17765000Y-19110000D02*
X17735000Y-19140000D01*
X17735000Y-19210000D02*
X17765000Y-19240000D01*
X17765000Y-19210000D02*
X17735000Y-19240000D01*
X17735000Y-19885000D02*
X17765000Y-19915000D01*
X17765000Y-19885000D02*
X17735000Y-19915000D01*
X17735000Y-19985000D02*
X17765000Y-20015000D01*
X17765000Y-19985000D02*
X17735000Y-20015000D01*
X17735000Y-20085000D02*
X17765000Y-20115000D01*
X17765000Y-20085000D02*
X17735000Y-20115000D01*
X17735000Y-21810000D02*
X17765000Y-21840000D01*
X17765000Y-21810000D02*
X17735000Y-21840000D01*
X17735000Y-21910000D02*
X17765000Y-21940000D01*
X17765000Y-21910000D02*
X17735000Y-21940000D01*
X17735000Y-22010000D02*
X17765000Y-22040000D01*
X17765000Y-22010000D02*
X17735000Y-22040000D01*
X17739600Y-18476200D02*
X17769600Y-18506200D01*
X17769600Y-18476200D02*
X17739600Y-18506200D01*
X17777700Y-16850600D02*
X17807700Y-16880600D01*
X17807700Y-16850600D02*
X17777700Y-16880600D01*
X17892000Y-12380200D02*
X17922000Y-12410200D01*
X17922000Y-12380200D02*
X17892000Y-12410200D01*
X17935000Y-15885000D02*
X17965000Y-15915000D01*
X17965000Y-15885000D02*
X17935000Y-15915000D01*
X18057100Y-12837400D02*
X18087100Y-12867400D01*
X18087100Y-12837400D02*
X18057100Y-12867400D01*
X18590500Y-13535900D02*
X18620500Y-13565900D01*
X18620500Y-13535900D02*
X18590500Y-13565900D01*
X18760000Y-14835000D02*
X18790000Y-14865000D01*
X18790000Y-14835000D02*
X18760000Y-14865000D01*
D13*
X13736830Y-17650000D02*
G75*
G03*
X13736830Y-17650000I-36830J0D01*
G01*
X13736830Y-17800000D02*
G75*
G03*
X13736830Y-17800000I-36830J0D01*
G01*
X13736830Y-17950000D02*
G75*
G03*
X13736830Y-17950000I-36830J0D01*
G01*
X13736830Y-18100000D02*
G75*
G03*
X13736830Y-18100000I-36830J0D01*
G01*
X13736830Y-18250000D02*
G75*
G03*
X13736830Y-18250000I-36830J0D01*
G01*
X13736830Y-18400000D02*
G75*
G03*
X13736830Y-18400000I-36830J0D01*
G01*
X13736830Y-20600000D02*
G75*
G03*
X13736830Y-20600000I-36830J0D01*
G01*
X13736830Y-20750000D02*
G75*
G03*
X13736830Y-20750000I-36830J0D01*
G01*
X13736830Y-20900000D02*
G75*
G03*
X13736830Y-20900000I-36830J0D01*
G01*
X13736830Y-21050000D02*
G75*
G03*
X13736830Y-21050000I-36830J0D01*
G01*
X13736830Y-21200000D02*
G75*
G03*
X13736830Y-21200000I-36830J0D01*
G01*
X13736830Y-21350000D02*
G75*
G03*
X13736830Y-21350000I-36830J0D01*
G01*
X14336830Y-17650000D02*
G75*
G03*
X14336830Y-17650000I-36830J0D01*
G01*
X14336830Y-17800000D02*
G75*
G03*
X14336830Y-17800000I-36830J0D01*
G01*
X14336830Y-17950000D02*
G75*
G03*
X14336830Y-17950000I-36830J0D01*
G01*
X14336830Y-18100000D02*
G75*
G03*
X14336830Y-18100000I-36830J0D01*
G01*
X14336830Y-18250000D02*
G75*
G03*
X14336830Y-18250000I-36830J0D01*
G01*
X14336830Y-18400000D02*
G75*
G03*
X14336830Y-18400000I-36830J0D01*
G01*
X14336830Y-20600000D02*
G75*
G03*
X14336830Y-20600000I-36830J0D01*
G01*
X14336830Y-20750000D02*
G75*
G03*
X14336830Y-20750000I-36830J0D01*
G01*
X14336830Y-20900000D02*
G75*
G03*
X14336830Y-20900000I-36830J0D01*
G01*
X14336830Y-21050000D02*
G75*
G03*
X14336830Y-21050000I-36830J0D01*
G01*
X14336830Y-21200000D02*
G75*
G03*
X14336830Y-21200000I-36830J0D01*
G01*
X14336830Y-21350000D02*
G75*
G03*
X14336830Y-21350000I-36830J0D01*
G01*
D14*
X10596000Y-23760000D02*
X10596000Y-23840000D01*
X10556000Y-23800000D02*
X10636000Y-23800000D01*
X10850000Y-23760000D02*
X10850000Y-23840000D01*
X10810000Y-23800000D02*
X10890000Y-23800000D01*
X11571000Y-23760000D02*
X11571000Y-23840000D01*
X11531000Y-23800000D02*
X11611000Y-23800000D01*
X11825000Y-23760000D02*
X11825000Y-23840000D01*
X11785000Y-23800000D02*
X11865000Y-23800000D01*
D15*
X9331820Y-14431820D02*
X9331820Y-14368180D01*
X9268180Y-14368180D01*
X9268180Y-14431820D01*
X9331820Y-14431820D01*
X9585820Y-14431820D02*
X9585820Y-14368180D01*
X9522180Y-14368180D01*
X9522180Y-14431820D01*
X9585820Y-14431820D01*
X11506820Y-11771976D02*
X11506820Y-11708336D01*
X11443180Y-11708336D01*
X11443180Y-11771976D01*
X11506820Y-11771976D01*
X11686425Y-11592371D02*
X11686425Y-11528731D01*
X11622785Y-11528731D01*
X11622785Y-11592371D01*
X11686425Y-11592371D01*
X13331820Y-11031820D02*
X13331820Y-10968180D01*
X13268180Y-10968180D01*
X13268180Y-11031820D01*
X13331820Y-11031820D01*
X13585820Y-11031820D02*
X13585820Y-10968180D01*
X13522180Y-10968180D01*
X13522180Y-11031820D01*
X13585820Y-11031820D01*
X14531820Y-11031820D02*
X14531820Y-10968180D01*
X14468180Y-10968180D01*
X14468180Y-11031820D01*
X14531820Y-11031820D01*
X14785820Y-11031820D02*
X14785820Y-10968180D01*
X14722180Y-10968180D01*
X14722180Y-11031820D01*
X14785820Y-11031820D01*
X16412215Y-11581820D02*
X16412215Y-11518180D01*
X16348575Y-11518180D01*
X16348575Y-11581820D01*
X16412215Y-11581820D01*
X16591820Y-11761425D02*
X16591820Y-11697785D01*
X16528180Y-11697785D01*
X16528180Y-11761425D01*
X16591820Y-11761425D01*
X18481820Y-14431820D02*
X18481820Y-14368180D01*
X18418180Y-14368180D01*
X18418180Y-14431820D01*
X18481820Y-14431820D01*
X18735820Y-14431820D02*
X18735820Y-14368180D01*
X18672180Y-14368180D01*
X18672180Y-14431820D01*
X18735820Y-14431820D01*
D10*
X11988800Y-14350200D02*
X12038800Y-14300200D01*
X11988800Y-14250200D01*
X11938800Y-14300200D01*
X11988800Y-14350200D01*
X12230100Y-19328600D02*
X12280100Y-19278600D01*
X12230100Y-19228600D01*
X12180100Y-19278600D01*
X12230100Y-19328600D01*
X10650000Y-20925000D02*
X10750000Y-21025000D01*
X10750000Y-20925000D02*
X10650000Y-21025000D01*
X10750000Y-20975000D02*
G75*
G03*
X10750000Y-20975000I-50000J0D01*
G01*
X11175000Y-20925000D02*
X11275000Y-21025000D01*
X11275000Y-20925000D02*
X11175000Y-21025000D01*
X11275000Y-20975000D02*
G75*
G03*
X11275000Y-20975000I-50000J0D01*
G01*
X11725000Y-20925000D02*
X11825000Y-21025000D01*
X11825000Y-20925000D02*
X11725000Y-21025000D01*
X11825000Y-20975000D02*
G75*
G03*
X11825000Y-20975000I-50000J0D01*
G01*
X12250000Y-20925000D02*
X12350000Y-21025000D01*
X12350000Y-20925000D02*
X12250000Y-21025000D01*
X12350000Y-20975000D02*
G75*
G03*
X12350000Y-20975000I-50000J0D01*
G01*
D16*
X9845200Y-14349200D02*
X9946800Y-14450800D01*
X9946800Y-14349200D02*
X9845200Y-14450800D01*
X9896000Y-14349200D02*
X9896000Y-14450800D01*
X9845200Y-14400000D02*
X9946800Y-14400000D01*
X10099200Y-14349200D02*
X10200800Y-14450800D01*
X10200800Y-14349200D02*
X10099200Y-14450800D01*
X10150000Y-14349200D02*
X10150000Y-14450800D01*
X10099200Y-14400000D02*
X10200800Y-14400000D01*
X10994595Y-12103805D02*
X11096195Y-12205405D01*
X11096195Y-12103805D02*
X10994595Y-12205405D01*
X11045395Y-12103805D02*
X11045395Y-12205405D01*
X10994595Y-12154605D02*
X11096195Y-12154605D01*
X11174200Y-11924200D02*
X11275800Y-12025800D01*
X11275800Y-11924200D02*
X11174200Y-12025800D01*
X11225000Y-11924200D02*
X11225000Y-12025800D01*
X11174200Y-11975000D02*
X11275800Y-11975000D01*
X11844595Y-11278805D02*
X11946195Y-11380405D01*
X11946195Y-11278805D02*
X11844595Y-11380405D01*
X11895395Y-11278805D02*
X11895395Y-11380405D01*
X11844595Y-11329605D02*
X11946195Y-11329605D01*
X12024200Y-11099200D02*
X12125800Y-11200800D01*
X12125800Y-11099200D02*
X12024200Y-11200800D01*
X12075000Y-11099200D02*
X12075000Y-11200800D01*
X12024200Y-11150000D02*
X12125800Y-11150000D01*
X13845200Y-10949200D02*
X13946800Y-11050800D01*
X13946800Y-10949200D02*
X13845200Y-11050800D01*
X13896000Y-10949200D02*
X13896000Y-11050800D01*
X13845200Y-11000000D02*
X13946800Y-11000000D01*
X14099200Y-10949200D02*
X14200800Y-11050800D01*
X14200800Y-10949200D02*
X14099200Y-11050800D01*
X14150000Y-10949200D02*
X14150000Y-11050800D01*
X14099200Y-11000000D02*
X14200800Y-11000000D01*
X15819595Y-10994595D02*
X15921195Y-11096195D01*
X15921195Y-10994595D02*
X15819595Y-11096195D01*
X15870395Y-10994595D02*
X15870395Y-11096195D01*
X15819595Y-11045395D02*
X15921195Y-11045395D01*
X15999200Y-11174200D02*
X16100800Y-11275800D01*
X16100800Y-11174200D02*
X15999200Y-11275800D01*
X16050000Y-11174200D02*
X16050000Y-11275800D01*
X15999200Y-11225000D02*
X16100800Y-11225000D01*
X16744595Y-11919595D02*
X16846195Y-12021195D01*
X16846195Y-11919595D02*
X16744595Y-12021195D01*
X16795395Y-11919595D02*
X16795395Y-12021195D01*
X16744595Y-11970395D02*
X16846195Y-11970395D01*
X16924200Y-12099200D02*
X17025800Y-12200800D01*
X17025800Y-12099200D02*
X16924200Y-12200800D01*
X16975000Y-12099200D02*
X16975000Y-12200800D01*
X16924200Y-12150000D02*
X17025800Y-12150000D01*
X17795200Y-14349200D02*
X17896800Y-14450800D01*
X17896800Y-14349200D02*
X17795200Y-14450800D01*
X17846000Y-14349200D02*
X17846000Y-14450800D01*
X17795200Y-14400000D02*
X17896800Y-14400000D01*
X18049200Y-14349200D02*
X18150800Y-14450800D01*
X18150800Y-14349200D02*
X18049200Y-14450800D01*
X18100000Y-14349200D02*
X18100000Y-14450800D01*
X18049200Y-14400000D02*
X18150800Y-14400000D01*
D17*
X14520680Y-23195390D02*
X14629900Y-23304610D01*
X14629900Y-23195390D02*
X14520680Y-23304610D01*
X14613905Y-23288615D02*
X14613905Y-23211384D01*
X14536674Y-23211384D01*
X14536674Y-23288615D01*
X14613905Y-23288615D01*
X14770680Y-23195390D02*
X14879900Y-23304610D01*
X14879900Y-23195390D02*
X14770680Y-23304610D01*
X14863905Y-23288615D02*
X14863905Y-23211384D01*
X14786674Y-23211384D01*
X14786674Y-23288615D01*
X14863905Y-23288615D01*
D11*
X9250777Y-24316484D02*
X9250777Y-24116484D01*
X9250777Y-24116484D02*
X9298396Y-24116484D01*
X9298396Y-24116484D02*
X9326967Y-24126008D01*
X9326967Y-24126008D02*
X9346015Y-24145055D01*
X9346015Y-24145055D02*
X9355539Y-24164103D01*
X9355539Y-24164103D02*
X9365063Y-24202198D01*
X9365063Y-24202198D02*
X9365063Y-24230769D01*
X9365063Y-24230769D02*
X9355539Y-24268865D01*
X9355539Y-24268865D02*
X9346015Y-24287912D01*
X9346015Y-24287912D02*
X9326967Y-24306960D01*
X9326967Y-24306960D02*
X9298396Y-24316484D01*
X9298396Y-24316484D02*
X9250777Y-24316484D01*
X9450777Y-24316484D02*
X9450777Y-24183150D01*
X9450777Y-24221246D02*
X9460301Y-24202198D01*
X9460301Y-24202198D02*
X9469824Y-24192674D01*
X9469824Y-24192674D02*
X9488872Y-24183150D01*
X9488872Y-24183150D02*
X9507920Y-24183150D01*
X9574586Y-24316484D02*
X9574586Y-24183150D01*
X9574586Y-24116484D02*
X9565063Y-24126008D01*
X9565063Y-24126008D02*
X9574586Y-24135531D01*
X9574586Y-24135531D02*
X9584110Y-24126008D01*
X9584110Y-24126008D02*
X9574586Y-24116484D01*
X9574586Y-24116484D02*
X9574586Y-24135531D01*
X9698396Y-24316484D02*
X9679348Y-24306960D01*
X9679348Y-24306960D02*
X9669824Y-24287912D01*
X9669824Y-24287912D02*
X9669824Y-24116484D01*
X9803158Y-24316484D02*
X9784110Y-24306960D01*
X9784110Y-24306960D02*
X9774586Y-24287912D01*
X9774586Y-24287912D02*
X9774586Y-24116484D01*
X10031729Y-24316484D02*
X10031729Y-24116484D01*
X10031729Y-24116484D02*
X10098396Y-24259341D01*
X10098396Y-24259341D02*
X10165063Y-24116484D01*
X10165063Y-24116484D02*
X10165063Y-24316484D01*
X10346015Y-24316484D02*
X10346015Y-24211722D01*
X10346015Y-24211722D02*
X10336491Y-24192674D01*
X10336491Y-24192674D02*
X10317444Y-24183150D01*
X10317444Y-24183150D02*
X10279348Y-24183150D01*
X10279348Y-24183150D02*
X10260301Y-24192674D01*
X10346015Y-24306960D02*
X10326967Y-24316484D01*
X10326967Y-24316484D02*
X10279348Y-24316484D01*
X10279348Y-24316484D02*
X10260301Y-24306960D01*
X10260301Y-24306960D02*
X10250777Y-24287912D01*
X10250777Y-24287912D02*
X10250777Y-24268865D01*
X10250777Y-24268865D02*
X10260301Y-24249817D01*
X10260301Y-24249817D02*
X10279348Y-24240293D01*
X10279348Y-24240293D02*
X10326967Y-24240293D01*
X10326967Y-24240293D02*
X10346015Y-24230769D01*
X10441253Y-24183150D02*
X10441253Y-24383150D01*
X10441253Y-24192674D02*
X10460301Y-24183150D01*
X10460301Y-24183150D02*
X10498396Y-24183150D01*
X10498396Y-24183150D02*
X10517444Y-24192674D01*
X10517444Y-24192674D02*
X10526967Y-24202198D01*
X10526967Y-24202198D02*
X10536491Y-24221246D01*
X10536491Y-24221246D02*
X10536491Y-24278388D01*
X10536491Y-24278388D02*
X10526967Y-24297436D01*
X10526967Y-24297436D02*
X10517444Y-24306960D01*
X10517444Y-24306960D02*
X10498396Y-24316484D01*
X10498396Y-24316484D02*
X10460301Y-24316484D01*
X10460301Y-24316484D02*
X10441253Y-24306960D01*
X10622205Y-24297436D02*
X10631729Y-24306960D01*
X10631729Y-24306960D02*
X10622205Y-24316484D01*
X10622205Y-24316484D02*
X10612682Y-24306960D01*
X10612682Y-24306960D02*
X10622205Y-24297436D01*
X10622205Y-24297436D02*
X10622205Y-24316484D01*
X10622205Y-24192674D02*
X10631729Y-24202198D01*
X10631729Y-24202198D02*
X10622205Y-24211722D01*
X10622205Y-24211722D02*
X10612682Y-24202198D01*
X10612682Y-24202198D02*
X10622205Y-24192674D01*
X10622205Y-24192674D02*
X10622205Y-24211722D01*
D12*
X8960000Y-24630000D02*
X8990000Y-24660000D01*
X8990000Y-24630000D02*
X8960000Y-24660000D01*
D11*
X9288872Y-24536484D02*
X9307920Y-24536484D01*
X9307920Y-24536484D02*
X9326967Y-24546008D01*
X9326967Y-24546008D02*
X9336491Y-24555531D01*
X9336491Y-24555531D02*
X9346015Y-24574579D01*
X9346015Y-24574579D02*
X9355539Y-24612674D01*
X9355539Y-24612674D02*
X9355539Y-24660293D01*
X9355539Y-24660293D02*
X9346015Y-24698388D01*
X9346015Y-24698388D02*
X9336491Y-24717436D01*
X9336491Y-24717436D02*
X9326967Y-24726960D01*
X9326967Y-24726960D02*
X9307920Y-24736484D01*
X9307920Y-24736484D02*
X9288872Y-24736484D01*
X9288872Y-24736484D02*
X9269824Y-24726960D01*
X9269824Y-24726960D02*
X9260301Y-24717436D01*
X9260301Y-24717436D02*
X9250777Y-24698388D01*
X9250777Y-24698388D02*
X9241253Y-24660293D01*
X9241253Y-24660293D02*
X9241253Y-24612674D01*
X9241253Y-24612674D02*
X9250777Y-24574579D01*
X9250777Y-24574579D02*
X9260301Y-24555531D01*
X9260301Y-24555531D02*
X9269824Y-24546008D01*
X9269824Y-24546008D02*
X9288872Y-24536484D01*
X9441253Y-24717436D02*
X9450777Y-24726960D01*
X9450777Y-24726960D02*
X9441253Y-24736484D01*
X9441253Y-24736484D02*
X9431729Y-24726960D01*
X9431729Y-24726960D02*
X9441253Y-24717436D01*
X9441253Y-24717436D02*
X9441253Y-24736484D01*
X9517444Y-24536484D02*
X9641253Y-24536484D01*
X9641253Y-24536484D02*
X9574586Y-24612674D01*
X9574586Y-24612674D02*
X9603158Y-24612674D01*
X9603158Y-24612674D02*
X9622205Y-24622198D01*
X9622205Y-24622198D02*
X9631729Y-24631722D01*
X9631729Y-24631722D02*
X9641253Y-24650769D01*
X9641253Y-24650769D02*
X9641253Y-24698388D01*
X9641253Y-24698388D02*
X9631729Y-24717436D01*
X9631729Y-24717436D02*
X9622205Y-24726960D01*
X9622205Y-24726960D02*
X9603158Y-24736484D01*
X9603158Y-24736484D02*
X9546015Y-24736484D01*
X9546015Y-24736484D02*
X9526967Y-24726960D01*
X9526967Y-24726960D02*
X9517444Y-24717436D01*
X9765063Y-24536484D02*
X9784110Y-24536484D01*
X9784110Y-24536484D02*
X9803158Y-24546008D01*
X9803158Y-24546008D02*
X9812682Y-24555531D01*
X9812682Y-24555531D02*
X9822205Y-24574579D01*
X9822205Y-24574579D02*
X9831729Y-24612674D01*
X9831729Y-24612674D02*
X9831729Y-24660293D01*
X9831729Y-24660293D02*
X9822205Y-24698388D01*
X9822205Y-24698388D02*
X9812682Y-24717436D01*
X9812682Y-24717436D02*
X9803158Y-24726960D01*
X9803158Y-24726960D02*
X9784110Y-24736484D01*
X9784110Y-24736484D02*
X9765063Y-24736484D01*
X9765063Y-24736484D02*
X9746015Y-24726960D01*
X9746015Y-24726960D02*
X9736491Y-24717436D01*
X9736491Y-24717436D02*
X9726967Y-24698388D01*
X9726967Y-24698388D02*
X9717444Y-24660293D01*
X9717444Y-24660293D02*
X9717444Y-24612674D01*
X9717444Y-24612674D02*
X9726967Y-24574579D01*
X9726967Y-24574579D02*
X9736491Y-24555531D01*
X9736491Y-24555531D02*
X9746015Y-24546008D01*
X9746015Y-24546008D02*
X9765063Y-24536484D01*
X9955539Y-24536484D02*
X9974586Y-24536484D01*
X9974586Y-24536484D02*
X9993634Y-24546008D01*
X9993634Y-24546008D02*
X10003158Y-24555531D01*
X10003158Y-24555531D02*
X10012682Y-24574579D01*
X10012682Y-24574579D02*
X10022205Y-24612674D01*
X10022205Y-24612674D02*
X10022205Y-24660293D01*
X10022205Y-24660293D02*
X10012682Y-24698388D01*
X10012682Y-24698388D02*
X10003158Y-24717436D01*
X10003158Y-24717436D02*
X9993634Y-24726960D01*
X9993634Y-24726960D02*
X9974586Y-24736484D01*
X9974586Y-24736484D02*
X9955539Y-24736484D01*
X9955539Y-24736484D02*
X9936491Y-24726960D01*
X9936491Y-24726960D02*
X9926967Y-24717436D01*
X9926967Y-24717436D02*
X9917444Y-24698388D01*
X9917444Y-24698388D02*
X9907920Y-24660293D01*
X9907920Y-24660293D02*
X9907920Y-24612674D01*
X9907920Y-24612674D02*
X9917444Y-24574579D01*
X9917444Y-24574579D02*
X9926967Y-24555531D01*
X9926967Y-24555531D02*
X9936491Y-24546008D01*
X9936491Y-24546008D02*
X9955539Y-24536484D01*
X10107920Y-24736484D02*
X10107920Y-24603150D01*
X10107920Y-24622198D02*
X10117444Y-24612674D01*
X10117444Y-24612674D02*
X10136491Y-24603150D01*
X10136491Y-24603150D02*
X10165063Y-24603150D01*
X10165063Y-24603150D02*
X10184110Y-24612674D01*
X10184110Y-24612674D02*
X10193634Y-24631722D01*
X10193634Y-24631722D02*
X10193634Y-24736484D01*
X10193634Y-24631722D02*
X10203158Y-24612674D01*
X10203158Y-24612674D02*
X10222205Y-24603150D01*
X10222205Y-24603150D02*
X10250777Y-24603150D01*
X10250777Y-24603150D02*
X10269825Y-24612674D01*
X10269825Y-24612674D02*
X10279348Y-24631722D01*
X10279348Y-24631722D02*
X10279348Y-24736484D01*
X10374586Y-24736484D02*
X10374586Y-24603150D01*
X10374586Y-24622198D02*
X10384110Y-24612674D01*
X10384110Y-24612674D02*
X10403158Y-24603150D01*
X10403158Y-24603150D02*
X10431729Y-24603150D01*
X10431729Y-24603150D02*
X10450777Y-24612674D01*
X10450777Y-24612674D02*
X10460301Y-24631722D01*
X10460301Y-24631722D02*
X10460301Y-24736484D01*
X10460301Y-24631722D02*
X10469825Y-24612674D01*
X10469825Y-24612674D02*
X10488872Y-24603150D01*
X10488872Y-24603150D02*
X10517444Y-24603150D01*
X10517444Y-24603150D02*
X10536491Y-24612674D01*
X10536491Y-24612674D02*
X10546015Y-24631722D01*
X10546015Y-24631722D02*
X10546015Y-24736484D01*
X10936491Y-24526960D02*
X10765063Y-24784103D01*
X11193634Y-24536484D02*
X11212682Y-24536484D01*
X11212682Y-24536484D02*
X11231729Y-24546008D01*
X11231729Y-24546008D02*
X11241253Y-24555531D01*
X11241253Y-24555531D02*
X11250777Y-24574579D01*
X11250777Y-24574579D02*
X11260301Y-24612674D01*
X11260301Y-24612674D02*
X11260301Y-24660293D01*
X11260301Y-24660293D02*
X11250777Y-24698388D01*
X11250777Y-24698388D02*
X11241253Y-24717436D01*
X11241253Y-24717436D02*
X11231729Y-24726960D01*
X11231729Y-24726960D02*
X11212682Y-24736484D01*
X11212682Y-24736484D02*
X11193634Y-24736484D01*
X11193634Y-24736484D02*
X11174587Y-24726960D01*
X11174587Y-24726960D02*
X11165063Y-24717436D01*
X11165063Y-24717436D02*
X11155539Y-24698388D01*
X11155539Y-24698388D02*
X11146015Y-24660293D01*
X11146015Y-24660293D02*
X11146015Y-24612674D01*
X11146015Y-24612674D02*
X11155539Y-24574579D01*
X11155539Y-24574579D02*
X11165063Y-24555531D01*
X11165063Y-24555531D02*
X11174587Y-24546008D01*
X11174587Y-24546008D02*
X11193634Y-24536484D01*
X11346015Y-24717436D02*
X11355539Y-24726960D01*
X11355539Y-24726960D02*
X11346015Y-24736484D01*
X11346015Y-24736484D02*
X11336491Y-24726960D01*
X11336491Y-24726960D02*
X11346015Y-24717436D01*
X11346015Y-24717436D02*
X11346015Y-24736484D01*
X11479348Y-24536484D02*
X11498396Y-24536484D01*
X11498396Y-24536484D02*
X11517444Y-24546008D01*
X11517444Y-24546008D02*
X11526967Y-24555531D01*
X11526967Y-24555531D02*
X11536491Y-24574579D01*
X11536491Y-24574579D02*
X11546015Y-24612674D01*
X11546015Y-24612674D02*
X11546015Y-24660293D01*
X11546015Y-24660293D02*
X11536491Y-24698388D01*
X11536491Y-24698388D02*
X11526967Y-24717436D01*
X11526967Y-24717436D02*
X11517444Y-24726960D01*
X11517444Y-24726960D02*
X11498396Y-24736484D01*
X11498396Y-24736484D02*
X11479348Y-24736484D01*
X11479348Y-24736484D02*
X11460301Y-24726960D01*
X11460301Y-24726960D02*
X11450777Y-24717436D01*
X11450777Y-24717436D02*
X11441253Y-24698388D01*
X11441253Y-24698388D02*
X11431729Y-24660293D01*
X11431729Y-24660293D02*
X11431729Y-24612674D01*
X11431729Y-24612674D02*
X11441253Y-24574579D01*
X11441253Y-24574579D02*
X11450777Y-24555531D01*
X11450777Y-24555531D02*
X11460301Y-24546008D01*
X11460301Y-24546008D02*
X11479348Y-24536484D01*
X11736491Y-24736484D02*
X11622206Y-24736484D01*
X11679348Y-24736484D02*
X11679348Y-24536484D01*
X11679348Y-24536484D02*
X11660301Y-24565055D01*
X11660301Y-24565055D02*
X11641253Y-24584103D01*
X11641253Y-24584103D02*
X11622206Y-24593627D01*
X11926967Y-24736484D02*
X11812682Y-24736484D01*
X11869825Y-24736484D02*
X11869825Y-24536484D01*
X11869825Y-24536484D02*
X11850777Y-24565055D01*
X11850777Y-24565055D02*
X11831729Y-24584103D01*
X11831729Y-24584103D02*
X11812682Y-24593627D01*
X12041253Y-24622198D02*
X12022206Y-24612674D01*
X12022206Y-24612674D02*
X12012682Y-24603150D01*
X12012682Y-24603150D02*
X12003158Y-24584103D01*
X12003158Y-24584103D02*
X12003158Y-24574579D01*
X12003158Y-24574579D02*
X12012682Y-24555531D01*
X12012682Y-24555531D02*
X12022206Y-24546008D01*
X12022206Y-24546008D02*
X12041253Y-24536484D01*
X12041253Y-24536484D02*
X12079348Y-24536484D01*
X12079348Y-24536484D02*
X12098396Y-24546008D01*
X12098396Y-24546008D02*
X12107920Y-24555531D01*
X12107920Y-24555531D02*
X12117444Y-24574579D01*
X12117444Y-24574579D02*
X12117444Y-24584103D01*
X12117444Y-24584103D02*
X12107920Y-24603150D01*
X12107920Y-24603150D02*
X12098396Y-24612674D01*
X12098396Y-24612674D02*
X12079348Y-24622198D01*
X12079348Y-24622198D02*
X12041253Y-24622198D01*
X12041253Y-24622198D02*
X12022206Y-24631722D01*
X12022206Y-24631722D02*
X12012682Y-24641246D01*
X12012682Y-24641246D02*
X12003158Y-24660293D01*
X12003158Y-24660293D02*
X12003158Y-24698388D01*
X12003158Y-24698388D02*
X12012682Y-24717436D01*
X12012682Y-24717436D02*
X12022206Y-24726960D01*
X12022206Y-24726960D02*
X12041253Y-24736484D01*
X12041253Y-24736484D02*
X12079348Y-24736484D01*
X12079348Y-24736484D02*
X12098396Y-24726960D01*
X12098396Y-24726960D02*
X12107920Y-24717436D01*
X12107920Y-24717436D02*
X12117444Y-24698388D01*
X12117444Y-24698388D02*
X12117444Y-24660293D01*
X12117444Y-24660293D02*
X12107920Y-24641246D01*
X12107920Y-24641246D02*
X12098396Y-24631722D01*
X12098396Y-24631722D02*
X12079348Y-24622198D01*
X12193634Y-24536484D02*
X12193634Y-24574579D01*
X12269825Y-24536484D02*
X12269825Y-24574579D01*
X12565063Y-24812674D02*
X12555539Y-24803150D01*
X12555539Y-24803150D02*
X12536491Y-24774579D01*
X12536491Y-24774579D02*
X12526968Y-24755531D01*
X12526968Y-24755531D02*
X12517444Y-24726960D01*
X12517444Y-24726960D02*
X12507920Y-24679341D01*
X12507920Y-24679341D02*
X12507920Y-24641246D01*
X12507920Y-24641246D02*
X12517444Y-24593627D01*
X12517444Y-24593627D02*
X12526968Y-24565055D01*
X12526968Y-24565055D02*
X12536491Y-24546008D01*
X12536491Y-24546008D02*
X12555539Y-24517436D01*
X12555539Y-24517436D02*
X12565063Y-24507912D01*
X12726968Y-24536484D02*
X12688872Y-24536484D01*
X12688872Y-24536484D02*
X12669825Y-24546008D01*
X12669825Y-24546008D02*
X12660301Y-24555531D01*
X12660301Y-24555531D02*
X12641253Y-24584103D01*
X12641253Y-24584103D02*
X12631729Y-24622198D01*
X12631729Y-24622198D02*
X12631729Y-24698388D01*
X12631729Y-24698388D02*
X12641253Y-24717436D01*
X12641253Y-24717436D02*
X12650777Y-24726960D01*
X12650777Y-24726960D02*
X12669825Y-24736484D01*
X12669825Y-24736484D02*
X12707920Y-24736484D01*
X12707920Y-24736484D02*
X12726968Y-24726960D01*
X12726968Y-24726960D02*
X12736491Y-24717436D01*
X12736491Y-24717436D02*
X12746015Y-24698388D01*
X12746015Y-24698388D02*
X12746015Y-24650769D01*
X12746015Y-24650769D02*
X12736491Y-24631722D01*
X12736491Y-24631722D02*
X12726968Y-24622198D01*
X12726968Y-24622198D02*
X12707920Y-24612674D01*
X12707920Y-24612674D02*
X12669825Y-24612674D01*
X12669825Y-24612674D02*
X12650777Y-24622198D01*
X12650777Y-24622198D02*
X12641253Y-24631722D01*
X12641253Y-24631722D02*
X12631729Y-24650769D01*
X12917444Y-24536484D02*
X12879348Y-24536484D01*
X12879348Y-24536484D02*
X12860301Y-24546008D01*
X12860301Y-24546008D02*
X12850777Y-24555531D01*
X12850777Y-24555531D02*
X12831729Y-24584103D01*
X12831729Y-24584103D02*
X12822206Y-24622198D01*
X12822206Y-24622198D02*
X12822206Y-24698388D01*
X12822206Y-24698388D02*
X12831729Y-24717436D01*
X12831729Y-24717436D02*
X12841253Y-24726960D01*
X12841253Y-24726960D02*
X12860301Y-24736484D01*
X12860301Y-24736484D02*
X12898396Y-24736484D01*
X12898396Y-24736484D02*
X12917444Y-24726960D01*
X12917444Y-24726960D02*
X12926968Y-24717436D01*
X12926968Y-24717436D02*
X12936491Y-24698388D01*
X12936491Y-24698388D02*
X12936491Y-24650769D01*
X12936491Y-24650769D02*
X12926968Y-24631722D01*
X12926968Y-24631722D02*
X12917444Y-24622198D01*
X12917444Y-24622198D02*
X12898396Y-24612674D01*
X12898396Y-24612674D02*
X12860301Y-24612674D01*
X12860301Y-24612674D02*
X12841253Y-24622198D01*
X12841253Y-24622198D02*
X12831729Y-24631722D01*
X12831729Y-24631722D02*
X12822206Y-24650769D01*
X13031729Y-24736484D02*
X13069825Y-24736484D01*
X13069825Y-24736484D02*
X13088872Y-24726960D01*
X13088872Y-24726960D02*
X13098396Y-24717436D01*
X13098396Y-24717436D02*
X13117444Y-24688865D01*
X13117444Y-24688865D02*
X13126968Y-24650769D01*
X13126968Y-24650769D02*
X13126968Y-24574579D01*
X13126968Y-24574579D02*
X13117444Y-24555531D01*
X13117444Y-24555531D02*
X13107920Y-24546008D01*
X13107920Y-24546008D02*
X13088872Y-24536484D01*
X13088872Y-24536484D02*
X13050777Y-24536484D01*
X13050777Y-24536484D02*
X13031729Y-24546008D01*
X13031729Y-24546008D02*
X13022206Y-24555531D01*
X13022206Y-24555531D02*
X13012682Y-24574579D01*
X13012682Y-24574579D02*
X13012682Y-24622198D01*
X13012682Y-24622198D02*
X13022206Y-24641246D01*
X13022206Y-24641246D02*
X13031729Y-24650769D01*
X13031729Y-24650769D02*
X13050777Y-24660293D01*
X13050777Y-24660293D02*
X13088872Y-24660293D01*
X13088872Y-24660293D02*
X13107920Y-24650769D01*
X13107920Y-24650769D02*
X13117444Y-24641246D01*
X13117444Y-24641246D02*
X13126968Y-24622198D01*
X13365063Y-24736484D02*
X13365063Y-24536484D01*
X13450777Y-24736484D02*
X13450777Y-24631722D01*
X13450777Y-24631722D02*
X13441253Y-24612674D01*
X13441253Y-24612674D02*
X13422206Y-24603150D01*
X13422206Y-24603150D02*
X13393634Y-24603150D01*
X13393634Y-24603150D02*
X13374587Y-24612674D01*
X13374587Y-24612674D02*
X13365063Y-24622198D01*
X13574587Y-24736484D02*
X13555539Y-24726960D01*
X13555539Y-24726960D02*
X13546015Y-24717436D01*
X13546015Y-24717436D02*
X13536491Y-24698388D01*
X13536491Y-24698388D02*
X13536491Y-24641246D01*
X13536491Y-24641246D02*
X13546015Y-24622198D01*
X13546015Y-24622198D02*
X13555539Y-24612674D01*
X13555539Y-24612674D02*
X13574587Y-24603150D01*
X13574587Y-24603150D02*
X13603158Y-24603150D01*
X13603158Y-24603150D02*
X13622206Y-24612674D01*
X13622206Y-24612674D02*
X13631730Y-24622198D01*
X13631730Y-24622198D02*
X13641253Y-24641246D01*
X13641253Y-24641246D02*
X13641253Y-24698388D01*
X13641253Y-24698388D02*
X13631730Y-24717436D01*
X13631730Y-24717436D02*
X13622206Y-24726960D01*
X13622206Y-24726960D02*
X13603158Y-24736484D01*
X13603158Y-24736484D02*
X13574587Y-24736484D01*
X13755539Y-24736484D02*
X13736491Y-24726960D01*
X13736491Y-24726960D02*
X13726968Y-24707912D01*
X13726968Y-24707912D02*
X13726968Y-24536484D01*
X13907920Y-24726960D02*
X13888872Y-24736484D01*
X13888872Y-24736484D02*
X13850777Y-24736484D01*
X13850777Y-24736484D02*
X13831730Y-24726960D01*
X13831730Y-24726960D02*
X13822206Y-24707912D01*
X13822206Y-24707912D02*
X13822206Y-24631722D01*
X13822206Y-24631722D02*
X13831730Y-24612674D01*
X13831730Y-24612674D02*
X13850777Y-24603150D01*
X13850777Y-24603150D02*
X13888872Y-24603150D01*
X13888872Y-24603150D02*
X13907920Y-24612674D01*
X13907920Y-24612674D02*
X13917444Y-24631722D01*
X13917444Y-24631722D02*
X13917444Y-24650769D01*
X13917444Y-24650769D02*
X13822206Y-24669817D01*
X13993634Y-24726960D02*
X14012682Y-24736484D01*
X14012682Y-24736484D02*
X14050777Y-24736484D01*
X14050777Y-24736484D02*
X14069825Y-24726960D01*
X14069825Y-24726960D02*
X14079349Y-24707912D01*
X14079349Y-24707912D02*
X14079349Y-24698388D01*
X14079349Y-24698388D02*
X14069825Y-24679341D01*
X14069825Y-24679341D02*
X14050777Y-24669817D01*
X14050777Y-24669817D02*
X14022206Y-24669817D01*
X14022206Y-24669817D02*
X14003158Y-24660293D01*
X14003158Y-24660293D02*
X13993634Y-24641246D01*
X13993634Y-24641246D02*
X13993634Y-24631722D01*
X13993634Y-24631722D02*
X14003158Y-24612674D01*
X14003158Y-24612674D02*
X14022206Y-24603150D01*
X14022206Y-24603150D02*
X14050777Y-24603150D01*
X14050777Y-24603150D02*
X14069825Y-24612674D01*
X14146015Y-24812674D02*
X14155539Y-24803150D01*
X14155539Y-24803150D02*
X14174587Y-24774579D01*
X14174587Y-24774579D02*
X14184111Y-24755531D01*
X14184111Y-24755531D02*
X14193634Y-24726960D01*
X14193634Y-24726960D02*
X14203158Y-24679341D01*
X14203158Y-24679341D02*
X14203158Y-24641246D01*
X14203158Y-24641246D02*
X14193634Y-24593627D01*
X14193634Y-24593627D02*
X14184111Y-24565055D01*
X14184111Y-24565055D02*
X14174587Y-24546008D01*
X14174587Y-24546008D02*
X14155539Y-24517436D01*
X14155539Y-24517436D02*
X14146015Y-24507912D01*
D13*
X8990000Y-24909000D02*
G75*
G03*
X8990000Y-24909000I-36830J0D01*
G01*
D11*
X9288872Y-24800484D02*
X9307920Y-24800484D01*
X9307920Y-24800484D02*
X9326967Y-24810008D01*
X9326967Y-24810008D02*
X9336491Y-24819531D01*
X9336491Y-24819531D02*
X9346015Y-24838579D01*
X9346015Y-24838579D02*
X9355539Y-24876674D01*
X9355539Y-24876674D02*
X9355539Y-24924293D01*
X9355539Y-24924293D02*
X9346015Y-24962388D01*
X9346015Y-24962388D02*
X9336491Y-24981436D01*
X9336491Y-24981436D02*
X9326967Y-24990960D01*
X9326967Y-24990960D02*
X9307920Y-25000484D01*
X9307920Y-25000484D02*
X9288872Y-25000484D01*
X9288872Y-25000484D02*
X9269824Y-24990960D01*
X9269824Y-24990960D02*
X9260301Y-24981436D01*
X9260301Y-24981436D02*
X9250777Y-24962388D01*
X9250777Y-24962388D02*
X9241253Y-24924293D01*
X9241253Y-24924293D02*
X9241253Y-24876674D01*
X9241253Y-24876674D02*
X9250777Y-24838579D01*
X9250777Y-24838579D02*
X9260301Y-24819531D01*
X9260301Y-24819531D02*
X9269824Y-24810008D01*
X9269824Y-24810008D02*
X9288872Y-24800484D01*
X9441253Y-24981436D02*
X9450777Y-24990960D01*
X9450777Y-24990960D02*
X9441253Y-25000484D01*
X9441253Y-25000484D02*
X9431729Y-24990960D01*
X9431729Y-24990960D02*
X9441253Y-24981436D01*
X9441253Y-24981436D02*
X9441253Y-25000484D01*
X9517444Y-24800484D02*
X9650777Y-24800484D01*
X9650777Y-24800484D02*
X9565063Y-25000484D01*
X9707920Y-24800484D02*
X9831729Y-24800484D01*
X9831729Y-24800484D02*
X9765063Y-24876674D01*
X9765063Y-24876674D02*
X9793634Y-24876674D01*
X9793634Y-24876674D02*
X9812682Y-24886198D01*
X9812682Y-24886198D02*
X9822205Y-24895722D01*
X9822205Y-24895722D02*
X9831729Y-24914769D01*
X9831729Y-24914769D02*
X9831729Y-24962388D01*
X9831729Y-24962388D02*
X9822205Y-24981436D01*
X9822205Y-24981436D02*
X9812682Y-24990960D01*
X9812682Y-24990960D02*
X9793634Y-25000484D01*
X9793634Y-25000484D02*
X9736491Y-25000484D01*
X9736491Y-25000484D02*
X9717444Y-24990960D01*
X9717444Y-24990960D02*
X9707920Y-24981436D01*
X9898396Y-24800484D02*
X10031729Y-24800484D01*
X10031729Y-24800484D02*
X9946015Y-25000484D01*
X10107920Y-25000484D02*
X10107920Y-24867150D01*
X10107920Y-24886198D02*
X10117444Y-24876674D01*
X10117444Y-24876674D02*
X10136491Y-24867150D01*
X10136491Y-24867150D02*
X10165063Y-24867150D01*
X10165063Y-24867150D02*
X10184110Y-24876674D01*
X10184110Y-24876674D02*
X10193634Y-24895722D01*
X10193634Y-24895722D02*
X10193634Y-25000484D01*
X10193634Y-24895722D02*
X10203158Y-24876674D01*
X10203158Y-24876674D02*
X10222205Y-24867150D01*
X10222205Y-24867150D02*
X10250777Y-24867150D01*
X10250777Y-24867150D02*
X10269825Y-24876674D01*
X10269825Y-24876674D02*
X10279348Y-24895722D01*
X10279348Y-24895722D02*
X10279348Y-25000484D01*
X10374586Y-25000484D02*
X10374586Y-24867150D01*
X10374586Y-24886198D02*
X10384110Y-24876674D01*
X10384110Y-24876674D02*
X10403158Y-24867150D01*
X10403158Y-24867150D02*
X10431729Y-24867150D01*
X10431729Y-24867150D02*
X10450777Y-24876674D01*
X10450777Y-24876674D02*
X10460301Y-24895722D01*
X10460301Y-24895722D02*
X10460301Y-25000484D01*
X10460301Y-24895722D02*
X10469825Y-24876674D01*
X10469825Y-24876674D02*
X10488872Y-24867150D01*
X10488872Y-24867150D02*
X10517444Y-24867150D01*
X10517444Y-24867150D02*
X10536491Y-24876674D01*
X10536491Y-24876674D02*
X10546015Y-24895722D01*
X10546015Y-24895722D02*
X10546015Y-25000484D01*
X10936491Y-24790960D02*
X10765063Y-25048103D01*
X11193634Y-24800484D02*
X11212682Y-24800484D01*
X11212682Y-24800484D02*
X11231729Y-24810008D01*
X11231729Y-24810008D02*
X11241253Y-24819531D01*
X11241253Y-24819531D02*
X11250777Y-24838579D01*
X11250777Y-24838579D02*
X11260301Y-24876674D01*
X11260301Y-24876674D02*
X11260301Y-24924293D01*
X11260301Y-24924293D02*
X11250777Y-24962388D01*
X11250777Y-24962388D02*
X11241253Y-24981436D01*
X11241253Y-24981436D02*
X11231729Y-24990960D01*
X11231729Y-24990960D02*
X11212682Y-25000484D01*
X11212682Y-25000484D02*
X11193634Y-25000484D01*
X11193634Y-25000484D02*
X11174587Y-24990960D01*
X11174587Y-24990960D02*
X11165063Y-24981436D01*
X11165063Y-24981436D02*
X11155539Y-24962388D01*
X11155539Y-24962388D02*
X11146015Y-24924293D01*
X11146015Y-24924293D02*
X11146015Y-24876674D01*
X11146015Y-24876674D02*
X11155539Y-24838579D01*
X11155539Y-24838579D02*
X11165063Y-24819531D01*
X11165063Y-24819531D02*
X11174587Y-24810008D01*
X11174587Y-24810008D02*
X11193634Y-24800484D01*
X11346015Y-24981436D02*
X11355539Y-24990960D01*
X11355539Y-24990960D02*
X11346015Y-25000484D01*
X11346015Y-25000484D02*
X11336491Y-24990960D01*
X11336491Y-24990960D02*
X11346015Y-24981436D01*
X11346015Y-24981436D02*
X11346015Y-25000484D01*
X11479348Y-24800484D02*
X11498396Y-24800484D01*
X11498396Y-24800484D02*
X11517444Y-24810008D01*
X11517444Y-24810008D02*
X11526967Y-24819531D01*
X11526967Y-24819531D02*
X11536491Y-24838579D01*
X11536491Y-24838579D02*
X11546015Y-24876674D01*
X11546015Y-24876674D02*
X11546015Y-24924293D01*
X11546015Y-24924293D02*
X11536491Y-24962388D01*
X11536491Y-24962388D02*
X11526967Y-24981436D01*
X11526967Y-24981436D02*
X11517444Y-24990960D01*
X11517444Y-24990960D02*
X11498396Y-25000484D01*
X11498396Y-25000484D02*
X11479348Y-25000484D01*
X11479348Y-25000484D02*
X11460301Y-24990960D01*
X11460301Y-24990960D02*
X11450777Y-24981436D01*
X11450777Y-24981436D02*
X11441253Y-24962388D01*
X11441253Y-24962388D02*
X11431729Y-24924293D01*
X11431729Y-24924293D02*
X11431729Y-24876674D01*
X11431729Y-24876674D02*
X11441253Y-24838579D01*
X11441253Y-24838579D02*
X11450777Y-24819531D01*
X11450777Y-24819531D02*
X11460301Y-24810008D01*
X11460301Y-24810008D02*
X11479348Y-24800484D01*
X11622206Y-24819531D02*
X11631729Y-24810008D01*
X11631729Y-24810008D02*
X11650777Y-24800484D01*
X11650777Y-24800484D02*
X11698396Y-24800484D01*
X11698396Y-24800484D02*
X11717444Y-24810008D01*
X11717444Y-24810008D02*
X11726967Y-24819531D01*
X11726967Y-24819531D02*
X11736491Y-24838579D01*
X11736491Y-24838579D02*
X11736491Y-24857627D01*
X11736491Y-24857627D02*
X11726967Y-24886198D01*
X11726967Y-24886198D02*
X11612682Y-25000484D01*
X11612682Y-25000484D02*
X11736491Y-25000484D01*
X11831729Y-25000484D02*
X11869825Y-25000484D01*
X11869825Y-25000484D02*
X11888872Y-24990960D01*
X11888872Y-24990960D02*
X11898396Y-24981436D01*
X11898396Y-24981436D02*
X11917444Y-24952865D01*
X11917444Y-24952865D02*
X11926967Y-24914769D01*
X11926967Y-24914769D02*
X11926967Y-24838579D01*
X11926967Y-24838579D02*
X11917444Y-24819531D01*
X11917444Y-24819531D02*
X11907920Y-24810008D01*
X11907920Y-24810008D02*
X11888872Y-24800484D01*
X11888872Y-24800484D02*
X11850777Y-24800484D01*
X11850777Y-24800484D02*
X11831729Y-24810008D01*
X11831729Y-24810008D02*
X11822206Y-24819531D01*
X11822206Y-24819531D02*
X11812682Y-24838579D01*
X11812682Y-24838579D02*
X11812682Y-24886198D01*
X11812682Y-24886198D02*
X11822206Y-24905246D01*
X11822206Y-24905246D02*
X11831729Y-24914769D01*
X11831729Y-24914769D02*
X11850777Y-24924293D01*
X11850777Y-24924293D02*
X11888872Y-24924293D01*
X11888872Y-24924293D02*
X11907920Y-24914769D01*
X11907920Y-24914769D02*
X11917444Y-24905246D01*
X11917444Y-24905246D02*
X11926967Y-24886198D01*
X12050777Y-24800484D02*
X12069825Y-24800484D01*
X12069825Y-24800484D02*
X12088872Y-24810008D01*
X12088872Y-24810008D02*
X12098396Y-24819531D01*
X12098396Y-24819531D02*
X12107920Y-24838579D01*
X12107920Y-24838579D02*
X12117444Y-24876674D01*
X12117444Y-24876674D02*
X12117444Y-24924293D01*
X12117444Y-24924293D02*
X12107920Y-24962388D01*
X12107920Y-24962388D02*
X12098396Y-24981436D01*
X12098396Y-24981436D02*
X12088872Y-24990960D01*
X12088872Y-24990960D02*
X12069825Y-25000484D01*
X12069825Y-25000484D02*
X12050777Y-25000484D01*
X12050777Y-25000484D02*
X12031729Y-24990960D01*
X12031729Y-24990960D02*
X12022206Y-24981436D01*
X12022206Y-24981436D02*
X12012682Y-24962388D01*
X12012682Y-24962388D02*
X12003158Y-24924293D01*
X12003158Y-24924293D02*
X12003158Y-24876674D01*
X12003158Y-24876674D02*
X12012682Y-24838579D01*
X12012682Y-24838579D02*
X12022206Y-24819531D01*
X12022206Y-24819531D02*
X12031729Y-24810008D01*
X12031729Y-24810008D02*
X12050777Y-24800484D01*
X12193634Y-24800484D02*
X12193634Y-24838579D01*
X12269825Y-24800484D02*
X12269825Y-24838579D01*
X12565063Y-25076674D02*
X12555539Y-25067150D01*
X12555539Y-25067150D02*
X12536491Y-25038579D01*
X12536491Y-25038579D02*
X12526968Y-25019531D01*
X12526968Y-25019531D02*
X12517444Y-24990960D01*
X12517444Y-24990960D02*
X12507920Y-24943341D01*
X12507920Y-24943341D02*
X12507920Y-24905246D01*
X12507920Y-24905246D02*
X12517444Y-24857627D01*
X12517444Y-24857627D02*
X12526968Y-24829055D01*
X12526968Y-24829055D02*
X12536491Y-24810008D01*
X12536491Y-24810008D02*
X12555539Y-24781436D01*
X12555539Y-24781436D02*
X12565063Y-24771912D01*
X12631729Y-24819531D02*
X12641253Y-24810008D01*
X12641253Y-24810008D02*
X12660301Y-24800484D01*
X12660301Y-24800484D02*
X12707920Y-24800484D01*
X12707920Y-24800484D02*
X12726968Y-24810008D01*
X12726968Y-24810008D02*
X12736491Y-24819531D01*
X12736491Y-24819531D02*
X12746015Y-24838579D01*
X12746015Y-24838579D02*
X12746015Y-24857627D01*
X12746015Y-24857627D02*
X12736491Y-24886198D01*
X12736491Y-24886198D02*
X12622206Y-25000484D01*
X12622206Y-25000484D02*
X12746015Y-25000484D01*
X12917444Y-24867150D02*
X12917444Y-25000484D01*
X12869825Y-24790960D02*
X12822206Y-24933817D01*
X12822206Y-24933817D02*
X12946015Y-24933817D01*
X13174587Y-25000484D02*
X13174587Y-24800484D01*
X13260301Y-25000484D02*
X13260301Y-24895722D01*
X13260301Y-24895722D02*
X13250777Y-24876674D01*
X13250777Y-24876674D02*
X13231730Y-24867150D01*
X13231730Y-24867150D02*
X13203158Y-24867150D01*
X13203158Y-24867150D02*
X13184110Y-24876674D01*
X13184110Y-24876674D02*
X13174587Y-24886198D01*
X13384110Y-25000484D02*
X13365063Y-24990960D01*
X13365063Y-24990960D02*
X13355539Y-24981436D01*
X13355539Y-24981436D02*
X13346015Y-24962388D01*
X13346015Y-24962388D02*
X13346015Y-24905246D01*
X13346015Y-24905246D02*
X13355539Y-24886198D01*
X13355539Y-24886198D02*
X13365063Y-24876674D01*
X13365063Y-24876674D02*
X13384110Y-24867150D01*
X13384110Y-24867150D02*
X13412682Y-24867150D01*
X13412682Y-24867150D02*
X13431730Y-24876674D01*
X13431730Y-24876674D02*
X13441253Y-24886198D01*
X13441253Y-24886198D02*
X13450777Y-24905246D01*
X13450777Y-24905246D02*
X13450777Y-24962388D01*
X13450777Y-24962388D02*
X13441253Y-24981436D01*
X13441253Y-24981436D02*
X13431730Y-24990960D01*
X13431730Y-24990960D02*
X13412682Y-25000484D01*
X13412682Y-25000484D02*
X13384110Y-25000484D01*
X13565063Y-25000484D02*
X13546015Y-24990960D01*
X13546015Y-24990960D02*
X13536491Y-24971912D01*
X13536491Y-24971912D02*
X13536491Y-24800484D01*
X13717444Y-24990960D02*
X13698396Y-25000484D01*
X13698396Y-25000484D02*
X13660301Y-25000484D01*
X13660301Y-25000484D02*
X13641253Y-24990960D01*
X13641253Y-24990960D02*
X13631730Y-24971912D01*
X13631730Y-24971912D02*
X13631730Y-24895722D01*
X13631730Y-24895722D02*
X13641253Y-24876674D01*
X13641253Y-24876674D02*
X13660301Y-24867150D01*
X13660301Y-24867150D02*
X13698396Y-24867150D01*
X13698396Y-24867150D02*
X13717444Y-24876674D01*
X13717444Y-24876674D02*
X13726968Y-24895722D01*
X13726968Y-24895722D02*
X13726968Y-24914769D01*
X13726968Y-24914769D02*
X13631730Y-24933817D01*
X13803158Y-24990960D02*
X13822206Y-25000484D01*
X13822206Y-25000484D02*
X13860301Y-25000484D01*
X13860301Y-25000484D02*
X13879349Y-24990960D01*
X13879349Y-24990960D02*
X13888872Y-24971912D01*
X13888872Y-24971912D02*
X13888872Y-24962388D01*
X13888872Y-24962388D02*
X13879349Y-24943341D01*
X13879349Y-24943341D02*
X13860301Y-24933817D01*
X13860301Y-24933817D02*
X13831730Y-24933817D01*
X13831730Y-24933817D02*
X13812682Y-24924293D01*
X13812682Y-24924293D02*
X13803158Y-24905246D01*
X13803158Y-24905246D02*
X13803158Y-24895722D01*
X13803158Y-24895722D02*
X13812682Y-24876674D01*
X13812682Y-24876674D02*
X13831730Y-24867150D01*
X13831730Y-24867150D02*
X13860301Y-24867150D01*
X13860301Y-24867150D02*
X13879349Y-24876674D01*
X13955539Y-25076674D02*
X13965063Y-25067150D01*
X13965063Y-25067150D02*
X13984111Y-25038579D01*
X13984111Y-25038579D02*
X13993634Y-25019531D01*
X13993634Y-25019531D02*
X14003158Y-24990960D01*
X14003158Y-24990960D02*
X14012682Y-24943341D01*
X14012682Y-24943341D02*
X14012682Y-24905246D01*
X14012682Y-24905246D02*
X14003158Y-24857627D01*
X14003158Y-24857627D02*
X13993634Y-24829055D01*
X13993634Y-24829055D02*
X13984111Y-24810008D01*
X13984111Y-24810008D02*
X13965063Y-24781436D01*
X13965063Y-24781436D02*
X13955539Y-24771912D01*
D14*
X8950000Y-25133000D02*
X8950000Y-25213000D01*
X8910000Y-25173000D02*
X8990000Y-25173000D01*
D11*
X9288872Y-25064484D02*
X9307920Y-25064484D01*
X9307920Y-25064484D02*
X9326967Y-25074008D01*
X9326967Y-25074008D02*
X9336491Y-25083531D01*
X9336491Y-25083531D02*
X9346015Y-25102579D01*
X9346015Y-25102579D02*
X9355539Y-25140674D01*
X9355539Y-25140674D02*
X9355539Y-25188293D01*
X9355539Y-25188293D02*
X9346015Y-25226388D01*
X9346015Y-25226388D02*
X9336491Y-25245436D01*
X9336491Y-25245436D02*
X9326967Y-25254960D01*
X9326967Y-25254960D02*
X9307920Y-25264484D01*
X9307920Y-25264484D02*
X9288872Y-25264484D01*
X9288872Y-25264484D02*
X9269824Y-25254960D01*
X9269824Y-25254960D02*
X9260301Y-25245436D01*
X9260301Y-25245436D02*
X9250777Y-25226388D01*
X9250777Y-25226388D02*
X9241253Y-25188293D01*
X9241253Y-25188293D02*
X9241253Y-25140674D01*
X9241253Y-25140674D02*
X9250777Y-25102579D01*
X9250777Y-25102579D02*
X9260301Y-25083531D01*
X9260301Y-25083531D02*
X9269824Y-25074008D01*
X9269824Y-25074008D02*
X9288872Y-25064484D01*
X9441253Y-25245436D02*
X9450777Y-25254960D01*
X9450777Y-25254960D02*
X9441253Y-25264484D01*
X9441253Y-25264484D02*
X9431729Y-25254960D01*
X9431729Y-25254960D02*
X9441253Y-25245436D01*
X9441253Y-25245436D02*
X9441253Y-25264484D01*
X9565063Y-25150198D02*
X9546015Y-25140674D01*
X9546015Y-25140674D02*
X9536491Y-25131150D01*
X9536491Y-25131150D02*
X9526967Y-25112103D01*
X9526967Y-25112103D02*
X9526967Y-25102579D01*
X9526967Y-25102579D02*
X9536491Y-25083531D01*
X9536491Y-25083531D02*
X9546015Y-25074008D01*
X9546015Y-25074008D02*
X9565063Y-25064484D01*
X9565063Y-25064484D02*
X9603158Y-25064484D01*
X9603158Y-25064484D02*
X9622205Y-25074008D01*
X9622205Y-25074008D02*
X9631729Y-25083531D01*
X9631729Y-25083531D02*
X9641253Y-25102579D01*
X9641253Y-25102579D02*
X9641253Y-25112103D01*
X9641253Y-25112103D02*
X9631729Y-25131150D01*
X9631729Y-25131150D02*
X9622205Y-25140674D01*
X9622205Y-25140674D02*
X9603158Y-25150198D01*
X9603158Y-25150198D02*
X9565063Y-25150198D01*
X9565063Y-25150198D02*
X9546015Y-25159722D01*
X9546015Y-25159722D02*
X9536491Y-25169246D01*
X9536491Y-25169246D02*
X9526967Y-25188293D01*
X9526967Y-25188293D02*
X9526967Y-25226388D01*
X9526967Y-25226388D02*
X9536491Y-25245436D01*
X9536491Y-25245436D02*
X9546015Y-25254960D01*
X9546015Y-25254960D02*
X9565063Y-25264484D01*
X9565063Y-25264484D02*
X9603158Y-25264484D01*
X9603158Y-25264484D02*
X9622205Y-25254960D01*
X9622205Y-25254960D02*
X9631729Y-25245436D01*
X9631729Y-25245436D02*
X9641253Y-25226388D01*
X9641253Y-25226388D02*
X9641253Y-25188293D01*
X9641253Y-25188293D02*
X9631729Y-25169246D01*
X9631729Y-25169246D02*
X9622205Y-25159722D01*
X9622205Y-25159722D02*
X9603158Y-25150198D01*
X9765063Y-25064484D02*
X9784110Y-25064484D01*
X9784110Y-25064484D02*
X9803158Y-25074008D01*
X9803158Y-25074008D02*
X9812682Y-25083531D01*
X9812682Y-25083531D02*
X9822205Y-25102579D01*
X9822205Y-25102579D02*
X9831729Y-25140674D01*
X9831729Y-25140674D02*
X9831729Y-25188293D01*
X9831729Y-25188293D02*
X9822205Y-25226388D01*
X9822205Y-25226388D02*
X9812682Y-25245436D01*
X9812682Y-25245436D02*
X9803158Y-25254960D01*
X9803158Y-25254960D02*
X9784110Y-25264484D01*
X9784110Y-25264484D02*
X9765063Y-25264484D01*
X9765063Y-25264484D02*
X9746015Y-25254960D01*
X9746015Y-25254960D02*
X9736491Y-25245436D01*
X9736491Y-25245436D02*
X9726967Y-25226388D01*
X9726967Y-25226388D02*
X9717444Y-25188293D01*
X9717444Y-25188293D02*
X9717444Y-25140674D01*
X9717444Y-25140674D02*
X9726967Y-25102579D01*
X9726967Y-25102579D02*
X9736491Y-25083531D01*
X9736491Y-25083531D02*
X9746015Y-25074008D01*
X9746015Y-25074008D02*
X9765063Y-25064484D01*
X9955539Y-25064484D02*
X9974586Y-25064484D01*
X9974586Y-25064484D02*
X9993634Y-25074008D01*
X9993634Y-25074008D02*
X10003158Y-25083531D01*
X10003158Y-25083531D02*
X10012682Y-25102579D01*
X10012682Y-25102579D02*
X10022205Y-25140674D01*
X10022205Y-25140674D02*
X10022205Y-25188293D01*
X10022205Y-25188293D02*
X10012682Y-25226388D01*
X10012682Y-25226388D02*
X10003158Y-25245436D01*
X10003158Y-25245436D02*
X9993634Y-25254960D01*
X9993634Y-25254960D02*
X9974586Y-25264484D01*
X9974586Y-25264484D02*
X9955539Y-25264484D01*
X9955539Y-25264484D02*
X9936491Y-25254960D01*
X9936491Y-25254960D02*
X9926967Y-25245436D01*
X9926967Y-25245436D02*
X9917444Y-25226388D01*
X9917444Y-25226388D02*
X9907920Y-25188293D01*
X9907920Y-25188293D02*
X9907920Y-25140674D01*
X9907920Y-25140674D02*
X9917444Y-25102579D01*
X9917444Y-25102579D02*
X9926967Y-25083531D01*
X9926967Y-25083531D02*
X9936491Y-25074008D01*
X9936491Y-25074008D02*
X9955539Y-25064484D01*
X10107920Y-25264484D02*
X10107920Y-25131150D01*
X10107920Y-25150198D02*
X10117444Y-25140674D01*
X10117444Y-25140674D02*
X10136491Y-25131150D01*
X10136491Y-25131150D02*
X10165063Y-25131150D01*
X10165063Y-25131150D02*
X10184110Y-25140674D01*
X10184110Y-25140674D02*
X10193634Y-25159722D01*
X10193634Y-25159722D02*
X10193634Y-25264484D01*
X10193634Y-25159722D02*
X10203158Y-25140674D01*
X10203158Y-25140674D02*
X10222205Y-25131150D01*
X10222205Y-25131150D02*
X10250777Y-25131150D01*
X10250777Y-25131150D02*
X10269825Y-25140674D01*
X10269825Y-25140674D02*
X10279348Y-25159722D01*
X10279348Y-25159722D02*
X10279348Y-25264484D01*
X10374586Y-25264484D02*
X10374586Y-25131150D01*
X10374586Y-25150198D02*
X10384110Y-25140674D01*
X10384110Y-25140674D02*
X10403158Y-25131150D01*
X10403158Y-25131150D02*
X10431729Y-25131150D01*
X10431729Y-25131150D02*
X10450777Y-25140674D01*
X10450777Y-25140674D02*
X10460301Y-25159722D01*
X10460301Y-25159722D02*
X10460301Y-25264484D01*
X10460301Y-25159722D02*
X10469825Y-25140674D01*
X10469825Y-25140674D02*
X10488872Y-25131150D01*
X10488872Y-25131150D02*
X10517444Y-25131150D01*
X10517444Y-25131150D02*
X10536491Y-25140674D01*
X10536491Y-25140674D02*
X10546015Y-25159722D01*
X10546015Y-25159722D02*
X10546015Y-25264484D01*
X10936491Y-25054960D02*
X10765063Y-25312103D01*
X11193634Y-25064484D02*
X11212682Y-25064484D01*
X11212682Y-25064484D02*
X11231729Y-25074008D01*
X11231729Y-25074008D02*
X11241253Y-25083531D01*
X11241253Y-25083531D02*
X11250777Y-25102579D01*
X11250777Y-25102579D02*
X11260301Y-25140674D01*
X11260301Y-25140674D02*
X11260301Y-25188293D01*
X11260301Y-25188293D02*
X11250777Y-25226388D01*
X11250777Y-25226388D02*
X11241253Y-25245436D01*
X11241253Y-25245436D02*
X11231729Y-25254960D01*
X11231729Y-25254960D02*
X11212682Y-25264484D01*
X11212682Y-25264484D02*
X11193634Y-25264484D01*
X11193634Y-25264484D02*
X11174587Y-25254960D01*
X11174587Y-25254960D02*
X11165063Y-25245436D01*
X11165063Y-25245436D02*
X11155539Y-25226388D01*
X11155539Y-25226388D02*
X11146015Y-25188293D01*
X11146015Y-25188293D02*
X11146015Y-25140674D01*
X11146015Y-25140674D02*
X11155539Y-25102579D01*
X11155539Y-25102579D02*
X11165063Y-25083531D01*
X11165063Y-25083531D02*
X11174587Y-25074008D01*
X11174587Y-25074008D02*
X11193634Y-25064484D01*
X11346015Y-25245436D02*
X11355539Y-25254960D01*
X11355539Y-25254960D02*
X11346015Y-25264484D01*
X11346015Y-25264484D02*
X11336491Y-25254960D01*
X11336491Y-25254960D02*
X11346015Y-25245436D01*
X11346015Y-25245436D02*
X11346015Y-25264484D01*
X11479348Y-25064484D02*
X11498396Y-25064484D01*
X11498396Y-25064484D02*
X11517444Y-25074008D01*
X11517444Y-25074008D02*
X11526967Y-25083531D01*
X11526967Y-25083531D02*
X11536491Y-25102579D01*
X11536491Y-25102579D02*
X11546015Y-25140674D01*
X11546015Y-25140674D02*
X11546015Y-25188293D01*
X11546015Y-25188293D02*
X11536491Y-25226388D01*
X11536491Y-25226388D02*
X11526967Y-25245436D01*
X11526967Y-25245436D02*
X11517444Y-25254960D01*
X11517444Y-25254960D02*
X11498396Y-25264484D01*
X11498396Y-25264484D02*
X11479348Y-25264484D01*
X11479348Y-25264484D02*
X11460301Y-25254960D01*
X11460301Y-25254960D02*
X11450777Y-25245436D01*
X11450777Y-25245436D02*
X11441253Y-25226388D01*
X11441253Y-25226388D02*
X11431729Y-25188293D01*
X11431729Y-25188293D02*
X11431729Y-25140674D01*
X11431729Y-25140674D02*
X11441253Y-25102579D01*
X11441253Y-25102579D02*
X11450777Y-25083531D01*
X11450777Y-25083531D02*
X11460301Y-25074008D01*
X11460301Y-25074008D02*
X11479348Y-25064484D01*
X11612682Y-25064484D02*
X11736491Y-25064484D01*
X11736491Y-25064484D02*
X11669825Y-25140674D01*
X11669825Y-25140674D02*
X11698396Y-25140674D01*
X11698396Y-25140674D02*
X11717444Y-25150198D01*
X11717444Y-25150198D02*
X11726967Y-25159722D01*
X11726967Y-25159722D02*
X11736491Y-25178769D01*
X11736491Y-25178769D02*
X11736491Y-25226388D01*
X11736491Y-25226388D02*
X11726967Y-25245436D01*
X11726967Y-25245436D02*
X11717444Y-25254960D01*
X11717444Y-25254960D02*
X11698396Y-25264484D01*
X11698396Y-25264484D02*
X11641253Y-25264484D01*
X11641253Y-25264484D02*
X11622206Y-25254960D01*
X11622206Y-25254960D02*
X11612682Y-25245436D01*
X11926967Y-25264484D02*
X11812682Y-25264484D01*
X11869825Y-25264484D02*
X11869825Y-25064484D01*
X11869825Y-25064484D02*
X11850777Y-25093055D01*
X11850777Y-25093055D02*
X11831729Y-25112103D01*
X11831729Y-25112103D02*
X11812682Y-25121627D01*
X12107920Y-25064484D02*
X12012682Y-25064484D01*
X12012682Y-25064484D02*
X12003158Y-25159722D01*
X12003158Y-25159722D02*
X12012682Y-25150198D01*
X12012682Y-25150198D02*
X12031729Y-25140674D01*
X12031729Y-25140674D02*
X12079348Y-25140674D01*
X12079348Y-25140674D02*
X12098396Y-25150198D01*
X12098396Y-25150198D02*
X12107920Y-25159722D01*
X12107920Y-25159722D02*
X12117444Y-25178769D01*
X12117444Y-25178769D02*
X12117444Y-25226388D01*
X12117444Y-25226388D02*
X12107920Y-25245436D01*
X12107920Y-25245436D02*
X12098396Y-25254960D01*
X12098396Y-25254960D02*
X12079348Y-25264484D01*
X12079348Y-25264484D02*
X12031729Y-25264484D01*
X12031729Y-25264484D02*
X12012682Y-25254960D01*
X12012682Y-25254960D02*
X12003158Y-25245436D01*
X12193634Y-25064484D02*
X12193634Y-25102579D01*
X12269825Y-25064484D02*
X12269825Y-25102579D01*
X12565063Y-25340674D02*
X12555539Y-25331150D01*
X12555539Y-25331150D02*
X12536491Y-25302579D01*
X12536491Y-25302579D02*
X12526968Y-25283531D01*
X12526968Y-25283531D02*
X12517444Y-25254960D01*
X12517444Y-25254960D02*
X12507920Y-25207341D01*
X12507920Y-25207341D02*
X12507920Y-25169246D01*
X12507920Y-25169246D02*
X12517444Y-25121627D01*
X12517444Y-25121627D02*
X12526968Y-25093055D01*
X12526968Y-25093055D02*
X12536491Y-25074008D01*
X12536491Y-25074008D02*
X12555539Y-25045436D01*
X12555539Y-25045436D02*
X12565063Y-25035912D01*
X12726968Y-25131150D02*
X12726968Y-25264484D01*
X12679348Y-25054960D02*
X12631729Y-25197817D01*
X12631729Y-25197817D02*
X12755539Y-25197817D01*
X12984110Y-25264484D02*
X12984110Y-25064484D01*
X13069825Y-25264484D02*
X13069825Y-25159722D01*
X13069825Y-25159722D02*
X13060301Y-25140674D01*
X13060301Y-25140674D02*
X13041253Y-25131150D01*
X13041253Y-25131150D02*
X13012682Y-25131150D01*
X13012682Y-25131150D02*
X12993634Y-25140674D01*
X12993634Y-25140674D02*
X12984110Y-25150198D01*
X13193634Y-25264484D02*
X13174587Y-25254960D01*
X13174587Y-25254960D02*
X13165063Y-25245436D01*
X13165063Y-25245436D02*
X13155539Y-25226388D01*
X13155539Y-25226388D02*
X13155539Y-25169246D01*
X13155539Y-25169246D02*
X13165063Y-25150198D01*
X13165063Y-25150198D02*
X13174587Y-25140674D01*
X13174587Y-25140674D02*
X13193634Y-25131150D01*
X13193634Y-25131150D02*
X13222206Y-25131150D01*
X13222206Y-25131150D02*
X13241253Y-25140674D01*
X13241253Y-25140674D02*
X13250777Y-25150198D01*
X13250777Y-25150198D02*
X13260301Y-25169246D01*
X13260301Y-25169246D02*
X13260301Y-25226388D01*
X13260301Y-25226388D02*
X13250777Y-25245436D01*
X13250777Y-25245436D02*
X13241253Y-25254960D01*
X13241253Y-25254960D02*
X13222206Y-25264484D01*
X13222206Y-25264484D02*
X13193634Y-25264484D01*
X13374587Y-25264484D02*
X13355539Y-25254960D01*
X13355539Y-25254960D02*
X13346015Y-25235912D01*
X13346015Y-25235912D02*
X13346015Y-25064484D01*
X13526968Y-25254960D02*
X13507920Y-25264484D01*
X13507920Y-25264484D02*
X13469825Y-25264484D01*
X13469825Y-25264484D02*
X13450777Y-25254960D01*
X13450777Y-25254960D02*
X13441253Y-25235912D01*
X13441253Y-25235912D02*
X13441253Y-25159722D01*
X13441253Y-25159722D02*
X13450777Y-25140674D01*
X13450777Y-25140674D02*
X13469825Y-25131150D01*
X13469825Y-25131150D02*
X13507920Y-25131150D01*
X13507920Y-25131150D02*
X13526968Y-25140674D01*
X13526968Y-25140674D02*
X13536491Y-25159722D01*
X13536491Y-25159722D02*
X13536491Y-25178769D01*
X13536491Y-25178769D02*
X13441253Y-25197817D01*
X13612682Y-25254960D02*
X13631730Y-25264484D01*
X13631730Y-25264484D02*
X13669825Y-25264484D01*
X13669825Y-25264484D02*
X13688872Y-25254960D01*
X13688872Y-25254960D02*
X13698396Y-25235912D01*
X13698396Y-25235912D02*
X13698396Y-25226388D01*
X13698396Y-25226388D02*
X13688872Y-25207341D01*
X13688872Y-25207341D02*
X13669825Y-25197817D01*
X13669825Y-25197817D02*
X13641253Y-25197817D01*
X13641253Y-25197817D02*
X13622206Y-25188293D01*
X13622206Y-25188293D02*
X13612682Y-25169246D01*
X13612682Y-25169246D02*
X13612682Y-25159722D01*
X13612682Y-25159722D02*
X13622206Y-25140674D01*
X13622206Y-25140674D02*
X13641253Y-25131150D01*
X13641253Y-25131150D02*
X13669825Y-25131150D01*
X13669825Y-25131150D02*
X13688872Y-25140674D01*
X13765063Y-25340674D02*
X13774587Y-25331150D01*
X13774587Y-25331150D02*
X13793634Y-25302579D01*
X13793634Y-25302579D02*
X13803158Y-25283531D01*
X13803158Y-25283531D02*
X13812682Y-25254960D01*
X13812682Y-25254960D02*
X13822206Y-25207341D01*
X13822206Y-25207341D02*
X13822206Y-25169246D01*
X13822206Y-25169246D02*
X13812682Y-25121627D01*
X13812682Y-25121627D02*
X13803158Y-25093055D01*
X13803158Y-25093055D02*
X13793634Y-25074008D01*
X13793634Y-25074008D02*
X13774587Y-25045436D01*
X13774587Y-25045436D02*
X13765063Y-25035912D01*
D15*
X8976820Y-25468820D02*
X8976820Y-25405180D01*
X8913180Y-25405180D01*
X8913180Y-25468820D01*
X8976820Y-25468820D01*
D11*
X9288872Y-25328484D02*
X9307920Y-25328484D01*
X9307920Y-25328484D02*
X9326967Y-25338008D01*
X9326967Y-25338008D02*
X9336491Y-25347531D01*
X9336491Y-25347531D02*
X9346015Y-25366579D01*
X9346015Y-25366579D02*
X9355539Y-25404674D01*
X9355539Y-25404674D02*
X9355539Y-25452293D01*
X9355539Y-25452293D02*
X9346015Y-25490388D01*
X9346015Y-25490388D02*
X9336491Y-25509436D01*
X9336491Y-25509436D02*
X9326967Y-25518960D01*
X9326967Y-25518960D02*
X9307920Y-25528484D01*
X9307920Y-25528484D02*
X9288872Y-25528484D01*
X9288872Y-25528484D02*
X9269824Y-25518960D01*
X9269824Y-25518960D02*
X9260301Y-25509436D01*
X9260301Y-25509436D02*
X9250777Y-25490388D01*
X9250777Y-25490388D02*
X9241253Y-25452293D01*
X9241253Y-25452293D02*
X9241253Y-25404674D01*
X9241253Y-25404674D02*
X9250777Y-25366579D01*
X9250777Y-25366579D02*
X9260301Y-25347531D01*
X9260301Y-25347531D02*
X9269824Y-25338008D01*
X9269824Y-25338008D02*
X9288872Y-25328484D01*
X9441253Y-25509436D02*
X9450777Y-25518960D01*
X9450777Y-25518960D02*
X9441253Y-25528484D01*
X9441253Y-25528484D02*
X9431729Y-25518960D01*
X9431729Y-25518960D02*
X9441253Y-25509436D01*
X9441253Y-25509436D02*
X9441253Y-25528484D01*
X9546015Y-25528484D02*
X9584110Y-25528484D01*
X9584110Y-25528484D02*
X9603158Y-25518960D01*
X9603158Y-25518960D02*
X9612682Y-25509436D01*
X9612682Y-25509436D02*
X9631729Y-25480865D01*
X9631729Y-25480865D02*
X9641253Y-25442769D01*
X9641253Y-25442769D02*
X9641253Y-25366579D01*
X9641253Y-25366579D02*
X9631729Y-25347531D01*
X9631729Y-25347531D02*
X9622205Y-25338008D01*
X9622205Y-25338008D02*
X9603158Y-25328484D01*
X9603158Y-25328484D02*
X9565063Y-25328484D01*
X9565063Y-25328484D02*
X9546015Y-25338008D01*
X9546015Y-25338008D02*
X9536491Y-25347531D01*
X9536491Y-25347531D02*
X9526967Y-25366579D01*
X9526967Y-25366579D02*
X9526967Y-25414198D01*
X9526967Y-25414198D02*
X9536491Y-25433246D01*
X9536491Y-25433246D02*
X9546015Y-25442769D01*
X9546015Y-25442769D02*
X9565063Y-25452293D01*
X9565063Y-25452293D02*
X9603158Y-25452293D01*
X9603158Y-25452293D02*
X9622205Y-25442769D01*
X9622205Y-25442769D02*
X9631729Y-25433246D01*
X9631729Y-25433246D02*
X9641253Y-25414198D01*
X9765063Y-25328484D02*
X9784110Y-25328484D01*
X9784110Y-25328484D02*
X9803158Y-25338008D01*
X9803158Y-25338008D02*
X9812682Y-25347531D01*
X9812682Y-25347531D02*
X9822205Y-25366579D01*
X9822205Y-25366579D02*
X9831729Y-25404674D01*
X9831729Y-25404674D02*
X9831729Y-25452293D01*
X9831729Y-25452293D02*
X9822205Y-25490388D01*
X9822205Y-25490388D02*
X9812682Y-25509436D01*
X9812682Y-25509436D02*
X9803158Y-25518960D01*
X9803158Y-25518960D02*
X9784110Y-25528484D01*
X9784110Y-25528484D02*
X9765063Y-25528484D01*
X9765063Y-25528484D02*
X9746015Y-25518960D01*
X9746015Y-25518960D02*
X9736491Y-25509436D01*
X9736491Y-25509436D02*
X9726967Y-25490388D01*
X9726967Y-25490388D02*
X9717444Y-25452293D01*
X9717444Y-25452293D02*
X9717444Y-25404674D01*
X9717444Y-25404674D02*
X9726967Y-25366579D01*
X9726967Y-25366579D02*
X9736491Y-25347531D01*
X9736491Y-25347531D02*
X9746015Y-25338008D01*
X9746015Y-25338008D02*
X9765063Y-25328484D01*
X9955539Y-25328484D02*
X9974586Y-25328484D01*
X9974586Y-25328484D02*
X9993634Y-25338008D01*
X9993634Y-25338008D02*
X10003158Y-25347531D01*
X10003158Y-25347531D02*
X10012682Y-25366579D01*
X10012682Y-25366579D02*
X10022205Y-25404674D01*
X10022205Y-25404674D02*
X10022205Y-25452293D01*
X10022205Y-25452293D02*
X10012682Y-25490388D01*
X10012682Y-25490388D02*
X10003158Y-25509436D01*
X10003158Y-25509436D02*
X9993634Y-25518960D01*
X9993634Y-25518960D02*
X9974586Y-25528484D01*
X9974586Y-25528484D02*
X9955539Y-25528484D01*
X9955539Y-25528484D02*
X9936491Y-25518960D01*
X9936491Y-25518960D02*
X9926967Y-25509436D01*
X9926967Y-25509436D02*
X9917444Y-25490388D01*
X9917444Y-25490388D02*
X9907920Y-25452293D01*
X9907920Y-25452293D02*
X9907920Y-25404674D01*
X9907920Y-25404674D02*
X9917444Y-25366579D01*
X9917444Y-25366579D02*
X9926967Y-25347531D01*
X9926967Y-25347531D02*
X9936491Y-25338008D01*
X9936491Y-25338008D02*
X9955539Y-25328484D01*
X10107920Y-25528484D02*
X10107920Y-25395150D01*
X10107920Y-25414198D02*
X10117444Y-25404674D01*
X10117444Y-25404674D02*
X10136491Y-25395150D01*
X10136491Y-25395150D02*
X10165063Y-25395150D01*
X10165063Y-25395150D02*
X10184110Y-25404674D01*
X10184110Y-25404674D02*
X10193634Y-25423722D01*
X10193634Y-25423722D02*
X10193634Y-25528484D01*
X10193634Y-25423722D02*
X10203158Y-25404674D01*
X10203158Y-25404674D02*
X10222205Y-25395150D01*
X10222205Y-25395150D02*
X10250777Y-25395150D01*
X10250777Y-25395150D02*
X10269825Y-25404674D01*
X10269825Y-25404674D02*
X10279348Y-25423722D01*
X10279348Y-25423722D02*
X10279348Y-25528484D01*
X10374586Y-25528484D02*
X10374586Y-25395150D01*
X10374586Y-25414198D02*
X10384110Y-25404674D01*
X10384110Y-25404674D02*
X10403158Y-25395150D01*
X10403158Y-25395150D02*
X10431729Y-25395150D01*
X10431729Y-25395150D02*
X10450777Y-25404674D01*
X10450777Y-25404674D02*
X10460301Y-25423722D01*
X10460301Y-25423722D02*
X10460301Y-25528484D01*
X10460301Y-25423722D02*
X10469825Y-25404674D01*
X10469825Y-25404674D02*
X10488872Y-25395150D01*
X10488872Y-25395150D02*
X10517444Y-25395150D01*
X10517444Y-25395150D02*
X10536491Y-25404674D01*
X10536491Y-25404674D02*
X10546015Y-25423722D01*
X10546015Y-25423722D02*
X10546015Y-25528484D01*
X10936491Y-25318960D02*
X10765063Y-25576103D01*
X11193634Y-25328484D02*
X11212682Y-25328484D01*
X11212682Y-25328484D02*
X11231729Y-25338008D01*
X11231729Y-25338008D02*
X11241253Y-25347531D01*
X11241253Y-25347531D02*
X11250777Y-25366579D01*
X11250777Y-25366579D02*
X11260301Y-25404674D01*
X11260301Y-25404674D02*
X11260301Y-25452293D01*
X11260301Y-25452293D02*
X11250777Y-25490388D01*
X11250777Y-25490388D02*
X11241253Y-25509436D01*
X11241253Y-25509436D02*
X11231729Y-25518960D01*
X11231729Y-25518960D02*
X11212682Y-25528484D01*
X11212682Y-25528484D02*
X11193634Y-25528484D01*
X11193634Y-25528484D02*
X11174587Y-25518960D01*
X11174587Y-25518960D02*
X11165063Y-25509436D01*
X11165063Y-25509436D02*
X11155539Y-25490388D01*
X11155539Y-25490388D02*
X11146015Y-25452293D01*
X11146015Y-25452293D02*
X11146015Y-25404674D01*
X11146015Y-25404674D02*
X11155539Y-25366579D01*
X11155539Y-25366579D02*
X11165063Y-25347531D01*
X11165063Y-25347531D02*
X11174587Y-25338008D01*
X11174587Y-25338008D02*
X11193634Y-25328484D01*
X11346015Y-25509436D02*
X11355539Y-25518960D01*
X11355539Y-25518960D02*
X11346015Y-25528484D01*
X11346015Y-25528484D02*
X11336491Y-25518960D01*
X11336491Y-25518960D02*
X11346015Y-25509436D01*
X11346015Y-25509436D02*
X11346015Y-25528484D01*
X11479348Y-25328484D02*
X11498396Y-25328484D01*
X11498396Y-25328484D02*
X11517444Y-25338008D01*
X11517444Y-25338008D02*
X11526967Y-25347531D01*
X11526967Y-25347531D02*
X11536491Y-25366579D01*
X11536491Y-25366579D02*
X11546015Y-25404674D01*
X11546015Y-25404674D02*
X11546015Y-25452293D01*
X11546015Y-25452293D02*
X11536491Y-25490388D01*
X11536491Y-25490388D02*
X11526967Y-25509436D01*
X11526967Y-25509436D02*
X11517444Y-25518960D01*
X11517444Y-25518960D02*
X11498396Y-25528484D01*
X11498396Y-25528484D02*
X11479348Y-25528484D01*
X11479348Y-25528484D02*
X11460301Y-25518960D01*
X11460301Y-25518960D02*
X11450777Y-25509436D01*
X11450777Y-25509436D02*
X11441253Y-25490388D01*
X11441253Y-25490388D02*
X11431729Y-25452293D01*
X11431729Y-25452293D02*
X11431729Y-25404674D01*
X11431729Y-25404674D02*
X11441253Y-25366579D01*
X11441253Y-25366579D02*
X11450777Y-25347531D01*
X11450777Y-25347531D02*
X11460301Y-25338008D01*
X11460301Y-25338008D02*
X11479348Y-25328484D01*
X11612682Y-25328484D02*
X11736491Y-25328484D01*
X11736491Y-25328484D02*
X11669825Y-25404674D01*
X11669825Y-25404674D02*
X11698396Y-25404674D01*
X11698396Y-25404674D02*
X11717444Y-25414198D01*
X11717444Y-25414198D02*
X11726967Y-25423722D01*
X11726967Y-25423722D02*
X11736491Y-25442769D01*
X11736491Y-25442769D02*
X11736491Y-25490388D01*
X11736491Y-25490388D02*
X11726967Y-25509436D01*
X11726967Y-25509436D02*
X11717444Y-25518960D01*
X11717444Y-25518960D02*
X11698396Y-25528484D01*
X11698396Y-25528484D02*
X11641253Y-25528484D01*
X11641253Y-25528484D02*
X11622206Y-25518960D01*
X11622206Y-25518960D02*
X11612682Y-25509436D01*
X11917444Y-25328484D02*
X11822206Y-25328484D01*
X11822206Y-25328484D02*
X11812682Y-25423722D01*
X11812682Y-25423722D02*
X11822206Y-25414198D01*
X11822206Y-25414198D02*
X11841253Y-25404674D01*
X11841253Y-25404674D02*
X11888872Y-25404674D01*
X11888872Y-25404674D02*
X11907920Y-25414198D01*
X11907920Y-25414198D02*
X11917444Y-25423722D01*
X11917444Y-25423722D02*
X11926967Y-25442769D01*
X11926967Y-25442769D02*
X11926967Y-25490388D01*
X11926967Y-25490388D02*
X11917444Y-25509436D01*
X11917444Y-25509436D02*
X11907920Y-25518960D01*
X11907920Y-25518960D02*
X11888872Y-25528484D01*
X11888872Y-25528484D02*
X11841253Y-25528484D01*
X11841253Y-25528484D02*
X11822206Y-25518960D01*
X11822206Y-25518960D02*
X11812682Y-25509436D01*
X12098396Y-25395150D02*
X12098396Y-25528484D01*
X12050777Y-25318960D02*
X12003158Y-25461817D01*
X12003158Y-25461817D02*
X12126967Y-25461817D01*
X12193634Y-25328484D02*
X12193634Y-25366579D01*
X12269825Y-25328484D02*
X12269825Y-25366579D01*
X12565063Y-25604674D02*
X12555539Y-25595150D01*
X12555539Y-25595150D02*
X12536491Y-25566579D01*
X12536491Y-25566579D02*
X12526968Y-25547531D01*
X12526968Y-25547531D02*
X12517444Y-25518960D01*
X12517444Y-25518960D02*
X12507920Y-25471341D01*
X12507920Y-25471341D02*
X12507920Y-25433246D01*
X12507920Y-25433246D02*
X12517444Y-25385627D01*
X12517444Y-25385627D02*
X12526968Y-25357055D01*
X12526968Y-25357055D02*
X12536491Y-25338008D01*
X12536491Y-25338008D02*
X12555539Y-25309436D01*
X12555539Y-25309436D02*
X12565063Y-25299912D01*
X12746015Y-25528484D02*
X12631729Y-25528484D01*
X12688872Y-25528484D02*
X12688872Y-25328484D01*
X12688872Y-25328484D02*
X12669825Y-25357055D01*
X12669825Y-25357055D02*
X12650777Y-25376103D01*
X12650777Y-25376103D02*
X12631729Y-25385627D01*
X12822206Y-25347531D02*
X12831729Y-25338008D01*
X12831729Y-25338008D02*
X12850777Y-25328484D01*
X12850777Y-25328484D02*
X12898396Y-25328484D01*
X12898396Y-25328484D02*
X12917444Y-25338008D01*
X12917444Y-25338008D02*
X12926968Y-25347531D01*
X12926968Y-25347531D02*
X12936491Y-25366579D01*
X12936491Y-25366579D02*
X12936491Y-25385627D01*
X12936491Y-25385627D02*
X12926968Y-25414198D01*
X12926968Y-25414198D02*
X12812682Y-25528484D01*
X12812682Y-25528484D02*
X12936491Y-25528484D01*
X13174587Y-25528484D02*
X13174587Y-25328484D01*
X13260301Y-25528484D02*
X13260301Y-25423722D01*
X13260301Y-25423722D02*
X13250777Y-25404674D01*
X13250777Y-25404674D02*
X13231730Y-25395150D01*
X13231730Y-25395150D02*
X13203158Y-25395150D01*
X13203158Y-25395150D02*
X13184110Y-25404674D01*
X13184110Y-25404674D02*
X13174587Y-25414198D01*
X13384110Y-25528484D02*
X13365063Y-25518960D01*
X13365063Y-25518960D02*
X13355539Y-25509436D01*
X13355539Y-25509436D02*
X13346015Y-25490388D01*
X13346015Y-25490388D02*
X13346015Y-25433246D01*
X13346015Y-25433246D02*
X13355539Y-25414198D01*
X13355539Y-25414198D02*
X13365063Y-25404674D01*
X13365063Y-25404674D02*
X13384110Y-25395150D01*
X13384110Y-25395150D02*
X13412682Y-25395150D01*
X13412682Y-25395150D02*
X13431730Y-25404674D01*
X13431730Y-25404674D02*
X13441253Y-25414198D01*
X13441253Y-25414198D02*
X13450777Y-25433246D01*
X13450777Y-25433246D02*
X13450777Y-25490388D01*
X13450777Y-25490388D02*
X13441253Y-25509436D01*
X13441253Y-25509436D02*
X13431730Y-25518960D01*
X13431730Y-25518960D02*
X13412682Y-25528484D01*
X13412682Y-25528484D02*
X13384110Y-25528484D01*
X13565063Y-25528484D02*
X13546015Y-25518960D01*
X13546015Y-25518960D02*
X13536491Y-25499912D01*
X13536491Y-25499912D02*
X13536491Y-25328484D01*
X13717444Y-25518960D02*
X13698396Y-25528484D01*
X13698396Y-25528484D02*
X13660301Y-25528484D01*
X13660301Y-25528484D02*
X13641253Y-25518960D01*
X13641253Y-25518960D02*
X13631730Y-25499912D01*
X13631730Y-25499912D02*
X13631730Y-25423722D01*
X13631730Y-25423722D02*
X13641253Y-25404674D01*
X13641253Y-25404674D02*
X13660301Y-25395150D01*
X13660301Y-25395150D02*
X13698396Y-25395150D01*
X13698396Y-25395150D02*
X13717444Y-25404674D01*
X13717444Y-25404674D02*
X13726968Y-25423722D01*
X13726968Y-25423722D02*
X13726968Y-25442769D01*
X13726968Y-25442769D02*
X13631730Y-25461817D01*
X13803158Y-25518960D02*
X13822206Y-25528484D01*
X13822206Y-25528484D02*
X13860301Y-25528484D01*
X13860301Y-25528484D02*
X13879349Y-25518960D01*
X13879349Y-25518960D02*
X13888872Y-25499912D01*
X13888872Y-25499912D02*
X13888872Y-25490388D01*
X13888872Y-25490388D02*
X13879349Y-25471341D01*
X13879349Y-25471341D02*
X13860301Y-25461817D01*
X13860301Y-25461817D02*
X13831730Y-25461817D01*
X13831730Y-25461817D02*
X13812682Y-25452293D01*
X13812682Y-25452293D02*
X13803158Y-25433246D01*
X13803158Y-25433246D02*
X13803158Y-25423722D01*
X13803158Y-25423722D02*
X13812682Y-25404674D01*
X13812682Y-25404674D02*
X13831730Y-25395150D01*
X13831730Y-25395150D02*
X13860301Y-25395150D01*
X13860301Y-25395150D02*
X13879349Y-25404674D01*
X13955539Y-25604674D02*
X13965063Y-25595150D01*
X13965063Y-25595150D02*
X13984111Y-25566579D01*
X13984111Y-25566579D02*
X13993634Y-25547531D01*
X13993634Y-25547531D02*
X14003158Y-25518960D01*
X14003158Y-25518960D02*
X14012682Y-25471341D01*
X14012682Y-25471341D02*
X14012682Y-25433246D01*
X14012682Y-25433246D02*
X14003158Y-25385627D01*
X14003158Y-25385627D02*
X13993634Y-25357055D01*
X13993634Y-25357055D02*
X13984111Y-25338008D01*
X13984111Y-25338008D02*
X13965063Y-25309436D01*
X13965063Y-25309436D02*
X13955539Y-25299912D01*
D10*
X8940000Y-25751000D02*
X8990000Y-25701000D01*
X8940000Y-25651000D01*
X8890000Y-25701000D01*
X8940000Y-25751000D01*
D11*
X9355539Y-25792484D02*
X9241253Y-25792484D01*
X9298396Y-25792484D02*
X9298396Y-25592484D01*
X9298396Y-25592484D02*
X9279348Y-25621055D01*
X9279348Y-25621055D02*
X9260301Y-25640103D01*
X9260301Y-25640103D02*
X9241253Y-25649627D01*
X9441253Y-25773436D02*
X9450777Y-25782960D01*
X9450777Y-25782960D02*
X9441253Y-25792484D01*
X9441253Y-25792484D02*
X9431729Y-25782960D01*
X9431729Y-25782960D02*
X9441253Y-25773436D01*
X9441253Y-25773436D02*
X9441253Y-25792484D01*
X9574586Y-25592484D02*
X9593634Y-25592484D01*
X9593634Y-25592484D02*
X9612682Y-25602008D01*
X9612682Y-25602008D02*
X9622205Y-25611531D01*
X9622205Y-25611531D02*
X9631729Y-25630579D01*
X9631729Y-25630579D02*
X9641253Y-25668674D01*
X9641253Y-25668674D02*
X9641253Y-25716293D01*
X9641253Y-25716293D02*
X9631729Y-25754388D01*
X9631729Y-25754388D02*
X9622205Y-25773436D01*
X9622205Y-25773436D02*
X9612682Y-25782960D01*
X9612682Y-25782960D02*
X9593634Y-25792484D01*
X9593634Y-25792484D02*
X9574586Y-25792484D01*
X9574586Y-25792484D02*
X9555539Y-25782960D01*
X9555539Y-25782960D02*
X9546015Y-25773436D01*
X9546015Y-25773436D02*
X9536491Y-25754388D01*
X9536491Y-25754388D02*
X9526967Y-25716293D01*
X9526967Y-25716293D02*
X9526967Y-25668674D01*
X9526967Y-25668674D02*
X9536491Y-25630579D01*
X9536491Y-25630579D02*
X9546015Y-25611531D01*
X9546015Y-25611531D02*
X9555539Y-25602008D01*
X9555539Y-25602008D02*
X9574586Y-25592484D01*
X9765063Y-25592484D02*
X9784110Y-25592484D01*
X9784110Y-25592484D02*
X9803158Y-25602008D01*
X9803158Y-25602008D02*
X9812682Y-25611531D01*
X9812682Y-25611531D02*
X9822205Y-25630579D01*
X9822205Y-25630579D02*
X9831729Y-25668674D01*
X9831729Y-25668674D02*
X9831729Y-25716293D01*
X9831729Y-25716293D02*
X9822205Y-25754388D01*
X9822205Y-25754388D02*
X9812682Y-25773436D01*
X9812682Y-25773436D02*
X9803158Y-25782960D01*
X9803158Y-25782960D02*
X9784110Y-25792484D01*
X9784110Y-25792484D02*
X9765063Y-25792484D01*
X9765063Y-25792484D02*
X9746015Y-25782960D01*
X9746015Y-25782960D02*
X9736491Y-25773436D01*
X9736491Y-25773436D02*
X9726967Y-25754388D01*
X9726967Y-25754388D02*
X9717444Y-25716293D01*
X9717444Y-25716293D02*
X9717444Y-25668674D01*
X9717444Y-25668674D02*
X9726967Y-25630579D01*
X9726967Y-25630579D02*
X9736491Y-25611531D01*
X9736491Y-25611531D02*
X9746015Y-25602008D01*
X9746015Y-25602008D02*
X9765063Y-25592484D01*
X9955539Y-25592484D02*
X9974586Y-25592484D01*
X9974586Y-25592484D02*
X9993634Y-25602008D01*
X9993634Y-25602008D02*
X10003158Y-25611531D01*
X10003158Y-25611531D02*
X10012682Y-25630579D01*
X10012682Y-25630579D02*
X10022205Y-25668674D01*
X10022205Y-25668674D02*
X10022205Y-25716293D01*
X10022205Y-25716293D02*
X10012682Y-25754388D01*
X10012682Y-25754388D02*
X10003158Y-25773436D01*
X10003158Y-25773436D02*
X9993634Y-25782960D01*
X9993634Y-25782960D02*
X9974586Y-25792484D01*
X9974586Y-25792484D02*
X9955539Y-25792484D01*
X9955539Y-25792484D02*
X9936491Y-25782960D01*
X9936491Y-25782960D02*
X9926967Y-25773436D01*
X9926967Y-25773436D02*
X9917444Y-25754388D01*
X9917444Y-25754388D02*
X9907920Y-25716293D01*
X9907920Y-25716293D02*
X9907920Y-25668674D01*
X9907920Y-25668674D02*
X9917444Y-25630579D01*
X9917444Y-25630579D02*
X9926967Y-25611531D01*
X9926967Y-25611531D02*
X9936491Y-25602008D01*
X9936491Y-25602008D02*
X9955539Y-25592484D01*
X10107920Y-25792484D02*
X10107920Y-25659150D01*
X10107920Y-25678198D02*
X10117444Y-25668674D01*
X10117444Y-25668674D02*
X10136491Y-25659150D01*
X10136491Y-25659150D02*
X10165063Y-25659150D01*
X10165063Y-25659150D02*
X10184110Y-25668674D01*
X10184110Y-25668674D02*
X10193634Y-25687722D01*
X10193634Y-25687722D02*
X10193634Y-25792484D01*
X10193634Y-25687722D02*
X10203158Y-25668674D01*
X10203158Y-25668674D02*
X10222205Y-25659150D01*
X10222205Y-25659150D02*
X10250777Y-25659150D01*
X10250777Y-25659150D02*
X10269825Y-25668674D01*
X10269825Y-25668674D02*
X10279348Y-25687722D01*
X10279348Y-25687722D02*
X10279348Y-25792484D01*
X10374586Y-25792484D02*
X10374586Y-25659150D01*
X10374586Y-25678198D02*
X10384110Y-25668674D01*
X10384110Y-25668674D02*
X10403158Y-25659150D01*
X10403158Y-25659150D02*
X10431729Y-25659150D01*
X10431729Y-25659150D02*
X10450777Y-25668674D01*
X10450777Y-25668674D02*
X10460301Y-25687722D01*
X10460301Y-25687722D02*
X10460301Y-25792484D01*
X10460301Y-25687722D02*
X10469825Y-25668674D01*
X10469825Y-25668674D02*
X10488872Y-25659150D01*
X10488872Y-25659150D02*
X10517444Y-25659150D01*
X10517444Y-25659150D02*
X10536491Y-25668674D01*
X10536491Y-25668674D02*
X10546015Y-25687722D01*
X10546015Y-25687722D02*
X10546015Y-25792484D01*
X10936491Y-25582960D02*
X10765063Y-25840103D01*
X11193634Y-25592484D02*
X11212682Y-25592484D01*
X11212682Y-25592484D02*
X11231729Y-25602008D01*
X11231729Y-25602008D02*
X11241253Y-25611531D01*
X11241253Y-25611531D02*
X11250777Y-25630579D01*
X11250777Y-25630579D02*
X11260301Y-25668674D01*
X11260301Y-25668674D02*
X11260301Y-25716293D01*
X11260301Y-25716293D02*
X11250777Y-25754388D01*
X11250777Y-25754388D02*
X11241253Y-25773436D01*
X11241253Y-25773436D02*
X11231729Y-25782960D01*
X11231729Y-25782960D02*
X11212682Y-25792484D01*
X11212682Y-25792484D02*
X11193634Y-25792484D01*
X11193634Y-25792484D02*
X11174587Y-25782960D01*
X11174587Y-25782960D02*
X11165063Y-25773436D01*
X11165063Y-25773436D02*
X11155539Y-25754388D01*
X11155539Y-25754388D02*
X11146015Y-25716293D01*
X11146015Y-25716293D02*
X11146015Y-25668674D01*
X11146015Y-25668674D02*
X11155539Y-25630579D01*
X11155539Y-25630579D02*
X11165063Y-25611531D01*
X11165063Y-25611531D02*
X11174587Y-25602008D01*
X11174587Y-25602008D02*
X11193634Y-25592484D01*
X11346015Y-25773436D02*
X11355539Y-25782960D01*
X11355539Y-25782960D02*
X11346015Y-25792484D01*
X11346015Y-25792484D02*
X11336491Y-25782960D01*
X11336491Y-25782960D02*
X11346015Y-25773436D01*
X11346015Y-25773436D02*
X11346015Y-25792484D01*
X11479348Y-25592484D02*
X11498396Y-25592484D01*
X11498396Y-25592484D02*
X11517444Y-25602008D01*
X11517444Y-25602008D02*
X11526967Y-25611531D01*
X11526967Y-25611531D02*
X11536491Y-25630579D01*
X11536491Y-25630579D02*
X11546015Y-25668674D01*
X11546015Y-25668674D02*
X11546015Y-25716293D01*
X11546015Y-25716293D02*
X11536491Y-25754388D01*
X11536491Y-25754388D02*
X11526967Y-25773436D01*
X11526967Y-25773436D02*
X11517444Y-25782960D01*
X11517444Y-25782960D02*
X11498396Y-25792484D01*
X11498396Y-25792484D02*
X11479348Y-25792484D01*
X11479348Y-25792484D02*
X11460301Y-25782960D01*
X11460301Y-25782960D02*
X11450777Y-25773436D01*
X11450777Y-25773436D02*
X11441253Y-25754388D01*
X11441253Y-25754388D02*
X11431729Y-25716293D01*
X11431729Y-25716293D02*
X11431729Y-25668674D01*
X11431729Y-25668674D02*
X11441253Y-25630579D01*
X11441253Y-25630579D02*
X11450777Y-25611531D01*
X11450777Y-25611531D02*
X11460301Y-25602008D01*
X11460301Y-25602008D02*
X11479348Y-25592484D01*
X11612682Y-25592484D02*
X11736491Y-25592484D01*
X11736491Y-25592484D02*
X11669825Y-25668674D01*
X11669825Y-25668674D02*
X11698396Y-25668674D01*
X11698396Y-25668674D02*
X11717444Y-25678198D01*
X11717444Y-25678198D02*
X11726967Y-25687722D01*
X11726967Y-25687722D02*
X11736491Y-25706769D01*
X11736491Y-25706769D02*
X11736491Y-25754388D01*
X11736491Y-25754388D02*
X11726967Y-25773436D01*
X11726967Y-25773436D02*
X11717444Y-25782960D01*
X11717444Y-25782960D02*
X11698396Y-25792484D01*
X11698396Y-25792484D02*
X11641253Y-25792484D01*
X11641253Y-25792484D02*
X11622206Y-25782960D01*
X11622206Y-25782960D02*
X11612682Y-25773436D01*
X11831729Y-25792484D02*
X11869825Y-25792484D01*
X11869825Y-25792484D02*
X11888872Y-25782960D01*
X11888872Y-25782960D02*
X11898396Y-25773436D01*
X11898396Y-25773436D02*
X11917444Y-25744865D01*
X11917444Y-25744865D02*
X11926967Y-25706769D01*
X11926967Y-25706769D02*
X11926967Y-25630579D01*
X11926967Y-25630579D02*
X11917444Y-25611531D01*
X11917444Y-25611531D02*
X11907920Y-25602008D01*
X11907920Y-25602008D02*
X11888872Y-25592484D01*
X11888872Y-25592484D02*
X11850777Y-25592484D01*
X11850777Y-25592484D02*
X11831729Y-25602008D01*
X11831729Y-25602008D02*
X11822206Y-25611531D01*
X11822206Y-25611531D02*
X11812682Y-25630579D01*
X11812682Y-25630579D02*
X11812682Y-25678198D01*
X11812682Y-25678198D02*
X11822206Y-25697246D01*
X11822206Y-25697246D02*
X11831729Y-25706769D01*
X11831729Y-25706769D02*
X11850777Y-25716293D01*
X11850777Y-25716293D02*
X11888872Y-25716293D01*
X11888872Y-25716293D02*
X11907920Y-25706769D01*
X11907920Y-25706769D02*
X11917444Y-25697246D01*
X11917444Y-25697246D02*
X11926967Y-25678198D01*
X12098396Y-25659150D02*
X12098396Y-25792484D01*
X12050777Y-25582960D02*
X12003158Y-25725817D01*
X12003158Y-25725817D02*
X12126967Y-25725817D01*
X12193634Y-25592484D02*
X12193634Y-25630579D01*
X12269825Y-25592484D02*
X12269825Y-25630579D01*
X12565063Y-25868674D02*
X12555539Y-25859150D01*
X12555539Y-25859150D02*
X12536491Y-25830579D01*
X12536491Y-25830579D02*
X12526968Y-25811531D01*
X12526968Y-25811531D02*
X12517444Y-25782960D01*
X12517444Y-25782960D02*
X12507920Y-25735341D01*
X12507920Y-25735341D02*
X12507920Y-25697246D01*
X12507920Y-25697246D02*
X12517444Y-25649627D01*
X12517444Y-25649627D02*
X12526968Y-25621055D01*
X12526968Y-25621055D02*
X12536491Y-25602008D01*
X12536491Y-25602008D02*
X12555539Y-25573436D01*
X12555539Y-25573436D02*
X12565063Y-25563912D01*
X12631729Y-25611531D02*
X12641253Y-25602008D01*
X12641253Y-25602008D02*
X12660301Y-25592484D01*
X12660301Y-25592484D02*
X12707920Y-25592484D01*
X12707920Y-25592484D02*
X12726968Y-25602008D01*
X12726968Y-25602008D02*
X12736491Y-25611531D01*
X12736491Y-25611531D02*
X12746015Y-25630579D01*
X12746015Y-25630579D02*
X12746015Y-25649627D01*
X12746015Y-25649627D02*
X12736491Y-25678198D01*
X12736491Y-25678198D02*
X12622206Y-25792484D01*
X12622206Y-25792484D02*
X12746015Y-25792484D01*
X12984110Y-25792484D02*
X12984110Y-25592484D01*
X13069825Y-25792484D02*
X13069825Y-25687722D01*
X13069825Y-25687722D02*
X13060301Y-25668674D01*
X13060301Y-25668674D02*
X13041253Y-25659150D01*
X13041253Y-25659150D02*
X13012682Y-25659150D01*
X13012682Y-25659150D02*
X12993634Y-25668674D01*
X12993634Y-25668674D02*
X12984110Y-25678198D01*
X13193634Y-25792484D02*
X13174587Y-25782960D01*
X13174587Y-25782960D02*
X13165063Y-25773436D01*
X13165063Y-25773436D02*
X13155539Y-25754388D01*
X13155539Y-25754388D02*
X13155539Y-25697246D01*
X13155539Y-25697246D02*
X13165063Y-25678198D01*
X13165063Y-25678198D02*
X13174587Y-25668674D01*
X13174587Y-25668674D02*
X13193634Y-25659150D01*
X13193634Y-25659150D02*
X13222206Y-25659150D01*
X13222206Y-25659150D02*
X13241253Y-25668674D01*
X13241253Y-25668674D02*
X13250777Y-25678198D01*
X13250777Y-25678198D02*
X13260301Y-25697246D01*
X13260301Y-25697246D02*
X13260301Y-25754388D01*
X13260301Y-25754388D02*
X13250777Y-25773436D01*
X13250777Y-25773436D02*
X13241253Y-25782960D01*
X13241253Y-25782960D02*
X13222206Y-25792484D01*
X13222206Y-25792484D02*
X13193634Y-25792484D01*
X13374587Y-25792484D02*
X13355539Y-25782960D01*
X13355539Y-25782960D02*
X13346015Y-25763912D01*
X13346015Y-25763912D02*
X13346015Y-25592484D01*
X13526968Y-25782960D02*
X13507920Y-25792484D01*
X13507920Y-25792484D02*
X13469825Y-25792484D01*
X13469825Y-25792484D02*
X13450777Y-25782960D01*
X13450777Y-25782960D02*
X13441253Y-25763912D01*
X13441253Y-25763912D02*
X13441253Y-25687722D01*
X13441253Y-25687722D02*
X13450777Y-25668674D01*
X13450777Y-25668674D02*
X13469825Y-25659150D01*
X13469825Y-25659150D02*
X13507920Y-25659150D01*
X13507920Y-25659150D02*
X13526968Y-25668674D01*
X13526968Y-25668674D02*
X13536491Y-25687722D01*
X13536491Y-25687722D02*
X13536491Y-25706769D01*
X13536491Y-25706769D02*
X13441253Y-25725817D01*
X13612682Y-25782960D02*
X13631730Y-25792484D01*
X13631730Y-25792484D02*
X13669825Y-25792484D01*
X13669825Y-25792484D02*
X13688872Y-25782960D01*
X13688872Y-25782960D02*
X13698396Y-25763912D01*
X13698396Y-25763912D02*
X13698396Y-25754388D01*
X13698396Y-25754388D02*
X13688872Y-25735341D01*
X13688872Y-25735341D02*
X13669825Y-25725817D01*
X13669825Y-25725817D02*
X13641253Y-25725817D01*
X13641253Y-25725817D02*
X13622206Y-25716293D01*
X13622206Y-25716293D02*
X13612682Y-25697246D01*
X13612682Y-25697246D02*
X13612682Y-25687722D01*
X13612682Y-25687722D02*
X13622206Y-25668674D01*
X13622206Y-25668674D02*
X13641253Y-25659150D01*
X13641253Y-25659150D02*
X13669825Y-25659150D01*
X13669825Y-25659150D02*
X13688872Y-25668674D01*
X13765063Y-25868674D02*
X13774587Y-25859150D01*
X13774587Y-25859150D02*
X13793634Y-25830579D01*
X13793634Y-25830579D02*
X13803158Y-25811531D01*
X13803158Y-25811531D02*
X13812682Y-25782960D01*
X13812682Y-25782960D02*
X13822206Y-25735341D01*
X13822206Y-25735341D02*
X13822206Y-25697246D01*
X13822206Y-25697246D02*
X13812682Y-25649627D01*
X13812682Y-25649627D02*
X13803158Y-25621055D01*
X13803158Y-25621055D02*
X13793634Y-25602008D01*
X13793634Y-25602008D02*
X13774587Y-25573436D01*
X13774587Y-25573436D02*
X13765063Y-25563912D01*
D10*
X8890000Y-25915000D02*
X8990000Y-26015000D01*
X8990000Y-25915000D02*
X8890000Y-26015000D01*
X8990000Y-25965000D02*
G75*
G03*
X8990000Y-25965000I-50000J0D01*
G01*
D11*
X9355539Y-26056484D02*
X9241253Y-26056484D01*
X9298396Y-26056484D02*
X9298396Y-25856484D01*
X9298396Y-25856484D02*
X9279348Y-25885055D01*
X9279348Y-25885055D02*
X9260301Y-25904103D01*
X9260301Y-25904103D02*
X9241253Y-25913627D01*
X9441253Y-26037436D02*
X9450777Y-26046960D01*
X9450777Y-26046960D02*
X9441253Y-26056484D01*
X9441253Y-26056484D02*
X9431729Y-26046960D01*
X9431729Y-26046960D02*
X9441253Y-26037436D01*
X9441253Y-26037436D02*
X9441253Y-26056484D01*
X9574586Y-25856484D02*
X9593634Y-25856484D01*
X9593634Y-25856484D02*
X9612682Y-25866008D01*
X9612682Y-25866008D02*
X9622205Y-25875531D01*
X9622205Y-25875531D02*
X9631729Y-25894579D01*
X9631729Y-25894579D02*
X9641253Y-25932674D01*
X9641253Y-25932674D02*
X9641253Y-25980293D01*
X9641253Y-25980293D02*
X9631729Y-26018388D01*
X9631729Y-26018388D02*
X9622205Y-26037436D01*
X9622205Y-26037436D02*
X9612682Y-26046960D01*
X9612682Y-26046960D02*
X9593634Y-26056484D01*
X9593634Y-26056484D02*
X9574586Y-26056484D01*
X9574586Y-26056484D02*
X9555539Y-26046960D01*
X9555539Y-26046960D02*
X9546015Y-26037436D01*
X9546015Y-26037436D02*
X9536491Y-26018388D01*
X9536491Y-26018388D02*
X9526967Y-25980293D01*
X9526967Y-25980293D02*
X9526967Y-25932674D01*
X9526967Y-25932674D02*
X9536491Y-25894579D01*
X9536491Y-25894579D02*
X9546015Y-25875531D01*
X9546015Y-25875531D02*
X9555539Y-25866008D01*
X9555539Y-25866008D02*
X9574586Y-25856484D01*
X9765063Y-25856484D02*
X9784110Y-25856484D01*
X9784110Y-25856484D02*
X9803158Y-25866008D01*
X9803158Y-25866008D02*
X9812682Y-25875531D01*
X9812682Y-25875531D02*
X9822205Y-25894579D01*
X9822205Y-25894579D02*
X9831729Y-25932674D01*
X9831729Y-25932674D02*
X9831729Y-25980293D01*
X9831729Y-25980293D02*
X9822205Y-26018388D01*
X9822205Y-26018388D02*
X9812682Y-26037436D01*
X9812682Y-26037436D02*
X9803158Y-26046960D01*
X9803158Y-26046960D02*
X9784110Y-26056484D01*
X9784110Y-26056484D02*
X9765063Y-26056484D01*
X9765063Y-26056484D02*
X9746015Y-26046960D01*
X9746015Y-26046960D02*
X9736491Y-26037436D01*
X9736491Y-26037436D02*
X9726967Y-26018388D01*
X9726967Y-26018388D02*
X9717444Y-25980293D01*
X9717444Y-25980293D02*
X9717444Y-25932674D01*
X9717444Y-25932674D02*
X9726967Y-25894579D01*
X9726967Y-25894579D02*
X9736491Y-25875531D01*
X9736491Y-25875531D02*
X9746015Y-25866008D01*
X9746015Y-25866008D02*
X9765063Y-25856484D01*
X9955539Y-25856484D02*
X9974586Y-25856484D01*
X9974586Y-25856484D02*
X9993634Y-25866008D01*
X9993634Y-25866008D02*
X10003158Y-25875531D01*
X10003158Y-25875531D02*
X10012682Y-25894579D01*
X10012682Y-25894579D02*
X10022205Y-25932674D01*
X10022205Y-25932674D02*
X10022205Y-25980293D01*
X10022205Y-25980293D02*
X10012682Y-26018388D01*
X10012682Y-26018388D02*
X10003158Y-26037436D01*
X10003158Y-26037436D02*
X9993634Y-26046960D01*
X9993634Y-26046960D02*
X9974586Y-26056484D01*
X9974586Y-26056484D02*
X9955539Y-26056484D01*
X9955539Y-26056484D02*
X9936491Y-26046960D01*
X9936491Y-26046960D02*
X9926967Y-26037436D01*
X9926967Y-26037436D02*
X9917444Y-26018388D01*
X9917444Y-26018388D02*
X9907920Y-25980293D01*
X9907920Y-25980293D02*
X9907920Y-25932674D01*
X9907920Y-25932674D02*
X9917444Y-25894579D01*
X9917444Y-25894579D02*
X9926967Y-25875531D01*
X9926967Y-25875531D02*
X9936491Y-25866008D01*
X9936491Y-25866008D02*
X9955539Y-25856484D01*
X10107920Y-26056484D02*
X10107920Y-25923150D01*
X10107920Y-25942198D02*
X10117444Y-25932674D01*
X10117444Y-25932674D02*
X10136491Y-25923150D01*
X10136491Y-25923150D02*
X10165063Y-25923150D01*
X10165063Y-25923150D02*
X10184110Y-25932674D01*
X10184110Y-25932674D02*
X10193634Y-25951722D01*
X10193634Y-25951722D02*
X10193634Y-26056484D01*
X10193634Y-25951722D02*
X10203158Y-25932674D01*
X10203158Y-25932674D02*
X10222205Y-25923150D01*
X10222205Y-25923150D02*
X10250777Y-25923150D01*
X10250777Y-25923150D02*
X10269825Y-25932674D01*
X10269825Y-25932674D02*
X10279348Y-25951722D01*
X10279348Y-25951722D02*
X10279348Y-26056484D01*
X10374586Y-26056484D02*
X10374586Y-25923150D01*
X10374586Y-25942198D02*
X10384110Y-25932674D01*
X10384110Y-25932674D02*
X10403158Y-25923150D01*
X10403158Y-25923150D02*
X10431729Y-25923150D01*
X10431729Y-25923150D02*
X10450777Y-25932674D01*
X10450777Y-25932674D02*
X10460301Y-25951722D01*
X10460301Y-25951722D02*
X10460301Y-26056484D01*
X10460301Y-25951722D02*
X10469825Y-25932674D01*
X10469825Y-25932674D02*
X10488872Y-25923150D01*
X10488872Y-25923150D02*
X10517444Y-25923150D01*
X10517444Y-25923150D02*
X10536491Y-25932674D01*
X10536491Y-25932674D02*
X10546015Y-25951722D01*
X10546015Y-25951722D02*
X10546015Y-26056484D01*
X10936491Y-25846960D02*
X10765063Y-26104103D01*
X11193634Y-25856484D02*
X11212682Y-25856484D01*
X11212682Y-25856484D02*
X11231729Y-25866008D01*
X11231729Y-25866008D02*
X11241253Y-25875531D01*
X11241253Y-25875531D02*
X11250777Y-25894579D01*
X11250777Y-25894579D02*
X11260301Y-25932674D01*
X11260301Y-25932674D02*
X11260301Y-25980293D01*
X11260301Y-25980293D02*
X11250777Y-26018388D01*
X11250777Y-26018388D02*
X11241253Y-26037436D01*
X11241253Y-26037436D02*
X11231729Y-26046960D01*
X11231729Y-26046960D02*
X11212682Y-26056484D01*
X11212682Y-26056484D02*
X11193634Y-26056484D01*
X11193634Y-26056484D02*
X11174587Y-26046960D01*
X11174587Y-26046960D02*
X11165063Y-26037436D01*
X11165063Y-26037436D02*
X11155539Y-26018388D01*
X11155539Y-26018388D02*
X11146015Y-25980293D01*
X11146015Y-25980293D02*
X11146015Y-25932674D01*
X11146015Y-25932674D02*
X11155539Y-25894579D01*
X11155539Y-25894579D02*
X11165063Y-25875531D01*
X11165063Y-25875531D02*
X11174587Y-25866008D01*
X11174587Y-25866008D02*
X11193634Y-25856484D01*
X11346015Y-26037436D02*
X11355539Y-26046960D01*
X11355539Y-26046960D02*
X11346015Y-26056484D01*
X11346015Y-26056484D02*
X11336491Y-26046960D01*
X11336491Y-26046960D02*
X11346015Y-26037436D01*
X11346015Y-26037436D02*
X11346015Y-26056484D01*
X11479348Y-25856484D02*
X11498396Y-25856484D01*
X11498396Y-25856484D02*
X11517444Y-25866008D01*
X11517444Y-25866008D02*
X11526967Y-25875531D01*
X11526967Y-25875531D02*
X11536491Y-25894579D01*
X11536491Y-25894579D02*
X11546015Y-25932674D01*
X11546015Y-25932674D02*
X11546015Y-25980293D01*
X11546015Y-25980293D02*
X11536491Y-26018388D01*
X11536491Y-26018388D02*
X11526967Y-26037436D01*
X11526967Y-26037436D02*
X11517444Y-26046960D01*
X11517444Y-26046960D02*
X11498396Y-26056484D01*
X11498396Y-26056484D02*
X11479348Y-26056484D01*
X11479348Y-26056484D02*
X11460301Y-26046960D01*
X11460301Y-26046960D02*
X11450777Y-26037436D01*
X11450777Y-26037436D02*
X11441253Y-26018388D01*
X11441253Y-26018388D02*
X11431729Y-25980293D01*
X11431729Y-25980293D02*
X11431729Y-25932674D01*
X11431729Y-25932674D02*
X11441253Y-25894579D01*
X11441253Y-25894579D02*
X11450777Y-25875531D01*
X11450777Y-25875531D02*
X11460301Y-25866008D01*
X11460301Y-25866008D02*
X11479348Y-25856484D01*
X11612682Y-25856484D02*
X11736491Y-25856484D01*
X11736491Y-25856484D02*
X11669825Y-25932674D01*
X11669825Y-25932674D02*
X11698396Y-25932674D01*
X11698396Y-25932674D02*
X11717444Y-25942198D01*
X11717444Y-25942198D02*
X11726967Y-25951722D01*
X11726967Y-25951722D02*
X11736491Y-25970769D01*
X11736491Y-25970769D02*
X11736491Y-26018388D01*
X11736491Y-26018388D02*
X11726967Y-26037436D01*
X11726967Y-26037436D02*
X11717444Y-26046960D01*
X11717444Y-26046960D02*
X11698396Y-26056484D01*
X11698396Y-26056484D02*
X11641253Y-26056484D01*
X11641253Y-26056484D02*
X11622206Y-26046960D01*
X11622206Y-26046960D02*
X11612682Y-26037436D01*
X11831729Y-26056484D02*
X11869825Y-26056484D01*
X11869825Y-26056484D02*
X11888872Y-26046960D01*
X11888872Y-26046960D02*
X11898396Y-26037436D01*
X11898396Y-26037436D02*
X11917444Y-26008865D01*
X11917444Y-26008865D02*
X11926967Y-25970769D01*
X11926967Y-25970769D02*
X11926967Y-25894579D01*
X11926967Y-25894579D02*
X11917444Y-25875531D01*
X11917444Y-25875531D02*
X11907920Y-25866008D01*
X11907920Y-25866008D02*
X11888872Y-25856484D01*
X11888872Y-25856484D02*
X11850777Y-25856484D01*
X11850777Y-25856484D02*
X11831729Y-25866008D01*
X11831729Y-25866008D02*
X11822206Y-25875531D01*
X11822206Y-25875531D02*
X11812682Y-25894579D01*
X11812682Y-25894579D02*
X11812682Y-25942198D01*
X11812682Y-25942198D02*
X11822206Y-25961246D01*
X11822206Y-25961246D02*
X11831729Y-25970769D01*
X11831729Y-25970769D02*
X11850777Y-25980293D01*
X11850777Y-25980293D02*
X11888872Y-25980293D01*
X11888872Y-25980293D02*
X11907920Y-25970769D01*
X11907920Y-25970769D02*
X11917444Y-25961246D01*
X11917444Y-25961246D02*
X11926967Y-25942198D01*
X12098396Y-25923150D02*
X12098396Y-26056484D01*
X12050777Y-25846960D02*
X12003158Y-25989817D01*
X12003158Y-25989817D02*
X12126967Y-25989817D01*
X12193634Y-25856484D02*
X12193634Y-25894579D01*
X12269825Y-25856484D02*
X12269825Y-25894579D01*
X12565063Y-26132674D02*
X12555539Y-26123150D01*
X12555539Y-26123150D02*
X12536491Y-26094579D01*
X12536491Y-26094579D02*
X12526968Y-26075531D01*
X12526968Y-26075531D02*
X12517444Y-26046960D01*
X12517444Y-26046960D02*
X12507920Y-25999341D01*
X12507920Y-25999341D02*
X12507920Y-25961246D01*
X12507920Y-25961246D02*
X12517444Y-25913627D01*
X12517444Y-25913627D02*
X12526968Y-25885055D01*
X12526968Y-25885055D02*
X12536491Y-25866008D01*
X12536491Y-25866008D02*
X12555539Y-25837436D01*
X12555539Y-25837436D02*
X12565063Y-25827912D01*
X12726968Y-25923150D02*
X12726968Y-26056484D01*
X12679348Y-25846960D02*
X12631729Y-25989817D01*
X12631729Y-25989817D02*
X12755539Y-25989817D01*
X12984110Y-26056484D02*
X12984110Y-25856484D01*
X13069825Y-26056484D02*
X13069825Y-25951722D01*
X13069825Y-25951722D02*
X13060301Y-25932674D01*
X13060301Y-25932674D02*
X13041253Y-25923150D01*
X13041253Y-25923150D02*
X13012682Y-25923150D01*
X13012682Y-25923150D02*
X12993634Y-25932674D01*
X12993634Y-25932674D02*
X12984110Y-25942198D01*
X13193634Y-26056484D02*
X13174587Y-26046960D01*
X13174587Y-26046960D02*
X13165063Y-26037436D01*
X13165063Y-26037436D02*
X13155539Y-26018388D01*
X13155539Y-26018388D02*
X13155539Y-25961246D01*
X13155539Y-25961246D02*
X13165063Y-25942198D01*
X13165063Y-25942198D02*
X13174587Y-25932674D01*
X13174587Y-25932674D02*
X13193634Y-25923150D01*
X13193634Y-25923150D02*
X13222206Y-25923150D01*
X13222206Y-25923150D02*
X13241253Y-25932674D01*
X13241253Y-25932674D02*
X13250777Y-25942198D01*
X13250777Y-25942198D02*
X13260301Y-25961246D01*
X13260301Y-25961246D02*
X13260301Y-26018388D01*
X13260301Y-26018388D02*
X13250777Y-26037436D01*
X13250777Y-26037436D02*
X13241253Y-26046960D01*
X13241253Y-26046960D02*
X13222206Y-26056484D01*
X13222206Y-26056484D02*
X13193634Y-26056484D01*
X13374587Y-26056484D02*
X13355539Y-26046960D01*
X13355539Y-26046960D02*
X13346015Y-26027912D01*
X13346015Y-26027912D02*
X13346015Y-25856484D01*
X13526968Y-26046960D02*
X13507920Y-26056484D01*
X13507920Y-26056484D02*
X13469825Y-26056484D01*
X13469825Y-26056484D02*
X13450777Y-26046960D01*
X13450777Y-26046960D02*
X13441253Y-26027912D01*
X13441253Y-26027912D02*
X13441253Y-25951722D01*
X13441253Y-25951722D02*
X13450777Y-25932674D01*
X13450777Y-25932674D02*
X13469825Y-25923150D01*
X13469825Y-25923150D02*
X13507920Y-25923150D01*
X13507920Y-25923150D02*
X13526968Y-25932674D01*
X13526968Y-25932674D02*
X13536491Y-25951722D01*
X13536491Y-25951722D02*
X13536491Y-25970769D01*
X13536491Y-25970769D02*
X13441253Y-25989817D01*
X13612682Y-26046960D02*
X13631730Y-26056484D01*
X13631730Y-26056484D02*
X13669825Y-26056484D01*
X13669825Y-26056484D02*
X13688872Y-26046960D01*
X13688872Y-26046960D02*
X13698396Y-26027912D01*
X13698396Y-26027912D02*
X13698396Y-26018388D01*
X13698396Y-26018388D02*
X13688872Y-25999341D01*
X13688872Y-25999341D02*
X13669825Y-25989817D01*
X13669825Y-25989817D02*
X13641253Y-25989817D01*
X13641253Y-25989817D02*
X13622206Y-25980293D01*
X13622206Y-25980293D02*
X13612682Y-25961246D01*
X13612682Y-25961246D02*
X13612682Y-25951722D01*
X13612682Y-25951722D02*
X13622206Y-25932674D01*
X13622206Y-25932674D02*
X13641253Y-25923150D01*
X13641253Y-25923150D02*
X13669825Y-25923150D01*
X13669825Y-25923150D02*
X13688872Y-25932674D01*
X13765063Y-26132674D02*
X13774587Y-26123150D01*
X13774587Y-26123150D02*
X13793634Y-26094579D01*
X13793634Y-26094579D02*
X13803158Y-26075531D01*
X13803158Y-26075531D02*
X13812682Y-26046960D01*
X13812682Y-26046960D02*
X13822206Y-25999341D01*
X13822206Y-25999341D02*
X13822206Y-25961246D01*
X13822206Y-25961246D02*
X13812682Y-25913627D01*
X13812682Y-25913627D02*
X13803158Y-25885055D01*
X13803158Y-25885055D02*
X13793634Y-25866008D01*
X13793634Y-25866008D02*
X13774587Y-25837436D01*
X13774587Y-25837436D02*
X13765063Y-25827912D01*
D16*
X8888400Y-26178200D02*
X8990000Y-26279800D01*
X8990000Y-26178200D02*
X8888400Y-26279800D01*
X8939200Y-26178200D02*
X8939200Y-26279800D01*
X8888400Y-26229000D02*
X8990000Y-26229000D01*
D11*
X9355539Y-26320484D02*
X9241253Y-26320484D01*
X9298396Y-26320484D02*
X9298396Y-26120484D01*
X9298396Y-26120484D02*
X9279348Y-26149055D01*
X9279348Y-26149055D02*
X9260301Y-26168103D01*
X9260301Y-26168103D02*
X9241253Y-26177627D01*
X9441253Y-26301436D02*
X9450777Y-26310960D01*
X9450777Y-26310960D02*
X9441253Y-26320484D01*
X9441253Y-26320484D02*
X9431729Y-26310960D01*
X9431729Y-26310960D02*
X9441253Y-26301436D01*
X9441253Y-26301436D02*
X9441253Y-26320484D01*
X9574586Y-26120484D02*
X9593634Y-26120484D01*
X9593634Y-26120484D02*
X9612682Y-26130008D01*
X9612682Y-26130008D02*
X9622205Y-26139531D01*
X9622205Y-26139531D02*
X9631729Y-26158579D01*
X9631729Y-26158579D02*
X9641253Y-26196674D01*
X9641253Y-26196674D02*
X9641253Y-26244293D01*
X9641253Y-26244293D02*
X9631729Y-26282388D01*
X9631729Y-26282388D02*
X9622205Y-26301436D01*
X9622205Y-26301436D02*
X9612682Y-26310960D01*
X9612682Y-26310960D02*
X9593634Y-26320484D01*
X9593634Y-26320484D02*
X9574586Y-26320484D01*
X9574586Y-26320484D02*
X9555539Y-26310960D01*
X9555539Y-26310960D02*
X9546015Y-26301436D01*
X9546015Y-26301436D02*
X9536491Y-26282388D01*
X9536491Y-26282388D02*
X9526967Y-26244293D01*
X9526967Y-26244293D02*
X9526967Y-26196674D01*
X9526967Y-26196674D02*
X9536491Y-26158579D01*
X9536491Y-26158579D02*
X9546015Y-26139531D01*
X9546015Y-26139531D02*
X9555539Y-26130008D01*
X9555539Y-26130008D02*
X9574586Y-26120484D01*
X9831729Y-26320484D02*
X9717444Y-26320484D01*
X9774586Y-26320484D02*
X9774586Y-26120484D01*
X9774586Y-26120484D02*
X9755539Y-26149055D01*
X9755539Y-26149055D02*
X9736491Y-26168103D01*
X9736491Y-26168103D02*
X9717444Y-26177627D01*
X10003158Y-26120484D02*
X9965063Y-26120484D01*
X9965063Y-26120484D02*
X9946015Y-26130008D01*
X9946015Y-26130008D02*
X9936491Y-26139531D01*
X9936491Y-26139531D02*
X9917444Y-26168103D01*
X9917444Y-26168103D02*
X9907920Y-26206198D01*
X9907920Y-26206198D02*
X9907920Y-26282388D01*
X9907920Y-26282388D02*
X9917444Y-26301436D01*
X9917444Y-26301436D02*
X9926967Y-26310960D01*
X9926967Y-26310960D02*
X9946015Y-26320484D01*
X9946015Y-26320484D02*
X9984110Y-26320484D01*
X9984110Y-26320484D02*
X10003158Y-26310960D01*
X10003158Y-26310960D02*
X10012682Y-26301436D01*
X10012682Y-26301436D02*
X10022205Y-26282388D01*
X10022205Y-26282388D02*
X10022205Y-26234769D01*
X10022205Y-26234769D02*
X10012682Y-26215722D01*
X10012682Y-26215722D02*
X10003158Y-26206198D01*
X10003158Y-26206198D02*
X9984110Y-26196674D01*
X9984110Y-26196674D02*
X9946015Y-26196674D01*
X9946015Y-26196674D02*
X9926967Y-26206198D01*
X9926967Y-26206198D02*
X9917444Y-26215722D01*
X9917444Y-26215722D02*
X9907920Y-26234769D01*
X10107920Y-26320484D02*
X10107920Y-26187150D01*
X10107920Y-26206198D02*
X10117444Y-26196674D01*
X10117444Y-26196674D02*
X10136491Y-26187150D01*
X10136491Y-26187150D02*
X10165063Y-26187150D01*
X10165063Y-26187150D02*
X10184110Y-26196674D01*
X10184110Y-26196674D02*
X10193634Y-26215722D01*
X10193634Y-26215722D02*
X10193634Y-26320484D01*
X10193634Y-26215722D02*
X10203158Y-26196674D01*
X10203158Y-26196674D02*
X10222205Y-26187150D01*
X10222205Y-26187150D02*
X10250777Y-26187150D01*
X10250777Y-26187150D02*
X10269825Y-26196674D01*
X10269825Y-26196674D02*
X10279348Y-26215722D01*
X10279348Y-26215722D02*
X10279348Y-26320484D01*
X10374586Y-26320484D02*
X10374586Y-26187150D01*
X10374586Y-26206198D02*
X10384110Y-26196674D01*
X10384110Y-26196674D02*
X10403158Y-26187150D01*
X10403158Y-26187150D02*
X10431729Y-26187150D01*
X10431729Y-26187150D02*
X10450777Y-26196674D01*
X10450777Y-26196674D02*
X10460301Y-26215722D01*
X10460301Y-26215722D02*
X10460301Y-26320484D01*
X10460301Y-26215722D02*
X10469825Y-26196674D01*
X10469825Y-26196674D02*
X10488872Y-26187150D01*
X10488872Y-26187150D02*
X10517444Y-26187150D01*
X10517444Y-26187150D02*
X10536491Y-26196674D01*
X10536491Y-26196674D02*
X10546015Y-26215722D01*
X10546015Y-26215722D02*
X10546015Y-26320484D01*
X10936491Y-26110960D02*
X10765063Y-26368103D01*
X11193634Y-26120484D02*
X11212682Y-26120484D01*
X11212682Y-26120484D02*
X11231729Y-26130008D01*
X11231729Y-26130008D02*
X11241253Y-26139531D01*
X11241253Y-26139531D02*
X11250777Y-26158579D01*
X11250777Y-26158579D02*
X11260301Y-26196674D01*
X11260301Y-26196674D02*
X11260301Y-26244293D01*
X11260301Y-26244293D02*
X11250777Y-26282388D01*
X11250777Y-26282388D02*
X11241253Y-26301436D01*
X11241253Y-26301436D02*
X11231729Y-26310960D01*
X11231729Y-26310960D02*
X11212682Y-26320484D01*
X11212682Y-26320484D02*
X11193634Y-26320484D01*
X11193634Y-26320484D02*
X11174587Y-26310960D01*
X11174587Y-26310960D02*
X11165063Y-26301436D01*
X11165063Y-26301436D02*
X11155539Y-26282388D01*
X11155539Y-26282388D02*
X11146015Y-26244293D01*
X11146015Y-26244293D02*
X11146015Y-26196674D01*
X11146015Y-26196674D02*
X11155539Y-26158579D01*
X11155539Y-26158579D02*
X11165063Y-26139531D01*
X11165063Y-26139531D02*
X11174587Y-26130008D01*
X11174587Y-26130008D02*
X11193634Y-26120484D01*
X11346015Y-26301436D02*
X11355539Y-26310960D01*
X11355539Y-26310960D02*
X11346015Y-26320484D01*
X11346015Y-26320484D02*
X11336491Y-26310960D01*
X11336491Y-26310960D02*
X11346015Y-26301436D01*
X11346015Y-26301436D02*
X11346015Y-26320484D01*
X11479348Y-26120484D02*
X11498396Y-26120484D01*
X11498396Y-26120484D02*
X11517444Y-26130008D01*
X11517444Y-26130008D02*
X11526967Y-26139531D01*
X11526967Y-26139531D02*
X11536491Y-26158579D01*
X11536491Y-26158579D02*
X11546015Y-26196674D01*
X11546015Y-26196674D02*
X11546015Y-26244293D01*
X11546015Y-26244293D02*
X11536491Y-26282388D01*
X11536491Y-26282388D02*
X11526967Y-26301436D01*
X11526967Y-26301436D02*
X11517444Y-26310960D01*
X11517444Y-26310960D02*
X11498396Y-26320484D01*
X11498396Y-26320484D02*
X11479348Y-26320484D01*
X11479348Y-26320484D02*
X11460301Y-26310960D01*
X11460301Y-26310960D02*
X11450777Y-26301436D01*
X11450777Y-26301436D02*
X11441253Y-26282388D01*
X11441253Y-26282388D02*
X11431729Y-26244293D01*
X11431729Y-26244293D02*
X11431729Y-26196674D01*
X11431729Y-26196674D02*
X11441253Y-26158579D01*
X11441253Y-26158579D02*
X11450777Y-26139531D01*
X11450777Y-26139531D02*
X11460301Y-26130008D01*
X11460301Y-26130008D02*
X11479348Y-26120484D01*
X11717444Y-26187150D02*
X11717444Y-26320484D01*
X11669825Y-26110960D02*
X11622206Y-26253817D01*
X11622206Y-26253817D02*
X11746015Y-26253817D01*
X11860301Y-26120484D02*
X11879348Y-26120484D01*
X11879348Y-26120484D02*
X11898396Y-26130008D01*
X11898396Y-26130008D02*
X11907920Y-26139531D01*
X11907920Y-26139531D02*
X11917444Y-26158579D01*
X11917444Y-26158579D02*
X11926967Y-26196674D01*
X11926967Y-26196674D02*
X11926967Y-26244293D01*
X11926967Y-26244293D02*
X11917444Y-26282388D01*
X11917444Y-26282388D02*
X11907920Y-26301436D01*
X11907920Y-26301436D02*
X11898396Y-26310960D01*
X11898396Y-26310960D02*
X11879348Y-26320484D01*
X11879348Y-26320484D02*
X11860301Y-26320484D01*
X11860301Y-26320484D02*
X11841253Y-26310960D01*
X11841253Y-26310960D02*
X11831729Y-26301436D01*
X11831729Y-26301436D02*
X11822206Y-26282388D01*
X11822206Y-26282388D02*
X11812682Y-26244293D01*
X11812682Y-26244293D02*
X11812682Y-26196674D01*
X11812682Y-26196674D02*
X11822206Y-26158579D01*
X11822206Y-26158579D02*
X11831729Y-26139531D01*
X11831729Y-26139531D02*
X11841253Y-26130008D01*
X11841253Y-26130008D02*
X11860301Y-26120484D01*
X12050777Y-26120484D02*
X12069825Y-26120484D01*
X12069825Y-26120484D02*
X12088872Y-26130008D01*
X12088872Y-26130008D02*
X12098396Y-26139531D01*
X12098396Y-26139531D02*
X12107920Y-26158579D01*
X12107920Y-26158579D02*
X12117444Y-26196674D01*
X12117444Y-26196674D02*
X12117444Y-26244293D01*
X12117444Y-26244293D02*
X12107920Y-26282388D01*
X12107920Y-26282388D02*
X12098396Y-26301436D01*
X12098396Y-26301436D02*
X12088872Y-26310960D01*
X12088872Y-26310960D02*
X12069825Y-26320484D01*
X12069825Y-26320484D02*
X12050777Y-26320484D01*
X12050777Y-26320484D02*
X12031729Y-26310960D01*
X12031729Y-26310960D02*
X12022206Y-26301436D01*
X12022206Y-26301436D02*
X12012682Y-26282388D01*
X12012682Y-26282388D02*
X12003158Y-26244293D01*
X12003158Y-26244293D02*
X12003158Y-26196674D01*
X12003158Y-26196674D02*
X12012682Y-26158579D01*
X12012682Y-26158579D02*
X12022206Y-26139531D01*
X12022206Y-26139531D02*
X12031729Y-26130008D01*
X12031729Y-26130008D02*
X12050777Y-26120484D01*
X12193634Y-26120484D02*
X12193634Y-26158579D01*
X12269825Y-26120484D02*
X12269825Y-26158579D01*
X12565063Y-26396674D02*
X12555539Y-26387150D01*
X12555539Y-26387150D02*
X12536491Y-26358579D01*
X12536491Y-26358579D02*
X12526968Y-26339531D01*
X12526968Y-26339531D02*
X12517444Y-26310960D01*
X12517444Y-26310960D02*
X12507920Y-26263341D01*
X12507920Y-26263341D02*
X12507920Y-26225246D01*
X12507920Y-26225246D02*
X12517444Y-26177627D01*
X12517444Y-26177627D02*
X12526968Y-26149055D01*
X12526968Y-26149055D02*
X12536491Y-26130008D01*
X12536491Y-26130008D02*
X12555539Y-26101436D01*
X12555539Y-26101436D02*
X12565063Y-26091912D01*
X12746015Y-26320484D02*
X12631729Y-26320484D01*
X12688872Y-26320484D02*
X12688872Y-26120484D01*
X12688872Y-26120484D02*
X12669825Y-26149055D01*
X12669825Y-26149055D02*
X12650777Y-26168103D01*
X12650777Y-26168103D02*
X12631729Y-26177627D01*
X12917444Y-26187150D02*
X12917444Y-26320484D01*
X12869825Y-26110960D02*
X12822206Y-26253817D01*
X12822206Y-26253817D02*
X12946015Y-26253817D01*
X13174587Y-26320484D02*
X13174587Y-26120484D01*
X13260301Y-26320484D02*
X13260301Y-26215722D01*
X13260301Y-26215722D02*
X13250777Y-26196674D01*
X13250777Y-26196674D02*
X13231730Y-26187150D01*
X13231730Y-26187150D02*
X13203158Y-26187150D01*
X13203158Y-26187150D02*
X13184110Y-26196674D01*
X13184110Y-26196674D02*
X13174587Y-26206198D01*
X13384110Y-26320484D02*
X13365063Y-26310960D01*
X13365063Y-26310960D02*
X13355539Y-26301436D01*
X13355539Y-26301436D02*
X13346015Y-26282388D01*
X13346015Y-26282388D02*
X13346015Y-26225246D01*
X13346015Y-26225246D02*
X13355539Y-26206198D01*
X13355539Y-26206198D02*
X13365063Y-26196674D01*
X13365063Y-26196674D02*
X13384110Y-26187150D01*
X13384110Y-26187150D02*
X13412682Y-26187150D01*
X13412682Y-26187150D02*
X13431730Y-26196674D01*
X13431730Y-26196674D02*
X13441253Y-26206198D01*
X13441253Y-26206198D02*
X13450777Y-26225246D01*
X13450777Y-26225246D02*
X13450777Y-26282388D01*
X13450777Y-26282388D02*
X13441253Y-26301436D01*
X13441253Y-26301436D02*
X13431730Y-26310960D01*
X13431730Y-26310960D02*
X13412682Y-26320484D01*
X13412682Y-26320484D02*
X13384110Y-26320484D01*
X13565063Y-26320484D02*
X13546015Y-26310960D01*
X13546015Y-26310960D02*
X13536491Y-26291912D01*
X13536491Y-26291912D02*
X13536491Y-26120484D01*
X13717444Y-26310960D02*
X13698396Y-26320484D01*
X13698396Y-26320484D02*
X13660301Y-26320484D01*
X13660301Y-26320484D02*
X13641253Y-26310960D01*
X13641253Y-26310960D02*
X13631730Y-26291912D01*
X13631730Y-26291912D02*
X13631730Y-26215722D01*
X13631730Y-26215722D02*
X13641253Y-26196674D01*
X13641253Y-26196674D02*
X13660301Y-26187150D01*
X13660301Y-26187150D02*
X13698396Y-26187150D01*
X13698396Y-26187150D02*
X13717444Y-26196674D01*
X13717444Y-26196674D02*
X13726968Y-26215722D01*
X13726968Y-26215722D02*
X13726968Y-26234769D01*
X13726968Y-26234769D02*
X13631730Y-26253817D01*
X13803158Y-26310960D02*
X13822206Y-26320484D01*
X13822206Y-26320484D02*
X13860301Y-26320484D01*
X13860301Y-26320484D02*
X13879349Y-26310960D01*
X13879349Y-26310960D02*
X13888872Y-26291912D01*
X13888872Y-26291912D02*
X13888872Y-26282388D01*
X13888872Y-26282388D02*
X13879349Y-26263341D01*
X13879349Y-26263341D02*
X13860301Y-26253817D01*
X13860301Y-26253817D02*
X13831730Y-26253817D01*
X13831730Y-26253817D02*
X13812682Y-26244293D01*
X13812682Y-26244293D02*
X13803158Y-26225246D01*
X13803158Y-26225246D02*
X13803158Y-26215722D01*
X13803158Y-26215722D02*
X13812682Y-26196674D01*
X13812682Y-26196674D02*
X13831730Y-26187150D01*
X13831730Y-26187150D02*
X13860301Y-26187150D01*
X13860301Y-26187150D02*
X13879349Y-26196674D01*
X13955539Y-26396674D02*
X13965063Y-26387150D01*
X13965063Y-26387150D02*
X13984111Y-26358579D01*
X13984111Y-26358579D02*
X13993634Y-26339531D01*
X13993634Y-26339531D02*
X14003158Y-26310960D01*
X14003158Y-26310960D02*
X14012682Y-26263341D01*
X14012682Y-26263341D02*
X14012682Y-26225246D01*
X14012682Y-26225246D02*
X14003158Y-26177627D01*
X14003158Y-26177627D02*
X13993634Y-26149055D01*
X13993634Y-26149055D02*
X13984111Y-26130008D01*
X13984111Y-26130008D02*
X13965063Y-26101436D01*
X13965063Y-26101436D02*
X13955539Y-26091912D01*
D17*
X8880780Y-26438390D02*
X8990000Y-26547610D01*
X8990000Y-26438390D02*
X8880780Y-26547610D01*
X8974006Y-26531615D02*
X8974006Y-26454384D01*
X8896775Y-26454384D01*
X8896775Y-26531615D01*
X8974006Y-26531615D01*
D11*
X9355539Y-26584484D02*
X9241253Y-26584484D01*
X9298396Y-26584484D02*
X9298396Y-26384484D01*
X9298396Y-26384484D02*
X9279348Y-26413055D01*
X9279348Y-26413055D02*
X9260301Y-26432103D01*
X9260301Y-26432103D02*
X9241253Y-26441627D01*
X9441253Y-26565436D02*
X9450777Y-26574960D01*
X9450777Y-26574960D02*
X9441253Y-26584484D01*
X9441253Y-26584484D02*
X9431729Y-26574960D01*
X9431729Y-26574960D02*
X9441253Y-26565436D01*
X9441253Y-26565436D02*
X9441253Y-26584484D01*
X9574586Y-26384484D02*
X9593634Y-26384484D01*
X9593634Y-26384484D02*
X9612682Y-26394008D01*
X9612682Y-26394008D02*
X9622205Y-26403531D01*
X9622205Y-26403531D02*
X9631729Y-26422579D01*
X9631729Y-26422579D02*
X9641253Y-26460674D01*
X9641253Y-26460674D02*
X9641253Y-26508293D01*
X9641253Y-26508293D02*
X9631729Y-26546388D01*
X9631729Y-26546388D02*
X9622205Y-26565436D01*
X9622205Y-26565436D02*
X9612682Y-26574960D01*
X9612682Y-26574960D02*
X9593634Y-26584484D01*
X9593634Y-26584484D02*
X9574586Y-26584484D01*
X9574586Y-26584484D02*
X9555539Y-26574960D01*
X9555539Y-26574960D02*
X9546015Y-26565436D01*
X9546015Y-26565436D02*
X9536491Y-26546388D01*
X9536491Y-26546388D02*
X9526967Y-26508293D01*
X9526967Y-26508293D02*
X9526967Y-26460674D01*
X9526967Y-26460674D02*
X9536491Y-26422579D01*
X9536491Y-26422579D02*
X9546015Y-26403531D01*
X9546015Y-26403531D02*
X9555539Y-26394008D01*
X9555539Y-26394008D02*
X9574586Y-26384484D01*
X9736491Y-26584484D02*
X9774586Y-26584484D01*
X9774586Y-26584484D02*
X9793634Y-26574960D01*
X9793634Y-26574960D02*
X9803158Y-26565436D01*
X9803158Y-26565436D02*
X9822205Y-26536865D01*
X9822205Y-26536865D02*
X9831729Y-26498769D01*
X9831729Y-26498769D02*
X9831729Y-26422579D01*
X9831729Y-26422579D02*
X9822205Y-26403531D01*
X9822205Y-26403531D02*
X9812682Y-26394008D01*
X9812682Y-26394008D02*
X9793634Y-26384484D01*
X9793634Y-26384484D02*
X9755539Y-26384484D01*
X9755539Y-26384484D02*
X9736491Y-26394008D01*
X9736491Y-26394008D02*
X9726967Y-26403531D01*
X9726967Y-26403531D02*
X9717444Y-26422579D01*
X9717444Y-26422579D02*
X9717444Y-26470198D01*
X9717444Y-26470198D02*
X9726967Y-26489246D01*
X9726967Y-26489246D02*
X9736491Y-26498769D01*
X9736491Y-26498769D02*
X9755539Y-26508293D01*
X9755539Y-26508293D02*
X9793634Y-26508293D01*
X9793634Y-26508293D02*
X9812682Y-26498769D01*
X9812682Y-26498769D02*
X9822205Y-26489246D01*
X9822205Y-26489246D02*
X9831729Y-26470198D01*
X9907920Y-26403531D02*
X9917444Y-26394008D01*
X9917444Y-26394008D02*
X9936491Y-26384484D01*
X9936491Y-26384484D02*
X9984110Y-26384484D01*
X9984110Y-26384484D02*
X10003158Y-26394008D01*
X10003158Y-26394008D02*
X10012682Y-26403531D01*
X10012682Y-26403531D02*
X10022205Y-26422579D01*
X10022205Y-26422579D02*
X10022205Y-26441627D01*
X10022205Y-26441627D02*
X10012682Y-26470198D01*
X10012682Y-26470198D02*
X9898396Y-26584484D01*
X9898396Y-26584484D02*
X10022205Y-26584484D01*
X10107920Y-26584484D02*
X10107920Y-26451150D01*
X10107920Y-26470198D02*
X10117444Y-26460674D01*
X10117444Y-26460674D02*
X10136491Y-26451150D01*
X10136491Y-26451150D02*
X10165063Y-26451150D01*
X10165063Y-26451150D02*
X10184110Y-26460674D01*
X10184110Y-26460674D02*
X10193634Y-26479722D01*
X10193634Y-26479722D02*
X10193634Y-26584484D01*
X10193634Y-26479722D02*
X10203158Y-26460674D01*
X10203158Y-26460674D02*
X10222205Y-26451150D01*
X10222205Y-26451150D02*
X10250777Y-26451150D01*
X10250777Y-26451150D02*
X10269825Y-26460674D01*
X10269825Y-26460674D02*
X10279348Y-26479722D01*
X10279348Y-26479722D02*
X10279348Y-26584484D01*
X10374586Y-26584484D02*
X10374586Y-26451150D01*
X10374586Y-26470198D02*
X10384110Y-26460674D01*
X10384110Y-26460674D02*
X10403158Y-26451150D01*
X10403158Y-26451150D02*
X10431729Y-26451150D01*
X10431729Y-26451150D02*
X10450777Y-26460674D01*
X10450777Y-26460674D02*
X10460301Y-26479722D01*
X10460301Y-26479722D02*
X10460301Y-26584484D01*
X10460301Y-26479722D02*
X10469825Y-26460674D01*
X10469825Y-26460674D02*
X10488872Y-26451150D01*
X10488872Y-26451150D02*
X10517444Y-26451150D01*
X10517444Y-26451150D02*
X10536491Y-26460674D01*
X10536491Y-26460674D02*
X10546015Y-26479722D01*
X10546015Y-26479722D02*
X10546015Y-26584484D01*
X10936491Y-26374960D02*
X10765063Y-26632103D01*
X11193634Y-26384484D02*
X11212682Y-26384484D01*
X11212682Y-26384484D02*
X11231729Y-26394008D01*
X11231729Y-26394008D02*
X11241253Y-26403531D01*
X11241253Y-26403531D02*
X11250777Y-26422579D01*
X11250777Y-26422579D02*
X11260301Y-26460674D01*
X11260301Y-26460674D02*
X11260301Y-26508293D01*
X11260301Y-26508293D02*
X11250777Y-26546388D01*
X11250777Y-26546388D02*
X11241253Y-26565436D01*
X11241253Y-26565436D02*
X11231729Y-26574960D01*
X11231729Y-26574960D02*
X11212682Y-26584484D01*
X11212682Y-26584484D02*
X11193634Y-26584484D01*
X11193634Y-26584484D02*
X11174587Y-26574960D01*
X11174587Y-26574960D02*
X11165063Y-26565436D01*
X11165063Y-26565436D02*
X11155539Y-26546388D01*
X11155539Y-26546388D02*
X11146015Y-26508293D01*
X11146015Y-26508293D02*
X11146015Y-26460674D01*
X11146015Y-26460674D02*
X11155539Y-26422579D01*
X11155539Y-26422579D02*
X11165063Y-26403531D01*
X11165063Y-26403531D02*
X11174587Y-26394008D01*
X11174587Y-26394008D02*
X11193634Y-26384484D01*
X11346015Y-26565436D02*
X11355539Y-26574960D01*
X11355539Y-26574960D02*
X11346015Y-26584484D01*
X11346015Y-26584484D02*
X11336491Y-26574960D01*
X11336491Y-26574960D02*
X11346015Y-26565436D01*
X11346015Y-26565436D02*
X11346015Y-26584484D01*
X11479348Y-26384484D02*
X11498396Y-26384484D01*
X11498396Y-26384484D02*
X11517444Y-26394008D01*
X11517444Y-26394008D02*
X11526967Y-26403531D01*
X11526967Y-26403531D02*
X11536491Y-26422579D01*
X11536491Y-26422579D02*
X11546015Y-26460674D01*
X11546015Y-26460674D02*
X11546015Y-26508293D01*
X11546015Y-26508293D02*
X11536491Y-26546388D01*
X11536491Y-26546388D02*
X11526967Y-26565436D01*
X11526967Y-26565436D02*
X11517444Y-26574960D01*
X11517444Y-26574960D02*
X11498396Y-26584484D01*
X11498396Y-26584484D02*
X11479348Y-26584484D01*
X11479348Y-26584484D02*
X11460301Y-26574960D01*
X11460301Y-26574960D02*
X11450777Y-26565436D01*
X11450777Y-26565436D02*
X11441253Y-26546388D01*
X11441253Y-26546388D02*
X11431729Y-26508293D01*
X11431729Y-26508293D02*
X11431729Y-26460674D01*
X11431729Y-26460674D02*
X11441253Y-26422579D01*
X11441253Y-26422579D02*
X11450777Y-26403531D01*
X11450777Y-26403531D02*
X11460301Y-26394008D01*
X11460301Y-26394008D02*
X11479348Y-26384484D01*
X11717444Y-26451150D02*
X11717444Y-26584484D01*
X11669825Y-26374960D02*
X11622206Y-26517817D01*
X11622206Y-26517817D02*
X11746015Y-26517817D01*
X11803158Y-26384484D02*
X11926967Y-26384484D01*
X11926967Y-26384484D02*
X11860301Y-26460674D01*
X11860301Y-26460674D02*
X11888872Y-26460674D01*
X11888872Y-26460674D02*
X11907920Y-26470198D01*
X11907920Y-26470198D02*
X11917444Y-26479722D01*
X11917444Y-26479722D02*
X11926967Y-26498769D01*
X11926967Y-26498769D02*
X11926967Y-26546388D01*
X11926967Y-26546388D02*
X11917444Y-26565436D01*
X11917444Y-26565436D02*
X11907920Y-26574960D01*
X11907920Y-26574960D02*
X11888872Y-26584484D01*
X11888872Y-26584484D02*
X11831729Y-26584484D01*
X11831729Y-26584484D02*
X11812682Y-26574960D01*
X11812682Y-26574960D02*
X11803158Y-26565436D01*
X12050777Y-26384484D02*
X12069825Y-26384484D01*
X12069825Y-26384484D02*
X12088872Y-26394008D01*
X12088872Y-26394008D02*
X12098396Y-26403531D01*
X12098396Y-26403531D02*
X12107920Y-26422579D01*
X12107920Y-26422579D02*
X12117444Y-26460674D01*
X12117444Y-26460674D02*
X12117444Y-26508293D01*
X12117444Y-26508293D02*
X12107920Y-26546388D01*
X12107920Y-26546388D02*
X12098396Y-26565436D01*
X12098396Y-26565436D02*
X12088872Y-26574960D01*
X12088872Y-26574960D02*
X12069825Y-26584484D01*
X12069825Y-26584484D02*
X12050777Y-26584484D01*
X12050777Y-26584484D02*
X12031729Y-26574960D01*
X12031729Y-26574960D02*
X12022206Y-26565436D01*
X12022206Y-26565436D02*
X12012682Y-26546388D01*
X12012682Y-26546388D02*
X12003158Y-26508293D01*
X12003158Y-26508293D02*
X12003158Y-26460674D01*
X12003158Y-26460674D02*
X12012682Y-26422579D01*
X12012682Y-26422579D02*
X12022206Y-26403531D01*
X12022206Y-26403531D02*
X12031729Y-26394008D01*
X12031729Y-26394008D02*
X12050777Y-26384484D01*
X12193634Y-26384484D02*
X12193634Y-26422579D01*
X12269825Y-26384484D02*
X12269825Y-26422579D01*
X12565063Y-26660674D02*
X12555539Y-26651150D01*
X12555539Y-26651150D02*
X12536491Y-26622579D01*
X12536491Y-26622579D02*
X12526968Y-26603531D01*
X12526968Y-26603531D02*
X12517444Y-26574960D01*
X12517444Y-26574960D02*
X12507920Y-26527341D01*
X12507920Y-26527341D02*
X12507920Y-26489246D01*
X12507920Y-26489246D02*
X12517444Y-26441627D01*
X12517444Y-26441627D02*
X12526968Y-26413055D01*
X12526968Y-26413055D02*
X12536491Y-26394008D01*
X12536491Y-26394008D02*
X12555539Y-26365436D01*
X12555539Y-26365436D02*
X12565063Y-26355912D01*
X12631729Y-26403531D02*
X12641253Y-26394008D01*
X12641253Y-26394008D02*
X12660301Y-26384484D01*
X12660301Y-26384484D02*
X12707920Y-26384484D01*
X12707920Y-26384484D02*
X12726968Y-26394008D01*
X12726968Y-26394008D02*
X12736491Y-26403531D01*
X12736491Y-26403531D02*
X12746015Y-26422579D01*
X12746015Y-26422579D02*
X12746015Y-26441627D01*
X12746015Y-26441627D02*
X12736491Y-26470198D01*
X12736491Y-26470198D02*
X12622206Y-26584484D01*
X12622206Y-26584484D02*
X12746015Y-26584484D01*
X12984110Y-26584484D02*
X12984110Y-26384484D01*
X13069825Y-26584484D02*
X13069825Y-26479722D01*
X13069825Y-26479722D02*
X13060301Y-26460674D01*
X13060301Y-26460674D02*
X13041253Y-26451150D01*
X13041253Y-26451150D02*
X13012682Y-26451150D01*
X13012682Y-26451150D02*
X12993634Y-26460674D01*
X12993634Y-26460674D02*
X12984110Y-26470198D01*
X13193634Y-26584484D02*
X13174587Y-26574960D01*
X13174587Y-26574960D02*
X13165063Y-26565436D01*
X13165063Y-26565436D02*
X13155539Y-26546388D01*
X13155539Y-26546388D02*
X13155539Y-26489246D01*
X13155539Y-26489246D02*
X13165063Y-26470198D01*
X13165063Y-26470198D02*
X13174587Y-26460674D01*
X13174587Y-26460674D02*
X13193634Y-26451150D01*
X13193634Y-26451150D02*
X13222206Y-26451150D01*
X13222206Y-26451150D02*
X13241253Y-26460674D01*
X13241253Y-26460674D02*
X13250777Y-26470198D01*
X13250777Y-26470198D02*
X13260301Y-26489246D01*
X13260301Y-26489246D02*
X13260301Y-26546388D01*
X13260301Y-26546388D02*
X13250777Y-26565436D01*
X13250777Y-26565436D02*
X13241253Y-26574960D01*
X13241253Y-26574960D02*
X13222206Y-26584484D01*
X13222206Y-26584484D02*
X13193634Y-26584484D01*
X13374587Y-26584484D02*
X13355539Y-26574960D01*
X13355539Y-26574960D02*
X13346015Y-26555912D01*
X13346015Y-26555912D02*
X13346015Y-26384484D01*
X13526968Y-26574960D02*
X13507920Y-26584484D01*
X13507920Y-26584484D02*
X13469825Y-26584484D01*
X13469825Y-26584484D02*
X13450777Y-26574960D01*
X13450777Y-26574960D02*
X13441253Y-26555912D01*
X13441253Y-26555912D02*
X13441253Y-26479722D01*
X13441253Y-26479722D02*
X13450777Y-26460674D01*
X13450777Y-26460674D02*
X13469825Y-26451150D01*
X13469825Y-26451150D02*
X13507920Y-26451150D01*
X13507920Y-26451150D02*
X13526968Y-26460674D01*
X13526968Y-26460674D02*
X13536491Y-26479722D01*
X13536491Y-26479722D02*
X13536491Y-26498769D01*
X13536491Y-26498769D02*
X13441253Y-26517817D01*
X13612682Y-26574960D02*
X13631730Y-26584484D01*
X13631730Y-26584484D02*
X13669825Y-26584484D01*
X13669825Y-26584484D02*
X13688872Y-26574960D01*
X13688872Y-26574960D02*
X13698396Y-26555912D01*
X13698396Y-26555912D02*
X13698396Y-26546388D01*
X13698396Y-26546388D02*
X13688872Y-26527341D01*
X13688872Y-26527341D02*
X13669825Y-26517817D01*
X13669825Y-26517817D02*
X13641253Y-26517817D01*
X13641253Y-26517817D02*
X13622206Y-26508293D01*
X13622206Y-26508293D02*
X13612682Y-26489246D01*
X13612682Y-26489246D02*
X13612682Y-26479722D01*
X13612682Y-26479722D02*
X13622206Y-26460674D01*
X13622206Y-26460674D02*
X13641253Y-26451150D01*
X13641253Y-26451150D02*
X13669825Y-26451150D01*
X13669825Y-26451150D02*
X13688872Y-26460674D01*
X13765063Y-26660674D02*
X13774587Y-26651150D01*
X13774587Y-26651150D02*
X13793634Y-26622579D01*
X13793634Y-26622579D02*
X13803158Y-26603531D01*
X13803158Y-26603531D02*
X13812682Y-26574960D01*
X13812682Y-26574960D02*
X13822206Y-26527341D01*
X13822206Y-26527341D02*
X13822206Y-26489246D01*
X13822206Y-26489246D02*
X13812682Y-26441627D01*
X13812682Y-26441627D02*
X13803158Y-26413055D01*
X13803158Y-26413055D02*
X13793634Y-26394008D01*
X13793634Y-26394008D02*
X13774587Y-26365436D01*
X13774587Y-26365436D02*
X13765063Y-26355912D01*
M02*
