%TF.GenerationSoftware,KiCad,Pcbnew,7.0.8-1.fc38*%
%TF.CreationDate,2023-12-06T13:29:32+01:00*%
%TF.ProjectId,frat,66726174-2e6b-4696-9361-645f70636258,rev?*%
%TF.SameCoordinates,Original*%
%TF.FileFunction,Soldermask,Top*%
%TF.FilePolarity,Negative*%
%FSLAX46Y46*%
G04 Gerber Fmt 4.6, Leading zero omitted, Abs format (unit mm)*
G04 Created by KiCad (PCBNEW 7.0.8-1.fc38) date 2023-12-06 13:29:32*
%MOMM*%
%LPD*%
G01*
G04 APERTURE LIST*
G04 Aperture macros list*
%AMRoundRect*
0 Rectangle with rounded corners*
0 $1 Rounding radius*
0 $2 $3 $4 $5 $6 $7 $8 $9 X,Y pos of 4 corners*
0 Add a 4 corners polygon primitive as box body*
4,1,4,$2,$3,$4,$5,$6,$7,$8,$9,$2,$3,0*
0 Add four circle primitives for the rounded corners*
1,1,$1+$1,$2,$3*
1,1,$1+$1,$4,$5*
1,1,$1+$1,$6,$7*
1,1,$1+$1,$8,$9*
0 Add four rect primitives between the rounded corners*
20,1,$1+$1,$2,$3,$4,$5,0*
20,1,$1+$1,$4,$5,$6,$7,0*
20,1,$1+$1,$6,$7,$8,$9,0*
20,1,$1+$1,$8,$9,$2,$3,0*%
%AMRotRect*
0 Rectangle, with rotation*
0 The origin of the aperture is its center*
0 $1 length*
0 $2 width*
0 $3 Rotation angle, in degrees counterclockwise*
0 Add horizontal line*
21,1,$1,$2,0,0,$3*%
G04 Aperture macros list end*
%ADD10RoundRect,0.150000X-0.200000X0.150000X-0.200000X-0.150000X0.200000X-0.150000X0.200000X0.150000X0*%
%ADD11RoundRect,0.150000X0.200000X-0.150000X0.200000X0.150000X-0.200000X0.150000X-0.200000X-0.150000X0*%
%ADD12C,1.000000*%
%ADD13C,2.000000*%
%ADD14RoundRect,0.237500X0.237500X-0.250000X0.237500X0.250000X-0.237500X0.250000X-0.237500X-0.250000X0*%
%ADD15RoundRect,0.237500X-0.250000X-0.237500X0.250000X-0.237500X0.250000X0.237500X-0.250000X0.237500X0*%
%ADD16C,1.400000*%
%ADD17R,2.510000X1.000000*%
%ADD18R,2.209800X0.762000*%
%ADD19C,0.889000*%
%ADD20R,0.812800X0.990600*%
%ADD21R,3.150400X2.611399*%
%ADD22RoundRect,0.237500X0.237500X-0.287500X0.237500X0.287500X-0.237500X0.287500X-0.237500X-0.287500X0*%
%ADD23RoundRect,0.237500X-0.300000X-0.237500X0.300000X-0.237500X0.300000X0.237500X-0.300000X0.237500X0*%
%ADD24RoundRect,0.237500X-0.237500X0.250000X-0.237500X-0.250000X0.237500X-0.250000X0.237500X0.250000X0*%
%ADD25RoundRect,0.237500X0.300000X0.237500X-0.300000X0.237500X-0.300000X-0.237500X0.300000X-0.237500X0*%
%ADD26RoundRect,0.250000X-0.337500X-0.475000X0.337500X-0.475000X0.337500X0.475000X-0.337500X0.475000X0*%
%ADD27RoundRect,0.087500X0.225000X0.087500X-0.225000X0.087500X-0.225000X-0.087500X0.225000X-0.087500X0*%
%ADD28RoundRect,0.087500X0.087500X0.225000X-0.087500X0.225000X-0.087500X-0.225000X0.087500X-0.225000X0*%
%ADD29C,1.244600*%
%ADD30RoundRect,0.237500X-0.044194X-0.380070X0.380070X0.044194X0.044194X0.380070X-0.380070X-0.044194X0*%
%ADD31RoundRect,0.237500X-0.237500X0.300000X-0.237500X-0.300000X0.237500X-0.300000X0.237500X0.300000X0*%
%ADD32R,0.965200X0.558800*%
%ADD33RotRect,1.524000X1.524000X225.000000*%
%ADD34C,1.524000*%
%ADD35R,1.800000X1.800000*%
%ADD36C,1.800000*%
%ADD37RoundRect,0.237500X0.287500X0.237500X-0.287500X0.237500X-0.287500X-0.237500X0.287500X-0.237500X0*%
%ADD38RoundRect,0.237500X-0.344715X0.008839X0.008839X-0.344715X0.344715X-0.008839X-0.008839X0.344715X0*%
%ADD39R,1.524000X1.524000*%
%ADD40RotRect,1.800000X1.800000X315.000000*%
%ADD41RoundRect,0.100000X0.100000X-0.637500X0.100000X0.637500X-0.100000X0.637500X-0.100000X-0.637500X0*%
%ADD42RoundRect,0.237500X0.250000X0.237500X-0.250000X0.237500X-0.250000X-0.237500X0.250000X-0.237500X0*%
%ADD43R,0.762000X2.794000*%
%ADD44RoundRect,0.250000X-0.475000X0.337500X-0.475000X-0.337500X0.475000X-0.337500X0.475000X0.337500X0*%
%ADD45R,1.560000X0.650000*%
%ADD46C,0.650000*%
%ADD47RoundRect,0.150000X-0.150000X-0.425000X0.150000X-0.425000X0.150000X0.425000X-0.150000X0.425000X0*%
%ADD48RoundRect,0.075000X-0.075000X-0.500000X0.075000X-0.500000X0.075000X0.500000X-0.075000X0.500000X0*%
%ADD49RoundRect,0.250000X-0.840000X-0.750000X0.840000X-0.750000X0.840000X0.750000X-0.840000X0.750000X0*%
%ADD50RoundRect,0.237500X0.044194X0.380070X-0.380070X-0.044194X-0.044194X-0.380070X0.380070X0.044194X0*%
%ADD51RotRect,1.800000X1.800000X45.000000*%
%ADD52RoundRect,0.250000X-0.300000X0.300000X-0.300000X-0.300000X0.300000X-0.300000X0.300000X0.300000X0*%
%ADD53RotRect,1.524000X1.524000X135.000000*%
%ADD54R,0.700000X0.340000*%
%ADD55R,0.990600X0.711200*%
%ADD56RoundRect,0.237500X0.380070X-0.044194X-0.044194X0.380070X-0.380070X0.044194X0.044194X-0.380070X0*%
%ADD57RoundRect,0.250000X0.650000X-0.412500X0.650000X0.412500X-0.650000X0.412500X-0.650000X-0.412500X0*%
%ADD58RoundRect,0.237500X0.008839X0.344715X-0.344715X-0.008839X-0.008839X-0.344715X0.344715X0.008839X0*%
%ADD59C,1.600200*%
%ADD60R,0.711200X0.990600*%
%ADD61RoundRect,0.250000X0.475000X-0.337500X0.475000X0.337500X-0.475000X0.337500X-0.475000X-0.337500X0*%
%ADD62RoundRect,0.062500X0.325000X0.062500X-0.325000X0.062500X-0.325000X-0.062500X0.325000X-0.062500X0*%
%ADD63RoundRect,0.062500X0.062500X0.325000X-0.062500X0.325000X-0.062500X-0.325000X0.062500X-0.325000X0*%
%ADD64R,2.450000X2.450000*%
%ADD65RoundRect,0.075000X-0.725000X-0.075000X0.725000X-0.075000X0.725000X0.075000X-0.725000X0.075000X0*%
%ADD66RoundRect,0.075000X-0.075000X-0.725000X0.075000X-0.725000X0.075000X0.725000X-0.075000X0.725000X0*%
%ADD67RoundRect,0.237500X-0.008839X-0.344715X0.344715X0.008839X0.008839X0.344715X-0.344715X-0.008839X0*%
%ADD68RoundRect,0.237500X-0.237500X0.287500X-0.237500X-0.287500X0.237500X-0.287500X0.237500X0.287500X0*%
%ADD69RoundRect,0.237500X-0.380070X0.044194X0.044194X-0.380070X0.380070X-0.044194X-0.044194X0.380070X0*%
G04 APERTURE END LIST*
%TO.C,G\u002A\u002A\u002A*%
G36*
X140852924Y-188407045D02*
G01*
X141017527Y-188750339D01*
X140807728Y-189416242D01*
X140520000Y-189989188D01*
X140163915Y-190870566D01*
X140004841Y-191729986D01*
X140058610Y-192405349D01*
X140255417Y-192698208D01*
X140523087Y-192985968D01*
X140332763Y-193161157D01*
X139787035Y-193160442D01*
X139288644Y-193155089D01*
X138968021Y-193409677D01*
X138670535Y-194048900D01*
X138663876Y-194066162D01*
X138399074Y-194745581D01*
X138217164Y-195197424D01*
X138190530Y-195258808D01*
X138354191Y-195424455D01*
X138850669Y-195564521D01*
X138938579Y-195617701D01*
X138570811Y-195658029D01*
X137820800Y-195680213D01*
X137212709Y-195682593D01*
X135907694Y-195679756D01*
X135041842Y-195694179D01*
X134525149Y-195744029D01*
X134267612Y-195847472D01*
X134179229Y-196022675D01*
X134169996Y-196287802D01*
X134170000Y-196296725D01*
X134219003Y-196625590D01*
X134456139Y-196759851D01*
X135016602Y-196742256D01*
X135426771Y-196694114D01*
X137092909Y-196491465D01*
X138309061Y-196366040D01*
X139148655Y-196317216D01*
X139685115Y-196344374D01*
X139991866Y-196446892D01*
X140142333Y-196624150D01*
X140154818Y-196654139D01*
X140167115Y-197170712D01*
X140050660Y-197374423D01*
X139841062Y-197452471D01*
X139817091Y-197158201D01*
X139627437Y-196773778D01*
X139044994Y-196587015D01*
X138171160Y-196606372D01*
X137107332Y-196840307D01*
X136881471Y-196913322D01*
X135557299Y-197251583D01*
X134562600Y-197266288D01*
X133929774Y-196968250D01*
X133691223Y-196368281D01*
X133750635Y-195868618D01*
X134115171Y-195275213D01*
X134673326Y-195044939D01*
X135167512Y-194904875D01*
X135306862Y-194643638D01*
X135177029Y-194079570D01*
X135157948Y-194017121D01*
X135027424Y-193298203D01*
X135192109Y-192655732D01*
X135404026Y-192257824D01*
X136002761Y-191548943D01*
X136900122Y-190830486D01*
X137891503Y-190256508D01*
X138266382Y-190102640D01*
X138442597Y-189803140D01*
X138470428Y-189336227D01*
X138522843Y-188838323D01*
X138887455Y-188583379D01*
X139235765Y-188496826D01*
X140272733Y-188338495D01*
X140852924Y-188407045D01*
G37*
G36*
X140855209Y-188405756D02*
G01*
X141019812Y-188749050D01*
X140810013Y-189414953D01*
X140522285Y-189987899D01*
X140166200Y-190869277D01*
X140007126Y-191728697D01*
X140060895Y-192404060D01*
X140257702Y-192696919D01*
X140525372Y-192984679D01*
X140335048Y-193159868D01*
X139789320Y-193159153D01*
X139290929Y-193153800D01*
X138970306Y-193408388D01*
X138672820Y-194047611D01*
X138666161Y-194064873D01*
X138401359Y-194744292D01*
X138219449Y-195196135D01*
X138192815Y-195257519D01*
X138356476Y-195423166D01*
X138852954Y-195563232D01*
X138940864Y-195616412D01*
X138573096Y-195656740D01*
X137823085Y-195678924D01*
X137214994Y-195681304D01*
X135909979Y-195678467D01*
X135044127Y-195692890D01*
X134527434Y-195742740D01*
X134269897Y-195846183D01*
X134181514Y-196021386D01*
X134172281Y-196286513D01*
X134172285Y-196295436D01*
X134221288Y-196624301D01*
X134458424Y-196758562D01*
X135018887Y-196740967D01*
X135429056Y-196692825D01*
X137095194Y-196490176D01*
X138311346Y-196364751D01*
X139150940Y-196315927D01*
X139687400Y-196343085D01*
X139994151Y-196445603D01*
X140144618Y-196622861D01*
X140157103Y-196652850D01*
X140169400Y-197169423D01*
X140052945Y-197373134D01*
X139843347Y-197451182D01*
X139819376Y-197156912D01*
X139629722Y-196772489D01*
X139047279Y-196585726D01*
X138173445Y-196605083D01*
X137109617Y-196839018D01*
X136883756Y-196912033D01*
X135559584Y-197250294D01*
X134564885Y-197264999D01*
X133932059Y-196966961D01*
X133693508Y-196366992D01*
X133752920Y-195867329D01*
X134117456Y-195273924D01*
X134675611Y-195043650D01*
X135169797Y-194903586D01*
X135309147Y-194642349D01*
X135179314Y-194078281D01*
X135160233Y-194015832D01*
X135029709Y-193296914D01*
X135194394Y-192654443D01*
X135406311Y-192256535D01*
X136005046Y-191547654D01*
X136902407Y-190829197D01*
X137893788Y-190255219D01*
X138268667Y-190101351D01*
X138444882Y-189801851D01*
X138472713Y-189334938D01*
X138525128Y-188837034D01*
X138889740Y-188582090D01*
X139238050Y-188495537D01*
X140275018Y-188337206D01*
X140855209Y-188405756D01*
G37*
%TD*%
D10*
%TO.C,D23*%
X157000000Y-134200000D03*
X157000000Y-132800000D03*
%TD*%
D11*
%TO.C,D22*%
X158750000Y-147550000D03*
X158750000Y-148950000D03*
%TD*%
D10*
%TO.C,D21*%
X157000000Y-140150000D03*
X157000000Y-138750000D03*
%TD*%
D12*
%TO.C,TP18*%
X178500000Y-149250000D03*
%TD*%
%TO.C,TP17*%
X163250000Y-124750000D03*
%TD*%
%TO.C,TP16*%
X159000000Y-107000000D03*
%TD*%
%TO.C,TP15*%
X144250000Y-117750000D03*
%TD*%
%TO.C,TP14*%
X119750000Y-108250000D03*
%TD*%
%TO.C,TP13*%
X105500000Y-122500000D03*
%TD*%
%TO.C,TP12*%
X105250000Y-141500000D03*
%TD*%
D13*
%TO.C,TP7*%
X107000000Y-209750000D03*
%TD*%
%TO.C,TP6*%
X112250000Y-209750000D03*
%TD*%
%TO.C,TP5*%
X117750000Y-209750000D03*
%TD*%
%TO.C,TP4*%
X123000000Y-209750000D03*
%TD*%
D14*
%TO.C,R53*%
X121750000Y-202912500D03*
X121750000Y-201087500D03*
%TD*%
D15*
%TO.C,R52*%
X149337500Y-198500000D03*
X151162500Y-198500000D03*
%TD*%
D16*
%TO.C,TP3*%
X164960000Y-238250000D03*
X167500000Y-238250000D03*
%TD*%
D17*
%TO.C,J8*%
X117344000Y-142748000D03*
X120654000Y-145288000D03*
%TD*%
D18*
%TO.C,B1*%
X104877550Y-150276999D03*
X104877550Y-153277001D03*
X104877550Y-154777001D03*
D19*
X101776850Y-151027010D03*
X101776850Y-154027010D03*
D20*
X100811850Y-148877000D03*
X102741850Y-148877000D03*
X100811850Y-156177000D03*
X102741850Y-156177000D03*
%TD*%
D21*
%TO.C,L1*%
X116078000Y-195628400D03*
X116078000Y-189435600D03*
%TD*%
D22*
%TO.C,D2*%
X146750000Y-203375000D03*
X146750000Y-201625000D03*
%TD*%
D23*
%TO.C,C8*%
X115417500Y-199000000D03*
X117142500Y-199000000D03*
%TD*%
D24*
%TO.C,R6*%
X102280000Y-196087500D03*
X102280000Y-197912500D03*
%TD*%
%TO.C,R35*%
X142000000Y-116000000D03*
X142000000Y-117825000D03*
%TD*%
D25*
%TO.C,C42*%
X154151500Y-189611000D03*
X152426500Y-189611000D03*
%TD*%
D24*
%TO.C,R49*%
X123750000Y-201087500D03*
X123750000Y-202912500D03*
%TD*%
%TO.C,R24*%
X164750000Y-138425000D03*
X164750000Y-140250000D03*
%TD*%
%TO.C,R17*%
X146431000Y-224837500D03*
X146431000Y-226662500D03*
%TD*%
D26*
%TO.C,C5*%
X115205000Y-201000000D03*
X117280000Y-201000000D03*
%TD*%
D15*
%TO.C,R31*%
X114587500Y-134000000D03*
X116412500Y-134000000D03*
%TD*%
D27*
%TO.C,U7*%
X141351000Y-198985000D03*
X141351000Y-198485000D03*
X141351000Y-197985000D03*
X141351000Y-197485000D03*
D28*
X140688500Y-197322500D03*
X140188500Y-197322500D03*
X139688500Y-197322500D03*
D27*
X139026000Y-197485000D03*
X139026000Y-197985000D03*
X139026000Y-198485000D03*
X139026000Y-198985000D03*
D28*
X139688500Y-199147500D03*
X140188500Y-199147500D03*
X140688500Y-199147500D03*
%TD*%
D29*
%TO.C,J7*%
X137000000Y-213500000D03*
X137000000Y-212000000D03*
X137000000Y-210500001D03*
X137000000Y-208999999D03*
X137000000Y-207499999D03*
X137000000Y-206000000D03*
%TD*%
D30*
%TO.C,C20*%
X170910974Y-123930734D03*
X172130734Y-122710974D03*
%TD*%
D31*
%TO.C,C21*%
X172750000Y-145887500D03*
X172750000Y-147612500D03*
%TD*%
D15*
%TO.C,R4*%
X104167500Y-198708900D03*
X105992500Y-198708900D03*
%TD*%
D32*
%TO.C,B2*%
X158927798Y-132450000D03*
X162072202Y-132450000D03*
X158927798Y-134750000D03*
X162072202Y-134750000D03*
%TD*%
D24*
%TO.C,R25*%
X164750000Y-144087500D03*
X164750000Y-145912500D03*
%TD*%
D33*
%TO.C,D14*%
X112250000Y-119750000D03*
D34*
X110453949Y-121546051D03*
%TD*%
D35*
%TO.C,D6*%
X184500000Y-144000000D03*
D36*
X187040000Y-144000000D03*
%TD*%
D14*
%TO.C,R9*%
X140462000Y-220749500D03*
X140462000Y-218924500D03*
%TD*%
D37*
%TO.C,D17*%
X170375000Y-137750000D03*
X168625000Y-137750000D03*
%TD*%
D38*
%TO.C,R41*%
X122108714Y-109100816D03*
X123399184Y-110391286D03*
%TD*%
D14*
%TO.C,R12*%
X145923000Y-220749500D03*
X145923000Y-218924500D03*
%TD*%
D31*
%TO.C,C7*%
X105780000Y-190387500D03*
X105780000Y-192112500D03*
%TD*%
D29*
%TO.C,J4*%
X143000000Y-176499999D03*
X143000000Y-177999999D03*
X143000000Y-179499998D03*
X143000000Y-181000000D03*
X143000000Y-182500000D03*
X143000000Y-183999999D03*
%TD*%
D35*
%TO.C,D4*%
X93000000Y-144000000D03*
D36*
X95540000Y-144000000D03*
%TD*%
D14*
%TO.C,R13*%
X142240000Y-220749500D03*
X142240000Y-218924500D03*
%TD*%
D39*
%TO.C,D16*%
X141500000Y-110000000D03*
D34*
X138960000Y-110000000D03*
%TD*%
D40*
%TO.C,D7*%
X163803949Y-115500000D03*
D36*
X165600000Y-117296051D03*
%TD*%
D41*
%TO.C,U6*%
X124200000Y-198225000D03*
X124850000Y-198225000D03*
X125500000Y-198225000D03*
X126150000Y-198225000D03*
X126800000Y-198225000D03*
X127450000Y-198225000D03*
X128100000Y-198225000D03*
X128750000Y-198225000D03*
X128750000Y-192500000D03*
X128100000Y-192500000D03*
X127450000Y-192500000D03*
X126800000Y-192500000D03*
X126150000Y-192500000D03*
X125500000Y-192500000D03*
X124850000Y-192500000D03*
X124200000Y-192500000D03*
%TD*%
D42*
%TO.C,R1*%
X121162500Y-153000000D03*
X119337500Y-153000000D03*
%TD*%
D41*
%TO.C,U5*%
X154100000Y-198250000D03*
X154750000Y-198250000D03*
X155400000Y-198250000D03*
X156050000Y-198250000D03*
X156700000Y-198250000D03*
X157350000Y-198250000D03*
X158000000Y-198250000D03*
X158650000Y-198250000D03*
X158650000Y-192525000D03*
X158000000Y-192525000D03*
X157350000Y-192525000D03*
X156700000Y-192525000D03*
X156050000Y-192525000D03*
X155400000Y-192525000D03*
X154750000Y-192525000D03*
X154100000Y-192525000D03*
%TD*%
D24*
%TO.C,R2*%
X111750000Y-151250000D03*
X111750000Y-153075000D03*
%TD*%
%TO.C,R3*%
X110000000Y-151250000D03*
X110000000Y-153075000D03*
%TD*%
D43*
%TO.C,J1*%
X163690000Y-153814000D03*
X163690000Y-149750000D03*
X164960000Y-153814000D03*
X164960000Y-149750000D03*
X166230000Y-153814000D03*
X166230000Y-149750000D03*
X167500000Y-153814000D03*
X167500000Y-149750000D03*
X168770000Y-153814000D03*
X168770000Y-149750000D03*
%TD*%
D44*
%TO.C,C9*%
X107780000Y-190462500D03*
X107780000Y-192537500D03*
%TD*%
D45*
%TO.C,U2*%
X114500000Y-151100000D03*
X114500000Y-152050000D03*
X114500000Y-153000000D03*
X117200000Y-153000000D03*
X117200000Y-151100000D03*
%TD*%
D42*
%TO.C,R47*%
X132865500Y-198374000D03*
X131040500Y-198374000D03*
%TD*%
D46*
%TO.C,J2*%
X133360000Y-234075000D03*
X139140000Y-234075000D03*
D47*
X133050000Y-233000000D03*
X133850000Y-233000000D03*
D48*
X135000000Y-233000000D03*
X136000000Y-233000000D03*
X136500000Y-233000000D03*
X137500000Y-233000000D03*
D47*
X138650000Y-233000000D03*
X139450000Y-233000000D03*
X139450000Y-233000000D03*
X138650000Y-233000000D03*
D48*
X138000000Y-233000000D03*
X137000000Y-233000000D03*
X135500000Y-233000000D03*
X134500000Y-233000000D03*
D47*
X133850000Y-233000000D03*
X133050000Y-233000000D03*
D49*
X131140000Y-233575000D03*
X131140000Y-237505000D03*
X141360000Y-233575000D03*
X141360000Y-237505000D03*
%TD*%
D16*
%TO.C,TP2*%
X117500000Y-238250000D03*
X114960000Y-238250000D03*
%TD*%
D32*
%TO.C,B3*%
X158927798Y-138100000D03*
X162072202Y-138100000D03*
X158927798Y-140400000D03*
X162072202Y-140400000D03*
%TD*%
D23*
%TO.C,C48*%
X184775000Y-148500000D03*
X186500000Y-148500000D03*
%TD*%
D50*
%TO.C,C47*%
X120359880Y-120140120D03*
X119140120Y-121359880D03*
%TD*%
D14*
%TO.C,R38*%
X174750000Y-147662500D03*
X174750000Y-145837500D03*
%TD*%
D31*
%TO.C,C26*%
X136750000Y-197887500D03*
X136750000Y-199612500D03*
%TD*%
D35*
%TO.C,D8*%
X133000000Y-110000000D03*
D36*
X135540000Y-110000000D03*
%TD*%
D38*
%TO.C,R40*%
X108104765Y-122604765D03*
X109395235Y-123895235D03*
%TD*%
D14*
%TO.C,R11*%
X144018000Y-220749500D03*
X144018000Y-218924500D03*
%TD*%
D25*
%TO.C,C6*%
X109542500Y-200508900D03*
X107817500Y-200508900D03*
%TD*%
D39*
%TO.C,D13*%
X101500000Y-144000000D03*
D34*
X98960000Y-144000000D03*
%TD*%
D23*
%TO.C,C27*%
X144331250Y-196500000D03*
X146056250Y-196500000D03*
%TD*%
D51*
%TO.C,D5*%
X114750000Y-117401562D03*
D36*
X116546051Y-115605511D03*
%TD*%
D37*
%TO.C,D18*%
X170375000Y-139750000D03*
X168625000Y-139750000D03*
%TD*%
D52*
%TO.C,D1*%
X171750000Y-151350000D03*
X171750000Y-154150000D03*
%TD*%
D24*
%TO.C,R33*%
X175250000Y-129837500D03*
X175250000Y-131662500D03*
%TD*%
D25*
%TO.C,C4*%
X106642500Y-194500000D03*
X104917500Y-194500000D03*
%TD*%
D24*
%TO.C,R50*%
X160274000Y-196087500D03*
X160274000Y-197912500D03*
%TD*%
D25*
%TO.C,C46*%
X94842500Y-148209000D03*
X93117500Y-148209000D03*
%TD*%
D23*
%TO.C,C2*%
X119387500Y-151000000D03*
X121112500Y-151000000D03*
%TD*%
D53*
%TO.C,D10*%
X160500000Y-112250000D03*
D34*
X158703949Y-110453949D03*
%TD*%
D53*
%TO.C,D11*%
X169750000Y-121500000D03*
D34*
X167953949Y-119703949D03*
%TD*%
D29*
%TO.C,J6*%
X137000000Y-184000001D03*
X137000000Y-182500001D03*
X137000000Y-181000002D03*
X137000000Y-179500000D03*
X137000000Y-178000000D03*
X137000000Y-176500001D03*
%TD*%
D54*
%TO.C,U3*%
X110280000Y-195500000D03*
X110280000Y-195000000D03*
X110280000Y-194500000D03*
X108780000Y-194500000D03*
X108780000Y-195000000D03*
X108780000Y-195500000D03*
%TD*%
D44*
%TO.C,C10*%
X110280000Y-190462500D03*
X110280000Y-192537500D03*
%TD*%
D23*
%TO.C,C44*%
X157633500Y-189400000D03*
X159358500Y-189400000D03*
%TD*%
D55*
%TO.C,Q2*%
X173000000Y-133500000D03*
X173000000Y-134450001D03*
X173000000Y-135400002D03*
X175199000Y-135400002D03*
X175199000Y-134450001D03*
X175199000Y-133500000D03*
%TD*%
D42*
%TO.C,R48*%
X153500000Y-200250000D03*
X151675000Y-200250000D03*
%TD*%
D14*
%TO.C,R7*%
X102280000Y-194421400D03*
X102280000Y-192596400D03*
%TD*%
D25*
%TO.C,C43*%
X123925500Y-188341000D03*
X122200500Y-188341000D03*
%TD*%
D56*
%TO.C,C23*%
X108059880Y-125159880D03*
X106840120Y-123940120D03*
%TD*%
D23*
%TO.C,C50*%
X133525000Y-115000000D03*
X135250000Y-115000000D03*
%TD*%
D31*
%TO.C,C25*%
X138500000Y-116050000D03*
X138500000Y-117775000D03*
%TD*%
D56*
%TO.C,C49*%
X161859880Y-120609880D03*
X160640120Y-119390120D03*
%TD*%
D55*
%TO.C,Q1*%
X120500000Y-135950001D03*
X120500000Y-135000000D03*
X120500000Y-134049999D03*
X118301000Y-134049999D03*
X118301000Y-135000000D03*
X118301000Y-135950001D03*
%TD*%
D42*
%TO.C,R46*%
X160712500Y-200900000D03*
X158887500Y-200900000D03*
%TD*%
D57*
%TO.C,C13*%
X135890000Y-226606500D03*
X135890000Y-223481500D03*
%TD*%
D15*
%TO.C,R5*%
X107767500Y-198708900D03*
X109592500Y-198708900D03*
%TD*%
D12*
%TO.C,TP1*%
X114173000Y-156464000D03*
%TD*%
D58*
%TO.C,R36*%
X156145235Y-107104765D03*
X154854765Y-108395235D03*
%TD*%
D39*
%TO.C,D12*%
X181000000Y-144000000D03*
D34*
X178460000Y-144000000D03*
%TD*%
D15*
%TO.C,R39*%
X105337500Y-143750000D03*
X107162500Y-143750000D03*
%TD*%
D22*
%TO.C,L2*%
X132715000Y-230110000D03*
X132715000Y-228360000D03*
%TD*%
D59*
%TO.C,J3*%
X145752899Y-232500000D03*
X148252899Y-232500000D03*
%TD*%
D32*
%TO.C,B4*%
X158927798Y-143850000D03*
X162072202Y-143850000D03*
X158927798Y-146150000D03*
X162072202Y-146150000D03*
%TD*%
D50*
%TO.C,C19*%
X157309880Y-108440120D03*
X156090120Y-109659880D03*
%TD*%
D60*
%TO.C,Q3*%
X139599998Y-122199000D03*
X140549999Y-122199000D03*
X141500000Y-122199000D03*
X141500000Y-120000000D03*
X140549999Y-120000000D03*
X139599998Y-120000000D03*
%TD*%
D24*
%TO.C,R16*%
X148209000Y-224837500D03*
X148209000Y-226662500D03*
%TD*%
D37*
%TO.C,D19*%
X170375000Y-141750000D03*
X168625000Y-141750000D03*
%TD*%
D61*
%TO.C,C11*%
X135890000Y-231000000D03*
X135890000Y-228925000D03*
%TD*%
D15*
%TO.C,R30*%
X114587500Y-136000000D03*
X116412500Y-136000000D03*
%TD*%
D33*
%TO.C,D15*%
X120750000Y-111500000D03*
D34*
X118953949Y-113296051D03*
%TD*%
D23*
%TO.C,C41*%
X142275000Y-230750000D03*
X144000000Y-230750000D03*
%TD*%
D14*
%TO.C,R8*%
X148750000Y-203412500D03*
X148750000Y-201587500D03*
%TD*%
D25*
%TO.C,C51*%
X147112500Y-115000000D03*
X145387500Y-115000000D03*
%TD*%
D44*
%TO.C,C12*%
X133223000Y-223244500D03*
X133223000Y-225319500D03*
%TD*%
D62*
%TO.C,U4*%
X143172000Y-227039500D03*
X143172000Y-226539500D03*
X143172000Y-226039500D03*
X143172000Y-225539500D03*
X143172000Y-225039500D03*
X143172000Y-224539500D03*
D63*
X142434500Y-223802000D03*
X141934500Y-223802000D03*
X141434500Y-223802000D03*
X140934500Y-223802000D03*
X140434500Y-223802000D03*
X139934500Y-223802000D03*
D62*
X139197000Y-224539500D03*
X139197000Y-225039500D03*
X139197000Y-225539500D03*
X139197000Y-226039500D03*
X139197000Y-226539500D03*
X139197000Y-227039500D03*
D63*
X139934500Y-227777000D03*
X140434500Y-227777000D03*
X140934500Y-227777000D03*
X141434500Y-227777000D03*
X141934500Y-227777000D03*
X142434500Y-227777000D03*
D64*
X141184500Y-225789500D03*
%TD*%
D23*
%TO.C,C22*%
X105387500Y-145500000D03*
X107112500Y-145500000D03*
%TD*%
D37*
%TO.C,D20*%
X170375000Y-143750000D03*
X168625000Y-143750000D03*
%TD*%
D15*
%TO.C,R29*%
X148287500Y-175500000D03*
X150112500Y-175500000D03*
%TD*%
D24*
%TO.C,R34*%
X140250000Y-116000000D03*
X140250000Y-117825000D03*
%TD*%
%TO.C,R10*%
X138684000Y-218924500D03*
X138684000Y-220749500D03*
%TD*%
D65*
%TO.C,U1*%
X132325000Y-158825000D03*
X132325000Y-159325000D03*
X132325000Y-159825000D03*
X132325000Y-160325000D03*
X132325000Y-160825000D03*
X132325000Y-161325000D03*
X132325000Y-161825000D03*
X132325000Y-162325000D03*
X132325000Y-162825000D03*
X132325000Y-163325000D03*
X132325000Y-163825000D03*
X132325000Y-164325000D03*
X132325000Y-164825000D03*
X132325000Y-165325000D03*
X132325000Y-165825000D03*
X132325000Y-166325000D03*
X132325000Y-166825000D03*
X132325000Y-167325000D03*
X132325000Y-167825000D03*
X132325000Y-168325000D03*
X132325000Y-168825000D03*
X132325000Y-169325000D03*
X132325000Y-169825000D03*
X132325000Y-170325000D03*
X132325000Y-170825000D03*
D66*
X134000000Y-172500000D03*
X134500000Y-172500000D03*
X135000000Y-172500000D03*
X135500000Y-172500000D03*
X136000000Y-172500000D03*
X136500000Y-172500000D03*
X137000000Y-172500000D03*
X137500000Y-172500000D03*
X138000000Y-172500000D03*
X138500000Y-172500000D03*
X139000000Y-172500000D03*
X139500000Y-172500000D03*
X140000000Y-172500000D03*
X140500000Y-172500000D03*
X141000000Y-172500000D03*
X141500000Y-172500000D03*
X142000000Y-172500000D03*
X142500000Y-172500000D03*
X143000000Y-172500000D03*
X143500000Y-172500000D03*
X144000000Y-172500000D03*
X144500000Y-172500000D03*
X145000000Y-172500000D03*
X145500000Y-172500000D03*
X146000000Y-172500000D03*
D65*
X147675000Y-170825000D03*
X147675000Y-170325000D03*
X147675000Y-169825000D03*
X147675000Y-169325000D03*
X147675000Y-168825000D03*
X147675000Y-168325000D03*
X147675000Y-167825000D03*
X147675000Y-167325000D03*
X147675000Y-166825000D03*
X147675000Y-166325000D03*
X147675000Y-165825000D03*
X147675000Y-165325000D03*
X147675000Y-164825000D03*
X147675000Y-164325000D03*
X147675000Y-163825000D03*
X147675000Y-163325000D03*
X147675000Y-162825000D03*
X147675000Y-162325000D03*
X147675000Y-161825000D03*
X147675000Y-161325000D03*
X147675000Y-160825000D03*
X147675000Y-160325000D03*
X147675000Y-159825000D03*
X147675000Y-159325000D03*
X147675000Y-158825000D03*
D66*
X146000000Y-157150000D03*
X145500000Y-157150000D03*
X145000000Y-157150000D03*
X144500000Y-157150000D03*
X144000000Y-157150000D03*
X143500000Y-157150000D03*
X143000000Y-157150000D03*
X142500000Y-157150000D03*
X142000000Y-157150000D03*
X141500000Y-157150000D03*
X141000000Y-157150000D03*
X140500000Y-157150000D03*
X140000000Y-157150000D03*
X139500000Y-157150000D03*
X139000000Y-157150000D03*
X138500000Y-157150000D03*
X138000000Y-157150000D03*
X137500000Y-157150000D03*
X137000000Y-157150000D03*
X136500000Y-157150000D03*
X136000000Y-157150000D03*
X135500000Y-157150000D03*
X135000000Y-157150000D03*
X134500000Y-157150000D03*
X134000000Y-157150000D03*
%TD*%
D29*
%TO.C,J5*%
X143000000Y-206000001D03*
X143000000Y-207500001D03*
X143000000Y-209000000D03*
X143000000Y-210500002D03*
X143000000Y-212000002D03*
X143000000Y-213500001D03*
%TD*%
D42*
%TO.C,R45*%
X143212500Y-200700000D03*
X141387500Y-200700000D03*
%TD*%
D67*
%TO.C,R37*%
X172285499Y-125256209D03*
X173575969Y-123965739D03*
%TD*%
D68*
%TO.C,D3*%
X149959000Y-224875000D03*
X149959000Y-226625000D03*
%TD*%
D23*
%TO.C,C45*%
X126645500Y-189738000D03*
X128370500Y-189738000D03*
%TD*%
D69*
%TO.C,C24*%
X123390120Y-107890120D03*
X124609880Y-109109880D03*
%TD*%
D35*
%TO.C,D9*%
X145000000Y-110000000D03*
D36*
X147540000Y-110000000D03*
%TD*%
M02*
