%TF.GenerationSoftware,KiCad,Pcbnew,7.0.8-1.fc38*%
%TF.CreationDate,2023-12-05T14:34:52+01:00*%
%TF.ProjectId,frat,66726174-2e6b-4696-9361-645f70636258,rev?*%
%TF.SameCoordinates,Original*%
%TF.FileFunction,Drillmap*%
%TF.FilePolarity,Positive*%
%FSLAX45Y45*%
G04 Gerber Fmt 4.5, Leading zero omitted, Abs format (unit mm)*
G04 Created by KiCad (PCBNEW 7.0.8-1.fc38) date 2023-12-05 14:34:52*
%MOMM*%
%LPD*%
G01*
G04 APERTURE LIST*
%ADD10C,0.100000*%
%ADD11C,0.200000*%
%ADD12C,0.065000*%
G04 APERTURE END LIST*
D10*
X10000000Y-15000000D02*
X10000000Y-24000000D01*
X18000000Y-24000000D02*
X18000000Y-15000000D01*
D11*
X19000000Y-15000000D02*
G75*
G03*
X9000000Y-15000000I-5000000J0D01*
G01*
D10*
X10000000Y-15000000D02*
X9000000Y-15000000D01*
X10000000Y-24000000D02*
X18000000Y-24000000D01*
X18000000Y-15000000D02*
X19000000Y-15000000D01*
D11*
D12*
X13303500Y-23375000D02*
X13368500Y-23440000D01*
X13368500Y-23375000D02*
X13303500Y-23440000D01*
X13881500Y-23375000D02*
X13946500Y-23440000D01*
X13946500Y-23375000D02*
X13881500Y-23440000D01*
D11*
X9250777Y-24316484D02*
X9250777Y-24116484D01*
X9250777Y-24116484D02*
X9298396Y-24116484D01*
X9298396Y-24116484D02*
X9326967Y-24126008D01*
X9326967Y-24126008D02*
X9346015Y-24145055D01*
X9346015Y-24145055D02*
X9355539Y-24164103D01*
X9355539Y-24164103D02*
X9365063Y-24202198D01*
X9365063Y-24202198D02*
X9365063Y-24230769D01*
X9365063Y-24230769D02*
X9355539Y-24268865D01*
X9355539Y-24268865D02*
X9346015Y-24287912D01*
X9346015Y-24287912D02*
X9326967Y-24306960D01*
X9326967Y-24306960D02*
X9298396Y-24316484D01*
X9298396Y-24316484D02*
X9250777Y-24316484D01*
X9450777Y-24316484D02*
X9450777Y-24183150D01*
X9450777Y-24221246D02*
X9460301Y-24202198D01*
X9460301Y-24202198D02*
X9469824Y-24192674D01*
X9469824Y-24192674D02*
X9488872Y-24183150D01*
X9488872Y-24183150D02*
X9507920Y-24183150D01*
X9574586Y-24316484D02*
X9574586Y-24183150D01*
X9574586Y-24116484D02*
X9565063Y-24126008D01*
X9565063Y-24126008D02*
X9574586Y-24135531D01*
X9574586Y-24135531D02*
X9584110Y-24126008D01*
X9584110Y-24126008D02*
X9574586Y-24116484D01*
X9574586Y-24116484D02*
X9574586Y-24135531D01*
X9698396Y-24316484D02*
X9679348Y-24306960D01*
X9679348Y-24306960D02*
X9669824Y-24287912D01*
X9669824Y-24287912D02*
X9669824Y-24116484D01*
X9803158Y-24316484D02*
X9784110Y-24306960D01*
X9784110Y-24306960D02*
X9774586Y-24287912D01*
X9774586Y-24287912D02*
X9774586Y-24116484D01*
X10031729Y-24316484D02*
X10031729Y-24116484D01*
X10031729Y-24116484D02*
X10098396Y-24259341D01*
X10098396Y-24259341D02*
X10165063Y-24116484D01*
X10165063Y-24116484D02*
X10165063Y-24316484D01*
X10346015Y-24316484D02*
X10346015Y-24211722D01*
X10346015Y-24211722D02*
X10336491Y-24192674D01*
X10336491Y-24192674D02*
X10317444Y-24183150D01*
X10317444Y-24183150D02*
X10279348Y-24183150D01*
X10279348Y-24183150D02*
X10260301Y-24192674D01*
X10346015Y-24306960D02*
X10326967Y-24316484D01*
X10326967Y-24316484D02*
X10279348Y-24316484D01*
X10279348Y-24316484D02*
X10260301Y-24306960D01*
X10260301Y-24306960D02*
X10250777Y-24287912D01*
X10250777Y-24287912D02*
X10250777Y-24268865D01*
X10250777Y-24268865D02*
X10260301Y-24249817D01*
X10260301Y-24249817D02*
X10279348Y-24240293D01*
X10279348Y-24240293D02*
X10326967Y-24240293D01*
X10326967Y-24240293D02*
X10346015Y-24230769D01*
X10441253Y-24183150D02*
X10441253Y-24383150D01*
X10441253Y-24192674D02*
X10460301Y-24183150D01*
X10460301Y-24183150D02*
X10498396Y-24183150D01*
X10498396Y-24183150D02*
X10517444Y-24192674D01*
X10517444Y-24192674D02*
X10526967Y-24202198D01*
X10526967Y-24202198D02*
X10536491Y-24221246D01*
X10536491Y-24221246D02*
X10536491Y-24278388D01*
X10536491Y-24278388D02*
X10526967Y-24297436D01*
X10526967Y-24297436D02*
X10517444Y-24306960D01*
X10517444Y-24306960D02*
X10498396Y-24316484D01*
X10498396Y-24316484D02*
X10460301Y-24316484D01*
X10460301Y-24316484D02*
X10441253Y-24306960D01*
X10622205Y-24297436D02*
X10631729Y-24306960D01*
X10631729Y-24306960D02*
X10622205Y-24316484D01*
X10622205Y-24316484D02*
X10612682Y-24306960D01*
X10612682Y-24306960D02*
X10622205Y-24297436D01*
X10622205Y-24297436D02*
X10622205Y-24316484D01*
X10622205Y-24192674D02*
X10631729Y-24202198D01*
X10631729Y-24202198D02*
X10622205Y-24211722D01*
X10622205Y-24211722D02*
X10612682Y-24202198D01*
X10612682Y-24202198D02*
X10622205Y-24192674D01*
X10622205Y-24192674D02*
X10622205Y-24211722D01*
D12*
X8925000Y-24612500D02*
X8990000Y-24677500D01*
X8990000Y-24612500D02*
X8925000Y-24677500D01*
D11*
X9288872Y-24536484D02*
X9307920Y-24536484D01*
X9307920Y-24536484D02*
X9326967Y-24546008D01*
X9326967Y-24546008D02*
X9336491Y-24555531D01*
X9336491Y-24555531D02*
X9346015Y-24574579D01*
X9346015Y-24574579D02*
X9355539Y-24612674D01*
X9355539Y-24612674D02*
X9355539Y-24660293D01*
X9355539Y-24660293D02*
X9346015Y-24698388D01*
X9346015Y-24698388D02*
X9336491Y-24717436D01*
X9336491Y-24717436D02*
X9326967Y-24726960D01*
X9326967Y-24726960D02*
X9307920Y-24736484D01*
X9307920Y-24736484D02*
X9288872Y-24736484D01*
X9288872Y-24736484D02*
X9269824Y-24726960D01*
X9269824Y-24726960D02*
X9260301Y-24717436D01*
X9260301Y-24717436D02*
X9250777Y-24698388D01*
X9250777Y-24698388D02*
X9241253Y-24660293D01*
X9241253Y-24660293D02*
X9241253Y-24612674D01*
X9241253Y-24612674D02*
X9250777Y-24574579D01*
X9250777Y-24574579D02*
X9260301Y-24555531D01*
X9260301Y-24555531D02*
X9269824Y-24546008D01*
X9269824Y-24546008D02*
X9288872Y-24536484D01*
X9441253Y-24717436D02*
X9450777Y-24726960D01*
X9450777Y-24726960D02*
X9441253Y-24736484D01*
X9441253Y-24736484D02*
X9431729Y-24726960D01*
X9431729Y-24726960D02*
X9441253Y-24717436D01*
X9441253Y-24717436D02*
X9441253Y-24736484D01*
X9622205Y-24536484D02*
X9584110Y-24536484D01*
X9584110Y-24536484D02*
X9565063Y-24546008D01*
X9565063Y-24546008D02*
X9555539Y-24555531D01*
X9555539Y-24555531D02*
X9536491Y-24584103D01*
X9536491Y-24584103D02*
X9526967Y-24622198D01*
X9526967Y-24622198D02*
X9526967Y-24698388D01*
X9526967Y-24698388D02*
X9536491Y-24717436D01*
X9536491Y-24717436D02*
X9546015Y-24726960D01*
X9546015Y-24726960D02*
X9565063Y-24736484D01*
X9565063Y-24736484D02*
X9603158Y-24736484D01*
X9603158Y-24736484D02*
X9622205Y-24726960D01*
X9622205Y-24726960D02*
X9631729Y-24717436D01*
X9631729Y-24717436D02*
X9641253Y-24698388D01*
X9641253Y-24698388D02*
X9641253Y-24650769D01*
X9641253Y-24650769D02*
X9631729Y-24631722D01*
X9631729Y-24631722D02*
X9622205Y-24622198D01*
X9622205Y-24622198D02*
X9603158Y-24612674D01*
X9603158Y-24612674D02*
X9565063Y-24612674D01*
X9565063Y-24612674D02*
X9546015Y-24622198D01*
X9546015Y-24622198D02*
X9536491Y-24631722D01*
X9536491Y-24631722D02*
X9526967Y-24650769D01*
X9822205Y-24536484D02*
X9726967Y-24536484D01*
X9726967Y-24536484D02*
X9717444Y-24631722D01*
X9717444Y-24631722D02*
X9726967Y-24622198D01*
X9726967Y-24622198D02*
X9746015Y-24612674D01*
X9746015Y-24612674D02*
X9793634Y-24612674D01*
X9793634Y-24612674D02*
X9812682Y-24622198D01*
X9812682Y-24622198D02*
X9822205Y-24631722D01*
X9822205Y-24631722D02*
X9831729Y-24650769D01*
X9831729Y-24650769D02*
X9831729Y-24698388D01*
X9831729Y-24698388D02*
X9822205Y-24717436D01*
X9822205Y-24717436D02*
X9812682Y-24726960D01*
X9812682Y-24726960D02*
X9793634Y-24736484D01*
X9793634Y-24736484D02*
X9746015Y-24736484D01*
X9746015Y-24736484D02*
X9726967Y-24726960D01*
X9726967Y-24726960D02*
X9717444Y-24717436D01*
X9955539Y-24536484D02*
X9974586Y-24536484D01*
X9974586Y-24536484D02*
X9993634Y-24546008D01*
X9993634Y-24546008D02*
X10003158Y-24555531D01*
X10003158Y-24555531D02*
X10012682Y-24574579D01*
X10012682Y-24574579D02*
X10022205Y-24612674D01*
X10022205Y-24612674D02*
X10022205Y-24660293D01*
X10022205Y-24660293D02*
X10012682Y-24698388D01*
X10012682Y-24698388D02*
X10003158Y-24717436D01*
X10003158Y-24717436D02*
X9993634Y-24726960D01*
X9993634Y-24726960D02*
X9974586Y-24736484D01*
X9974586Y-24736484D02*
X9955539Y-24736484D01*
X9955539Y-24736484D02*
X9936491Y-24726960D01*
X9936491Y-24726960D02*
X9926967Y-24717436D01*
X9926967Y-24717436D02*
X9917444Y-24698388D01*
X9917444Y-24698388D02*
X9907920Y-24660293D01*
X9907920Y-24660293D02*
X9907920Y-24612674D01*
X9907920Y-24612674D02*
X9917444Y-24574579D01*
X9917444Y-24574579D02*
X9926967Y-24555531D01*
X9926967Y-24555531D02*
X9936491Y-24546008D01*
X9936491Y-24546008D02*
X9955539Y-24536484D01*
X10107920Y-24736484D02*
X10107920Y-24603150D01*
X10107920Y-24622198D02*
X10117444Y-24612674D01*
X10117444Y-24612674D02*
X10136491Y-24603150D01*
X10136491Y-24603150D02*
X10165063Y-24603150D01*
X10165063Y-24603150D02*
X10184110Y-24612674D01*
X10184110Y-24612674D02*
X10193634Y-24631722D01*
X10193634Y-24631722D02*
X10193634Y-24736484D01*
X10193634Y-24631722D02*
X10203158Y-24612674D01*
X10203158Y-24612674D02*
X10222205Y-24603150D01*
X10222205Y-24603150D02*
X10250777Y-24603150D01*
X10250777Y-24603150D02*
X10269825Y-24612674D01*
X10269825Y-24612674D02*
X10279348Y-24631722D01*
X10279348Y-24631722D02*
X10279348Y-24736484D01*
X10374586Y-24736484D02*
X10374586Y-24603150D01*
X10374586Y-24622198D02*
X10384110Y-24612674D01*
X10384110Y-24612674D02*
X10403158Y-24603150D01*
X10403158Y-24603150D02*
X10431729Y-24603150D01*
X10431729Y-24603150D02*
X10450777Y-24612674D01*
X10450777Y-24612674D02*
X10460301Y-24631722D01*
X10460301Y-24631722D02*
X10460301Y-24736484D01*
X10460301Y-24631722D02*
X10469825Y-24612674D01*
X10469825Y-24612674D02*
X10488872Y-24603150D01*
X10488872Y-24603150D02*
X10517444Y-24603150D01*
X10517444Y-24603150D02*
X10536491Y-24612674D01*
X10536491Y-24612674D02*
X10546015Y-24631722D01*
X10546015Y-24631722D02*
X10546015Y-24736484D01*
X10936491Y-24526960D02*
X10765063Y-24784103D01*
X11193634Y-24536484D02*
X11212682Y-24536484D01*
X11212682Y-24536484D02*
X11231729Y-24546008D01*
X11231729Y-24546008D02*
X11241253Y-24555531D01*
X11241253Y-24555531D02*
X11250777Y-24574579D01*
X11250777Y-24574579D02*
X11260301Y-24612674D01*
X11260301Y-24612674D02*
X11260301Y-24660293D01*
X11260301Y-24660293D02*
X11250777Y-24698388D01*
X11250777Y-24698388D02*
X11241253Y-24717436D01*
X11241253Y-24717436D02*
X11231729Y-24726960D01*
X11231729Y-24726960D02*
X11212682Y-24736484D01*
X11212682Y-24736484D02*
X11193634Y-24736484D01*
X11193634Y-24736484D02*
X11174587Y-24726960D01*
X11174587Y-24726960D02*
X11165063Y-24717436D01*
X11165063Y-24717436D02*
X11155539Y-24698388D01*
X11155539Y-24698388D02*
X11146015Y-24660293D01*
X11146015Y-24660293D02*
X11146015Y-24612674D01*
X11146015Y-24612674D02*
X11155539Y-24574579D01*
X11155539Y-24574579D02*
X11165063Y-24555531D01*
X11165063Y-24555531D02*
X11174587Y-24546008D01*
X11174587Y-24546008D02*
X11193634Y-24536484D01*
X11346015Y-24717436D02*
X11355539Y-24726960D01*
X11355539Y-24726960D02*
X11346015Y-24736484D01*
X11346015Y-24736484D02*
X11336491Y-24726960D01*
X11336491Y-24726960D02*
X11346015Y-24717436D01*
X11346015Y-24717436D02*
X11346015Y-24736484D01*
X11479348Y-24536484D02*
X11498396Y-24536484D01*
X11498396Y-24536484D02*
X11517444Y-24546008D01*
X11517444Y-24546008D02*
X11526967Y-24555531D01*
X11526967Y-24555531D02*
X11536491Y-24574579D01*
X11536491Y-24574579D02*
X11546015Y-24612674D01*
X11546015Y-24612674D02*
X11546015Y-24660293D01*
X11546015Y-24660293D02*
X11536491Y-24698388D01*
X11536491Y-24698388D02*
X11526967Y-24717436D01*
X11526967Y-24717436D02*
X11517444Y-24726960D01*
X11517444Y-24726960D02*
X11498396Y-24736484D01*
X11498396Y-24736484D02*
X11479348Y-24736484D01*
X11479348Y-24736484D02*
X11460301Y-24726960D01*
X11460301Y-24726960D02*
X11450777Y-24717436D01*
X11450777Y-24717436D02*
X11441253Y-24698388D01*
X11441253Y-24698388D02*
X11431729Y-24660293D01*
X11431729Y-24660293D02*
X11431729Y-24612674D01*
X11431729Y-24612674D02*
X11441253Y-24574579D01*
X11441253Y-24574579D02*
X11450777Y-24555531D01*
X11450777Y-24555531D02*
X11460301Y-24546008D01*
X11460301Y-24546008D02*
X11479348Y-24536484D01*
X11622206Y-24555531D02*
X11631729Y-24546008D01*
X11631729Y-24546008D02*
X11650777Y-24536484D01*
X11650777Y-24536484D02*
X11698396Y-24536484D01*
X11698396Y-24536484D02*
X11717444Y-24546008D01*
X11717444Y-24546008D02*
X11726967Y-24555531D01*
X11726967Y-24555531D02*
X11736491Y-24574579D01*
X11736491Y-24574579D02*
X11736491Y-24593627D01*
X11736491Y-24593627D02*
X11726967Y-24622198D01*
X11726967Y-24622198D02*
X11612682Y-24736484D01*
X11612682Y-24736484D02*
X11736491Y-24736484D01*
X11917444Y-24536484D02*
X11822206Y-24536484D01*
X11822206Y-24536484D02*
X11812682Y-24631722D01*
X11812682Y-24631722D02*
X11822206Y-24622198D01*
X11822206Y-24622198D02*
X11841253Y-24612674D01*
X11841253Y-24612674D02*
X11888872Y-24612674D01*
X11888872Y-24612674D02*
X11907920Y-24622198D01*
X11907920Y-24622198D02*
X11917444Y-24631722D01*
X11917444Y-24631722D02*
X11926967Y-24650769D01*
X11926967Y-24650769D02*
X11926967Y-24698388D01*
X11926967Y-24698388D02*
X11917444Y-24717436D01*
X11917444Y-24717436D02*
X11907920Y-24726960D01*
X11907920Y-24726960D02*
X11888872Y-24736484D01*
X11888872Y-24736484D02*
X11841253Y-24736484D01*
X11841253Y-24736484D02*
X11822206Y-24726960D01*
X11822206Y-24726960D02*
X11812682Y-24717436D01*
X12098396Y-24536484D02*
X12060301Y-24536484D01*
X12060301Y-24536484D02*
X12041253Y-24546008D01*
X12041253Y-24546008D02*
X12031729Y-24555531D01*
X12031729Y-24555531D02*
X12012682Y-24584103D01*
X12012682Y-24584103D02*
X12003158Y-24622198D01*
X12003158Y-24622198D02*
X12003158Y-24698388D01*
X12003158Y-24698388D02*
X12012682Y-24717436D01*
X12012682Y-24717436D02*
X12022206Y-24726960D01*
X12022206Y-24726960D02*
X12041253Y-24736484D01*
X12041253Y-24736484D02*
X12079348Y-24736484D01*
X12079348Y-24736484D02*
X12098396Y-24726960D01*
X12098396Y-24726960D02*
X12107920Y-24717436D01*
X12107920Y-24717436D02*
X12117444Y-24698388D01*
X12117444Y-24698388D02*
X12117444Y-24650769D01*
X12117444Y-24650769D02*
X12107920Y-24631722D01*
X12107920Y-24631722D02*
X12098396Y-24622198D01*
X12098396Y-24622198D02*
X12079348Y-24612674D01*
X12079348Y-24612674D02*
X12041253Y-24612674D01*
X12041253Y-24612674D02*
X12022206Y-24622198D01*
X12022206Y-24622198D02*
X12012682Y-24631722D01*
X12012682Y-24631722D02*
X12003158Y-24650769D01*
X12193634Y-24536484D02*
X12193634Y-24574579D01*
X12269825Y-24536484D02*
X12269825Y-24574579D01*
X12565063Y-24812674D02*
X12555539Y-24803150D01*
X12555539Y-24803150D02*
X12536491Y-24774579D01*
X12536491Y-24774579D02*
X12526968Y-24755531D01*
X12526968Y-24755531D02*
X12517444Y-24726960D01*
X12517444Y-24726960D02*
X12507920Y-24679341D01*
X12507920Y-24679341D02*
X12507920Y-24641246D01*
X12507920Y-24641246D02*
X12517444Y-24593627D01*
X12517444Y-24593627D02*
X12526968Y-24565055D01*
X12526968Y-24565055D02*
X12536491Y-24546008D01*
X12536491Y-24546008D02*
X12555539Y-24517436D01*
X12555539Y-24517436D02*
X12565063Y-24507912D01*
X12631729Y-24555531D02*
X12641253Y-24546008D01*
X12641253Y-24546008D02*
X12660301Y-24536484D01*
X12660301Y-24536484D02*
X12707920Y-24536484D01*
X12707920Y-24536484D02*
X12726968Y-24546008D01*
X12726968Y-24546008D02*
X12736491Y-24555531D01*
X12736491Y-24555531D02*
X12746015Y-24574579D01*
X12746015Y-24574579D02*
X12746015Y-24593627D01*
X12746015Y-24593627D02*
X12736491Y-24622198D01*
X12736491Y-24622198D02*
X12622206Y-24736484D01*
X12622206Y-24736484D02*
X12746015Y-24736484D01*
X12984110Y-24736484D02*
X12984110Y-24536484D01*
X13069825Y-24736484D02*
X13069825Y-24631722D01*
X13069825Y-24631722D02*
X13060301Y-24612674D01*
X13060301Y-24612674D02*
X13041253Y-24603150D01*
X13041253Y-24603150D02*
X13012682Y-24603150D01*
X13012682Y-24603150D02*
X12993634Y-24612674D01*
X12993634Y-24612674D02*
X12984110Y-24622198D01*
X13193634Y-24736484D02*
X13174587Y-24726960D01*
X13174587Y-24726960D02*
X13165063Y-24717436D01*
X13165063Y-24717436D02*
X13155539Y-24698388D01*
X13155539Y-24698388D02*
X13155539Y-24641246D01*
X13155539Y-24641246D02*
X13165063Y-24622198D01*
X13165063Y-24622198D02*
X13174587Y-24612674D01*
X13174587Y-24612674D02*
X13193634Y-24603150D01*
X13193634Y-24603150D02*
X13222206Y-24603150D01*
X13222206Y-24603150D02*
X13241253Y-24612674D01*
X13241253Y-24612674D02*
X13250777Y-24622198D01*
X13250777Y-24622198D02*
X13260301Y-24641246D01*
X13260301Y-24641246D02*
X13260301Y-24698388D01*
X13260301Y-24698388D02*
X13250777Y-24717436D01*
X13250777Y-24717436D02*
X13241253Y-24726960D01*
X13241253Y-24726960D02*
X13222206Y-24736484D01*
X13222206Y-24736484D02*
X13193634Y-24736484D01*
X13374587Y-24736484D02*
X13355539Y-24726960D01*
X13355539Y-24726960D02*
X13346015Y-24707912D01*
X13346015Y-24707912D02*
X13346015Y-24536484D01*
X13526968Y-24726960D02*
X13507920Y-24736484D01*
X13507920Y-24736484D02*
X13469825Y-24736484D01*
X13469825Y-24736484D02*
X13450777Y-24726960D01*
X13450777Y-24726960D02*
X13441253Y-24707912D01*
X13441253Y-24707912D02*
X13441253Y-24631722D01*
X13441253Y-24631722D02*
X13450777Y-24612674D01*
X13450777Y-24612674D02*
X13469825Y-24603150D01*
X13469825Y-24603150D02*
X13507920Y-24603150D01*
X13507920Y-24603150D02*
X13526968Y-24612674D01*
X13526968Y-24612674D02*
X13536491Y-24631722D01*
X13536491Y-24631722D02*
X13536491Y-24650769D01*
X13536491Y-24650769D02*
X13441253Y-24669817D01*
X13612682Y-24726960D02*
X13631730Y-24736484D01*
X13631730Y-24736484D02*
X13669825Y-24736484D01*
X13669825Y-24736484D02*
X13688872Y-24726960D01*
X13688872Y-24726960D02*
X13698396Y-24707912D01*
X13698396Y-24707912D02*
X13698396Y-24698388D01*
X13698396Y-24698388D02*
X13688872Y-24679341D01*
X13688872Y-24679341D02*
X13669825Y-24669817D01*
X13669825Y-24669817D02*
X13641253Y-24669817D01*
X13641253Y-24669817D02*
X13622206Y-24660293D01*
X13622206Y-24660293D02*
X13612682Y-24641246D01*
X13612682Y-24641246D02*
X13612682Y-24631722D01*
X13612682Y-24631722D02*
X13622206Y-24612674D01*
X13622206Y-24612674D02*
X13641253Y-24603150D01*
X13641253Y-24603150D02*
X13669825Y-24603150D01*
X13669825Y-24603150D02*
X13688872Y-24612674D01*
X13765063Y-24812674D02*
X13774587Y-24803150D01*
X13774587Y-24803150D02*
X13793634Y-24774579D01*
X13793634Y-24774579D02*
X13803158Y-24755531D01*
X13803158Y-24755531D02*
X13812682Y-24726960D01*
X13812682Y-24726960D02*
X13822206Y-24679341D01*
X13822206Y-24679341D02*
X13822206Y-24641246D01*
X13822206Y-24641246D02*
X13812682Y-24593627D01*
X13812682Y-24593627D02*
X13803158Y-24565055D01*
X13803158Y-24565055D02*
X13793634Y-24546008D01*
X13793634Y-24546008D02*
X13774587Y-24517436D01*
X13774587Y-24517436D02*
X13765063Y-24507912D01*
X14126968Y-24812674D02*
X14117444Y-24803150D01*
X14117444Y-24803150D02*
X14098396Y-24774579D01*
X14098396Y-24774579D02*
X14088872Y-24755531D01*
X14088872Y-24755531D02*
X14079349Y-24726960D01*
X14079349Y-24726960D02*
X14069825Y-24679341D01*
X14069825Y-24679341D02*
X14069825Y-24641246D01*
X14069825Y-24641246D02*
X14079349Y-24593627D01*
X14079349Y-24593627D02*
X14088872Y-24565055D01*
X14088872Y-24565055D02*
X14098396Y-24546008D01*
X14098396Y-24546008D02*
X14117444Y-24517436D01*
X14117444Y-24517436D02*
X14126968Y-24507912D01*
X14203158Y-24603150D02*
X14203158Y-24736484D01*
X14203158Y-24622198D02*
X14212682Y-24612674D01*
X14212682Y-24612674D02*
X14231730Y-24603150D01*
X14231730Y-24603150D02*
X14260301Y-24603150D01*
X14260301Y-24603150D02*
X14279349Y-24612674D01*
X14279349Y-24612674D02*
X14288872Y-24631722D01*
X14288872Y-24631722D02*
X14288872Y-24736484D01*
X14412682Y-24736484D02*
X14393634Y-24726960D01*
X14393634Y-24726960D02*
X14384111Y-24717436D01*
X14384111Y-24717436D02*
X14374587Y-24698388D01*
X14374587Y-24698388D02*
X14374587Y-24641246D01*
X14374587Y-24641246D02*
X14384111Y-24622198D01*
X14384111Y-24622198D02*
X14393634Y-24612674D01*
X14393634Y-24612674D02*
X14412682Y-24603150D01*
X14412682Y-24603150D02*
X14441253Y-24603150D01*
X14441253Y-24603150D02*
X14460301Y-24612674D01*
X14460301Y-24612674D02*
X14469825Y-24622198D01*
X14469825Y-24622198D02*
X14479349Y-24641246D01*
X14479349Y-24641246D02*
X14479349Y-24698388D01*
X14479349Y-24698388D02*
X14469825Y-24717436D01*
X14469825Y-24717436D02*
X14460301Y-24726960D01*
X14460301Y-24726960D02*
X14441253Y-24736484D01*
X14441253Y-24736484D02*
X14412682Y-24736484D01*
X14536492Y-24603150D02*
X14612682Y-24603150D01*
X14565063Y-24536484D02*
X14565063Y-24707912D01*
X14565063Y-24707912D02*
X14574587Y-24726960D01*
X14574587Y-24726960D02*
X14593634Y-24736484D01*
X14593634Y-24736484D02*
X14612682Y-24736484D01*
X14831730Y-24603150D02*
X14831730Y-24803150D01*
X14831730Y-24612674D02*
X14850777Y-24603150D01*
X14850777Y-24603150D02*
X14888873Y-24603150D01*
X14888873Y-24603150D02*
X14907920Y-24612674D01*
X14907920Y-24612674D02*
X14917444Y-24622198D01*
X14917444Y-24622198D02*
X14926968Y-24641246D01*
X14926968Y-24641246D02*
X14926968Y-24698388D01*
X14926968Y-24698388D02*
X14917444Y-24717436D01*
X14917444Y-24717436D02*
X14907920Y-24726960D01*
X14907920Y-24726960D02*
X14888873Y-24736484D01*
X14888873Y-24736484D02*
X14850777Y-24736484D01*
X14850777Y-24736484D02*
X14831730Y-24726960D01*
X15041253Y-24736484D02*
X15022206Y-24726960D01*
X15022206Y-24726960D02*
X15012682Y-24707912D01*
X15012682Y-24707912D02*
X15012682Y-24536484D01*
X15203158Y-24736484D02*
X15203158Y-24631722D01*
X15203158Y-24631722D02*
X15193634Y-24612674D01*
X15193634Y-24612674D02*
X15174587Y-24603150D01*
X15174587Y-24603150D02*
X15136492Y-24603150D01*
X15136492Y-24603150D02*
X15117444Y-24612674D01*
X15203158Y-24726960D02*
X15184111Y-24736484D01*
X15184111Y-24736484D02*
X15136492Y-24736484D01*
X15136492Y-24736484D02*
X15117444Y-24726960D01*
X15117444Y-24726960D02*
X15107920Y-24707912D01*
X15107920Y-24707912D02*
X15107920Y-24688865D01*
X15107920Y-24688865D02*
X15117444Y-24669817D01*
X15117444Y-24669817D02*
X15136492Y-24660293D01*
X15136492Y-24660293D02*
X15184111Y-24660293D01*
X15184111Y-24660293D02*
X15203158Y-24650769D01*
X15269825Y-24603150D02*
X15346015Y-24603150D01*
X15298396Y-24536484D02*
X15298396Y-24707912D01*
X15298396Y-24707912D02*
X15307920Y-24726960D01*
X15307920Y-24726960D02*
X15326968Y-24736484D01*
X15326968Y-24736484D02*
X15346015Y-24736484D01*
X15488873Y-24726960D02*
X15469825Y-24736484D01*
X15469825Y-24736484D02*
X15431730Y-24736484D01*
X15431730Y-24736484D02*
X15412682Y-24726960D01*
X15412682Y-24726960D02*
X15403158Y-24707912D01*
X15403158Y-24707912D02*
X15403158Y-24631722D01*
X15403158Y-24631722D02*
X15412682Y-24612674D01*
X15412682Y-24612674D02*
X15431730Y-24603150D01*
X15431730Y-24603150D02*
X15469825Y-24603150D01*
X15469825Y-24603150D02*
X15488873Y-24612674D01*
X15488873Y-24612674D02*
X15498396Y-24631722D01*
X15498396Y-24631722D02*
X15498396Y-24650769D01*
X15498396Y-24650769D02*
X15403158Y-24669817D01*
X15669825Y-24736484D02*
X15669825Y-24536484D01*
X15669825Y-24726960D02*
X15650777Y-24736484D01*
X15650777Y-24736484D02*
X15612682Y-24736484D01*
X15612682Y-24736484D02*
X15593634Y-24726960D01*
X15593634Y-24726960D02*
X15584111Y-24717436D01*
X15584111Y-24717436D02*
X15574587Y-24698388D01*
X15574587Y-24698388D02*
X15574587Y-24641246D01*
X15574587Y-24641246D02*
X15584111Y-24622198D01*
X15584111Y-24622198D02*
X15593634Y-24612674D01*
X15593634Y-24612674D02*
X15612682Y-24603150D01*
X15612682Y-24603150D02*
X15650777Y-24603150D01*
X15650777Y-24603150D02*
X15669825Y-24612674D01*
X15746015Y-24812674D02*
X15755539Y-24803150D01*
X15755539Y-24803150D02*
X15774587Y-24774579D01*
X15774587Y-24774579D02*
X15784111Y-24755531D01*
X15784111Y-24755531D02*
X15793634Y-24726960D01*
X15793634Y-24726960D02*
X15803158Y-24679341D01*
X15803158Y-24679341D02*
X15803158Y-24641246D01*
X15803158Y-24641246D02*
X15793634Y-24593627D01*
X15793634Y-24593627D02*
X15784111Y-24565055D01*
X15784111Y-24565055D02*
X15774587Y-24546008D01*
X15774587Y-24546008D02*
X15755539Y-24517436D01*
X15755539Y-24517436D02*
X15746015Y-24507912D01*
M02*
