%TF.GenerationSoftware,KiCad,Pcbnew,7.0.8-1.fc38*%
%TF.CreationDate,2023-12-06T13:29:32+01:00*%
%TF.ProjectId,frat,66726174-2e6b-4696-9361-645f70636258,rev?*%
%TF.SameCoordinates,Original*%
%TF.FileFunction,Soldermask,Bot*%
%TF.FilePolarity,Negative*%
%FSLAX46Y46*%
G04 Gerber Fmt 4.6, Leading zero omitted, Abs format (unit mm)*
G04 Created by KiCad (PCBNEW 7.0.8-1.fc38) date 2023-12-06 13:29:32*
%MOMM*%
%LPD*%
G01*
G04 APERTURE LIST*
G04 Aperture macros list*
%AMRoundRect*
0 Rectangle with rounded corners*
0 $1 Rounding radius*
0 $2 $3 $4 $5 $6 $7 $8 $9 X,Y pos of 4 corners*
0 Add a 4 corners polygon primitive as box body*
4,1,4,$2,$3,$4,$5,$6,$7,$8,$9,$2,$3,0*
0 Add four circle primitives for the rounded corners*
1,1,$1+$1,$2,$3*
1,1,$1+$1,$4,$5*
1,1,$1+$1,$6,$7*
1,1,$1+$1,$8,$9*
0 Add four rect primitives between the rounded corners*
20,1,$1+$1,$2,$3,$4,$5,0*
20,1,$1+$1,$4,$5,$6,$7,0*
20,1,$1+$1,$6,$7,$8,$9,0*
20,1,$1+$1,$8,$9,$2,$3,0*%
%AMRotRect*
0 Rectangle, with rotation*
0 The origin of the aperture is its center*
0 $1 length*
0 $2 width*
0 $3 Rotation angle, in degrees counterclockwise*
0 Add horizontal line*
21,1,$1,$2,0,0,$3*%
G04 Aperture macros list end*
%ADD10RoundRect,0.237500X-0.250000X-0.237500X0.250000X-0.237500X0.250000X0.237500X-0.250000X0.237500X0*%
%ADD11C,1.000000*%
%ADD12RoundRect,0.237500X-0.237500X0.250000X-0.237500X-0.250000X0.237500X-0.250000X0.237500X0.250000X0*%
%ADD13RoundRect,0.237500X0.300000X0.237500X-0.300000X0.237500X-0.300000X-0.237500X0.300000X-0.237500X0*%
%ADD14C,2.000000*%
%ADD15C,1.400000*%
%ADD16C,1.244600*%
%ADD17RotRect,1.524000X1.524000X225.000000*%
%ADD18C,1.524000*%
%ADD19R,1.800000X1.800000*%
%ADD20C,1.800000*%
%ADD21R,1.524000X1.524000*%
%ADD22RotRect,1.800000X1.800000X315.000000*%
%ADD23C,0.650000*%
%ADD24RotRect,1.800000X1.800000X45.000000*%
%ADD25RotRect,1.524000X1.524000X135.000000*%
%ADD26C,1.600200*%
%ADD27RoundRect,0.237500X-0.300000X-0.237500X0.300000X-0.237500X0.300000X0.237500X-0.300000X0.237500X0*%
%ADD28RoundRect,0.237500X-0.044194X-0.380070X0.380070X0.044194X0.044194X0.380070X-0.380070X-0.044194X0*%
%ADD29RoundRect,0.237500X-0.380070X0.044194X0.044194X-0.380070X0.380070X-0.044194X-0.044194X0.380070X0*%
%ADD30RoundRect,0.237500X-0.237500X0.300000X-0.237500X-0.300000X0.237500X-0.300000X0.237500X0.300000X0*%
%ADD31RoundRect,0.237500X0.237500X-0.250000X0.237500X0.250000X-0.237500X0.250000X-0.237500X-0.250000X0*%
%ADD32RoundRect,0.237500X0.237500X-0.300000X0.237500X0.300000X-0.237500X0.300000X-0.237500X-0.300000X0*%
%ADD33RoundRect,0.237500X0.380070X-0.044194X-0.044194X0.380070X-0.380070X0.044194X0.044194X-0.380070X0*%
%ADD34RoundRect,0.237500X0.250000X0.237500X-0.250000X0.237500X-0.250000X-0.237500X0.250000X-0.237500X0*%
G04 APERTURE END LIST*
D10*
%TO.C,R60*%
X155587500Y-197500000D03*
X157412500Y-197500000D03*
%TD*%
%TO.C,R63*%
X124750000Y-184000000D03*
X126575000Y-184000000D03*
%TD*%
%TO.C,R62*%
X156337500Y-186250000D03*
X158162500Y-186250000D03*
%TD*%
%TO.C,R61*%
X125562500Y-197500000D03*
X127387500Y-197500000D03*
%TD*%
D11*
%TO.C,TP22*%
X157250000Y-175500000D03*
%TD*%
%TO.C,TP21*%
X159250000Y-175500000D03*
%TD*%
%TO.C,TP20*%
X128250000Y-176750000D03*
%TD*%
%TO.C,TP19*%
X126250000Y-176750000D03*
%TD*%
%TO.C,TP11*%
X122250000Y-176750000D03*
%TD*%
%TO.C,TP10*%
X124250000Y-176750000D03*
%TD*%
%TO.C,TP9*%
X153250000Y-175500000D03*
%TD*%
%TO.C,TP8*%
X155250000Y-175500000D03*
%TD*%
D12*
%TO.C,R59*%
X156750000Y-168925000D03*
X156750000Y-170750000D03*
%TD*%
%TO.C,R58*%
X158500000Y-168925000D03*
X158500000Y-170750000D03*
%TD*%
%TO.C,R57*%
X127500000Y-170087500D03*
X127500000Y-171912500D03*
%TD*%
%TO.C,R56*%
X125750000Y-170087500D03*
X125750000Y-171912500D03*
%TD*%
%TO.C,R27*%
X153250000Y-168925000D03*
X153250000Y-170750000D03*
%TD*%
%TO.C,R26*%
X155000000Y-168925000D03*
X155000000Y-170750000D03*
%TD*%
%TO.C,R21*%
X122250000Y-170087500D03*
X122250000Y-171912500D03*
%TD*%
%TO.C,R18*%
X124000000Y-170087500D03*
X124000000Y-171912500D03*
%TD*%
%TO.C,R55*%
X138000000Y-236250000D03*
X138000000Y-238075000D03*
%TD*%
%TO.C,R54*%
X135000000Y-236087500D03*
X135000000Y-237912500D03*
%TD*%
D13*
%TO.C,C53*%
X161112500Y-145250000D03*
X159387500Y-145250000D03*
%TD*%
%TO.C,C52*%
X161362500Y-139750000D03*
X159637500Y-139750000D03*
%TD*%
D14*
%TO.C,TP7*%
X107000000Y-209750000D03*
%TD*%
%TO.C,TP6*%
X112250000Y-209750000D03*
%TD*%
%TO.C,TP5*%
X117750000Y-209750000D03*
%TD*%
%TO.C,TP4*%
X123000000Y-209750000D03*
%TD*%
D15*
%TO.C,TP3*%
X164960000Y-238250000D03*
X167500000Y-238250000D03*
%TD*%
D16*
%TO.C,J7*%
X137000000Y-213500000D03*
X137000000Y-212000000D03*
X137000000Y-210500001D03*
X137000000Y-208999999D03*
X137000000Y-207499999D03*
X137000000Y-206000000D03*
%TD*%
D17*
%TO.C,D14*%
X112250000Y-119750000D03*
D18*
X110453949Y-121546051D03*
%TD*%
D19*
%TO.C,D6*%
X184500000Y-144000000D03*
D20*
X187040000Y-144000000D03*
%TD*%
D16*
%TO.C,J4*%
X143000000Y-176499999D03*
X143000000Y-177999999D03*
X143000000Y-179499998D03*
X143000000Y-181000000D03*
X143000000Y-182500000D03*
X143000000Y-183999999D03*
%TD*%
D19*
%TO.C,D4*%
X93000000Y-144000000D03*
D20*
X95540000Y-144000000D03*
%TD*%
D21*
%TO.C,D16*%
X141500000Y-110000000D03*
D18*
X138960000Y-110000000D03*
%TD*%
D22*
%TO.C,D7*%
X163803949Y-115500000D03*
D20*
X165600000Y-117296051D03*
%TD*%
D23*
%TO.C,J2*%
X133360000Y-234075000D03*
X139140000Y-234075000D03*
%TD*%
D15*
%TO.C,TP2*%
X117500000Y-238250000D03*
X114960000Y-238250000D03*
%TD*%
D19*
%TO.C,D8*%
X133000000Y-110000000D03*
D20*
X135540000Y-110000000D03*
%TD*%
D21*
%TO.C,D13*%
X101500000Y-144000000D03*
D18*
X98960000Y-144000000D03*
%TD*%
D24*
%TO.C,D5*%
X114750000Y-117401562D03*
D20*
X116546051Y-115605511D03*
%TD*%
D25*
%TO.C,D10*%
X160500000Y-112250000D03*
D18*
X158703949Y-110453949D03*
%TD*%
D25*
%TO.C,D11*%
X169750000Y-121500000D03*
D18*
X167953949Y-119703949D03*
%TD*%
D16*
%TO.C,J6*%
X137000000Y-184000001D03*
X137000000Y-182500001D03*
X137000000Y-181000002D03*
X137000000Y-179500000D03*
X137000000Y-178000000D03*
X137000000Y-176500001D03*
%TD*%
D21*
%TO.C,D12*%
X181000000Y-144000000D03*
D18*
X178460000Y-144000000D03*
%TD*%
D26*
%TO.C,J3*%
X145752899Y-232500000D03*
X148252899Y-232500000D03*
%TD*%
D17*
%TO.C,D15*%
X120750000Y-111500000D03*
D18*
X118953949Y-113296051D03*
%TD*%
D16*
%TO.C,J5*%
X143000000Y-206000001D03*
X143000000Y-207500001D03*
X143000000Y-209000000D03*
X143000000Y-210500002D03*
X143000000Y-212000002D03*
X143000000Y-213500001D03*
%TD*%
D19*
%TO.C,D9*%
X145000000Y-110000000D03*
D20*
X147540000Y-110000000D03*
%TD*%
D27*
%TO.C,C15*%
X156237500Y-192500000D03*
X157962500Y-192500000D03*
%TD*%
D28*
%TO.C,C38*%
X146390120Y-158359880D03*
X147609880Y-157140120D03*
%TD*%
D13*
%TO.C,C34*%
X133112500Y-163750000D03*
X131387500Y-163750000D03*
%TD*%
%TO.C,C36*%
X133112500Y-167250000D03*
X131387500Y-167250000D03*
%TD*%
D29*
%TO.C,C37*%
X146390120Y-171140120D03*
X147609880Y-172359880D03*
%TD*%
D13*
%TO.C,C29*%
X133112500Y-161250000D03*
X131387500Y-161250000D03*
%TD*%
D30*
%TO.C,C33*%
X135750000Y-156137500D03*
X135750000Y-157862500D03*
%TD*%
D12*
%TO.C,R14*%
X141478000Y-218924500D03*
X141478000Y-220749500D03*
%TD*%
D10*
%TO.C,R23*%
X172837500Y-143750000D03*
X174662500Y-143750000D03*
%TD*%
D31*
%TO.C,R44*%
X139250000Y-157912500D03*
X139250000Y-156087500D03*
%TD*%
D13*
%TO.C,C28*%
X148612500Y-160250000D03*
X146887500Y-160250000D03*
%TD*%
D10*
%TO.C,R20*%
X172837500Y-139750000D03*
X174662500Y-139750000D03*
%TD*%
D30*
%TO.C,C32*%
X135750000Y-171637500D03*
X135750000Y-173362500D03*
%TD*%
D13*
%TO.C,C35*%
X133112500Y-169000000D03*
X131387500Y-169000000D03*
%TD*%
D12*
%TO.C,R28*%
X142800000Y-171587500D03*
X142800000Y-173412500D03*
%TD*%
D32*
%TO.C,C18*%
X136017000Y-226541500D03*
X136017000Y-224816500D03*
%TD*%
D12*
%TO.C,R15*%
X143129000Y-218924500D03*
X143129000Y-220749500D03*
%TD*%
D30*
%TO.C,C3*%
X114500000Y-151887500D03*
X114500000Y-153612500D03*
%TD*%
D28*
%TO.C,C40*%
X131890120Y-172109880D03*
X133109880Y-170890120D03*
%TD*%
D13*
%TO.C,C30*%
X148525000Y-169200000D03*
X146800000Y-169200000D03*
%TD*%
D30*
%TO.C,C31*%
X144500000Y-171637500D03*
X144500000Y-173362500D03*
%TD*%
D13*
%TO.C,C16*%
X127362500Y-191500000D03*
X125637500Y-191500000D03*
%TD*%
D27*
%TO.C,C1*%
X163617500Y-154250000D03*
X165342500Y-154250000D03*
%TD*%
D10*
%TO.C,R22*%
X172837500Y-141750000D03*
X174662500Y-141750000D03*
%TD*%
D12*
%TO.C,R51*%
X127381000Y-201144500D03*
X127381000Y-202969500D03*
%TD*%
D27*
%TO.C,C14*%
X156237500Y-194200000D03*
X157962500Y-194200000D03*
%TD*%
D12*
%TO.C,R42*%
X140000000Y-116000000D03*
X140000000Y-117825000D03*
%TD*%
%TO.C,R43*%
X137500000Y-156087500D03*
X137500000Y-157912500D03*
%TD*%
D33*
%TO.C,C39*%
X133750000Y-158500000D03*
X132530240Y-157280240D03*
%TD*%
D13*
%TO.C,C17*%
X127362500Y-193250000D03*
X125637500Y-193250000D03*
%TD*%
D10*
%TO.C,R19*%
X172837500Y-137750000D03*
X174662500Y-137750000D03*
%TD*%
D34*
%TO.C,R32*%
X181162500Y-135250000D03*
X179337500Y-135250000D03*
%TD*%
M02*
